<svg xmlns="http://www.w3.org/2000/svg" xmlns:xlink="http://www.w3.org/1999/xlink" width="500" zoomAndPan="magnify" viewBox="0 0 375 374.999991" height="500" preserveAspectRatio="xMidYMid meet" version="1.0"><defs><g/><clipPath id="09e52c4764"><path d="M 194 192 L 239 192 L 239 236 L 194 236 Z M 194 192 " clip-rule="nonzero"/></clipPath><clipPath id="a968a6f1e9"><path d="M 151.640625 140.257812 L 260.390625 158.390625 L 241.144531 273.796875 L 132.398438 255.664062 Z M 151.640625 140.257812 " clip-rule="nonzero"/></clipPath><clipPath id="395d84e1d7"><path d="M 151.640625 140.257812 L 260.390625 158.390625 L 241.144531 273.796875 L 132.398438 255.664062 Z M 151.640625 140.257812 " clip-rule="nonzero"/></clipPath><clipPath id="1c7159b021"><path d="M 151 221 L 183 221 L 183 245 L 151 245 Z M 151 221 " clip-rule="nonzero"/></clipPath><clipPath id="43334f212e"><path d="M 151.640625 140.257812 L 260.390625 158.390625 L 241.144531 273.796875 L 132.398438 255.664062 Z M 151.640625 140.257812 " clip-rule="nonzero"/></clipPath><clipPath id="c62d3a32d2"><path d="M 151.640625 140.257812 L 260.390625 158.390625 L 241.144531 273.796875 L 132.398438 255.664062 Z M 151.640625 140.257812 " clip-rule="nonzero"/></clipPath><clipPath id="84e8ab2988"><path d="M 149 151 L 203 151 L 203 265 L 149 265 Z M 149 151 " clip-rule="nonzero"/></clipPath><clipPath id="48476e9da0"><path d="M 151.640625 140.257812 L 260.390625 158.390625 L 241.144531 273.796875 L 132.398438 255.664062 Z M 151.640625 140.257812 " clip-rule="nonzero"/></clipPath><clipPath id="a739564b97"><path d="M 151.640625 140.257812 L 260.390625 158.390625 L 241.144531 273.796875 L 132.398438 255.664062 Z M 151.640625 140.257812 " clip-rule="nonzero"/></clipPath><clipPath id="e096ce110d"><path d="M 40 187 L 68 187 L 68 278 L 40 278 Z M 40 187 " clip-rule="nonzero"/></clipPath><clipPath id="8d80404ac5"><path d="M 16.648438 196.433594 L 44.769531 185.980469 L 77.429688 273.859375 L 49.308594 284.308594 Z M 16.648438 196.433594 " clip-rule="nonzero"/></clipPath><clipPath id="e663fd2938"><path d="M 16.648438 196.433594 L 44.769531 185.980469 L 77.429688 273.859375 L 49.308594 284.308594 Z M 16.648438 196.433594 " clip-rule="nonzero"/></clipPath><clipPath id="af2aa45afa"><path d="M 267 230 L 320 230 L 320 310 L 267 310 Z M 267 230 " clip-rule="nonzero"/></clipPath><clipPath id="e7f4f01e15"><path d="M 308.402344 225.152344 L 335.191406 238.65625 L 292.988281 322.371094 L 266.203125 308.867188 Z M 308.402344 225.152344 " clip-rule="nonzero"/></clipPath><clipPath id="db9044af28"><path d="M 293.214844 322.367188 L 266.425781 308.863281 L 308.625 225.148438 L 335.414062 238.652344 Z M 293.214844 322.367188 " clip-rule="nonzero"/></clipPath><clipPath id="b2d97d5001"><path d="M 184.195312 261.601562 L 188.84375 261.601562 L 188.84375 267.75 L 184.195312 267.75 Z M 184.195312 261.601562 " clip-rule="nonzero"/></clipPath><clipPath id="782653ffb7"><path d="M 93 102 L 279 102 L 279 279 L 93 279 Z M 93 102 " clip-rule="nonzero"/></clipPath><clipPath id="b70518b24b"><path d="M 64.875 151.757812 L 214.824219 66.488281 L 308.253906 230.78125 L 158.304688 316.050781 Z M 64.875 151.757812 " clip-rule="nonzero"/></clipPath><clipPath id="9e68f54f71"><path d="M 64.875 151.757812 L 214.824219 66.488281 L 308.253906 230.78125 L 158.304688 316.050781 Z M 64.875 151.757812 " clip-rule="nonzero"/></clipPath></defs><g clip-path="url(#09e52c4764)"><g clip-path="url(#a968a6f1e9)"><g clip-path="url(#395d84e1d7)"><path fill="#528fc1" d="M 194.972656 230.257812 C 194.972656 230.257812 196.769531 209.375 215.988281 204.476562 C 235.203125 199.578125 238.113281 192.257812 238.113281 192.257812 C 238.113281 192.257812 245.859375 243.796875 198.921875 234.546875 C 198.921875 234.546875 225.824219 226.375 230.621094 207.3125 C 230.621094 207.3125 224.097656 224.285156 194.972656 230.257812 " fill-opacity="1" fill-rule="nonzero"/></g></g></g><g clip-path="url(#1c7159b021)"><g clip-path="url(#43334f212e)"><g clip-path="url(#c62d3a32d2)"><path fill="#528fc1" d="M 180.21875 244.207031 C 180.21875 244.207031 167.367188 245.941406 161.8125 235 C 156.261719 224.058594 151.449219 223.289062 151.449219 223.289062 C 151.449219 223.289062 181.519531 211.65625 182.273438 241.242188 C 182.273438 241.242188 173.707031 226.105469 161.550781 225.78125 C 161.550781 225.78125 172.679688 227.425781 180.21875 244.207031 " fill-opacity="1" fill-rule="nonzero"/></g></g></g><g clip-path="url(#84e8ab2988)"><g clip-path="url(#48476e9da0)"><g clip-path="url(#a739564b97)"><path fill="#528fc1" d="M 188.652344 264.074219 C 192.40625 243.726562 192.832031 227.238281 191.421875 213.984375 C 189.066406 182.609375 174.703125 169.3125 169.832031 165.667969 C 169.347656 165.296875 169.074219 165.125 169.074219 165.125 C 168.527344 164.742188 168.214844 164.566406 168.214844 164.566406 C 192.519531 174.691406 198.03125 211.945312 198.03125 211.945312 C 219.5625 151.589844 149.75 151.664062 149.75 151.664062 C 149.75 151.664062 158.871094 156.964844 161.5625 183.394531 C 163.457031 201.972656 177.519531 210.710938 185.707031 214.257812 C 188.042969 241.84375 179.914062 263.589844 179.914062 263.589844 L 188.652344 264.074219 " fill-opacity="1" fill-rule="nonzero"/></g></g></g><g clip-path="url(#e096ce110d)"><g clip-path="url(#8d80404ac5)"><g clip-path="url(#e663fd2938)"><path fill="#528fc1" d="M 65.996094 277.292969 C 65.40625 277.511719 64.652344 277.289062 64.136719 276.808594 C 30.90625 234.792969 42.382812 188.914062 42.511719 188.363281 C 42.734375 187.609375 43.566406 187.132812 44.464844 187.300781 C 45.367188 187.46875 45.84375 188.296875 45.527344 189.253906 C 45.492188 189.605469 34.3125 234.03125 66.757812 274.828125 C 67.328125 275.457031 67.214844 276.503906 66.585938 277.074219 C 66.4375 277.128906 66.289062 277.183594 65.996094 277.292969 Z M 65.996094 277.292969 " fill-opacity="1" fill-rule="nonzero"/></g></g></g><g fill="#528fc1" fill-opacity="1"><g transform="translate(61.182088, 176.076646)"><g><path d="M 3.421875 -13.78125 L 3.21875 -13.03125 L 2.90625 -12.34375 L 2.453125 -11.609375 L 2.125 -10.953125 L 0.984375 -9.3125 L -0.34375 -7.8125 L -2.28125 -6.375 L -4.40625 -5.125 L -8.25 -4.1875 L -10.640625 -4.15625 L -13.609375 -4.578125 L -16.9375 -5.734375 L -18.484375 -6.484375 L -20.5 -7.984375 L -21.46875 -9.015625 L -22.578125 -10.390625 L -23.765625 -12.453125 L -24.359375 -13.796875 L -25.109375 -17.0625 L -24.984375 -21.078125 L -24.40625 -23.5625 L -24.09375 -24.3125 L -23.875 -25.0625 L -21.75 -28.59375 L -19.4375 -30.9375 L -18.03125 -31.78125 L -17.171875 -32.046875 L -16.375 -32.4375 L -15.65625 -32.671875 L -14.90625 -32.96875 L -14.015625 -33.015625 L -13.25 -33.125 L -12.328125 -33.171875 L -11.59375 -32.71875 L -11.421875 -31.96875 L -11.578125 -30.734375 L -11.953125 -29.65625 L -12.078125 -28.84375 L -12.3125 -28.03125 L -12.390625 -27.296875 L -13.015625 -26.46875 L -13.953125 -25.875 L -14.65625 -25.59375 L -16.0625 -24.6875 L -16.625 -24.234375 L -17.078125 -23.5625 L -17.6875 -22.421875 L -18.171875 -20.734375 L -18.40625 -17.984375 L -18.0625 -16.78125 L -17.515625 -15.640625 L -16.609375 -14.4375 L -15.953125 -13.859375 L -14.65625 -12.953125 L -13.125 -12.328125 L -10.703125 -11.78125 L -9.78125 -11.703125 L -9.015625 -11.734375 L -8.40625 -11.890625 L -7.546875 -11.96875 L -5.953125 -12.546875 L -4.65625 -13.453125 L -3.625 -14.703125 L -2.78125 -16.03125 L -2.40625 -17.15625 L -2.046875 -19.28125 L -2.5 -20.84375 L -2.625 -21.484375 L -3.015625 -22.25 L -3.84375 -23.40625 L -4.53125 -23.96875 L -5.015625 -24.75 L -5.28125 -25.78125 L -5.0625 -26.546875 L -4.921875 -27.375 L -4.625 -28.140625 L -4.296875 -30.390625 L -3.59375 -31.078125 L -2.828125 -31.171875 L -0.03125 -29.4375 L 1.21875 -28.28125 L 2.203125 -27.09375 L 3.0625 -25.734375 L 4.03125 -23.46875 L 4.1875 -22.734375 L 4.28125 -21.828125 L 4.515625 -21.015625 L 4.46875 -18.5625 L 4.03125 -15.734375 Z M 3.421875 -13.78125 "/></g></g></g><g fill="#528fc1" fill-opacity="1"><g transform="translate(68.262118, 146.436197)"><g><path d="M -0.0625 -3.421875 L -13.984375 -9.75 L -14.71875 -10.015625 L -15.546875 -10.328125 L -16.890625 -11.078125 L -17.65625 -11.34375 L -18.328125 -11.734375 L -23.515625 -14.109375 L -24.1875 -14.8125 L -24.109375 -15.71875 L -23.90625 -16.484375 L -23.078125 -17.890625 L -22.90625 -18.703125 L -22.234375 -20.140625 L -21.453125 -20.6875 L -20.46875 -20.703125 L -19.78125 -20.34375 L -17.609375 -19.484375 L -16.15625 -18.734375 L -15.234375 -18.40625 L -2.6875 -12.609375 L -1.796875 -12.5625 L -1.15625 -13.171875 L -0.875 -13.984375 L -0.140625 -15.40625 L 0.0625 -16.125 L 0.546875 -16.78125 L 1.203125 -18.34375 L 1.65625 -19.0625 L 1.84375 -19.828125 L 2.125 -20.640625 L 2.875 -21.109375 L 4.140625 -20.9375 L 7.15625 -19.609375 L 8.125 -18.671875 L 8.1875 -17.796875 L 4.78125 -10.453125 L 4.484375 -9.625 L 4.03125 -8.953125 L 3.484375 -7.515625 L 2.734375 -6.09375 L 2.15625 -4.5 L 1.734375 -3.78125 L 1.03125 -3.25 Z M -0.0625 -3.421875 "/></g></g></g><g fill="#528fc1" fill-opacity="1"><g transform="translate(76.876206, 126.740319)"><g><path d="M 8.640625 -11.0625 L 7.828125 -10.0625 L 7.34375 -9.390625 L 6.140625 -8.296875 L 4.65625 -7.453125 L 4 -7.15625 L 3.234375 -6.71875 L 1.78125 -6.15625 L 1 -5.96875 L 0.25 -5.90625 L -1.5 -6.015625 L -3.015625 -6.296875 L -4.609375 -6.9375 L -7.390625 -8.640625 L -12.65625 -12.59375 L -13.328125 -12.984375 L -13.921875 -13.5625 L -18.625 -16.796875 L -19.109375 -17.25 L -19.90625 -17.828125 L -20.609375 -18.234375 L -20.921875 -19.109375 L -20.6875 -20 L -20.265625 -20.78125 L -19.125 -22.109375 L -18.75 -22.828125 L -18.296875 -23.453125 L -17.5 -23.921875 L -16.484375 -23.8125 L -15.46875 -23.1875 L -14.453125 -22.34375 L -13.90625 -22.0625 L -3.34375 -14.28125 L -1.265625 -13.09375 L -0.5 -12.859375 L 0.3125 -12.859375 L 1.109375 -13.09375 L 1.84375 -13.40625 L 2.546875 -14.046875 L 3.96875 -16.03125 L 4.390625 -17.5 L 4.390625 -18.375 L 3.984375 -19.203125 L 3.640625 -19.75 L 1.75 -21.46875 L -11.34375 -30.8125 L -11.796875 -31.6875 L -11.625 -32.625 L -10.53125 -33.9375 L -9.078125 -36.078125 L -8.328125 -36.625 L -7.3125 -36.5625 L -6.734375 -36 L -3.984375 -34.015625 L -3.421875 -33.703125 L -2.734375 -33.109375 L -2.0625 -32.71875 L 6.875 -26.28125 L 8.359375 -24.953125 L 9.515625 -23.65625 L 9.859375 -22.921875 L 10.375 -22.25 L 10.984375 -20.65625 L 11.234375 -19.078125 L 11.1875 -17.453125 L 10.953125 -15.796875 L 9.75 -12.734375 L 9.265625 -12.140625 Z M 8.640625 -11.0625 "/></g></g></g><g fill="#528fc1" fill-opacity="1"><g transform="translate(92.925664, 104.473354)"><g><path d="M 1.4375 -2.984375 L 0.859375 -3.515625 L -5.046875 -10.203125 L -5.96875 -11.046875 L -11.046875 -16.9375 L -12.28125 -18.15625 L -13.828125 -19.984375 L -14.34375 -20.5 L -14.890625 -21.171875 L -15.4375 -21.671875 L -16.03125 -22.34375 L -16.296875 -23.25 L -15.90625 -24.140625 L -12.1875 -27.375 L -11.75 -27.984375 L -10.421875 -28.90625 L -9.984375 -29.515625 L -6.78125 -32.234375 L -5.359375 -33.03125 L -4.671875 -33.296875 L -3.84375 -33.546875 L -3.046875 -33.703125 L -2.34375 -33.765625 L -1.609375 -33.859375 L -0.78125 -33.84375 L 1.46875 -33.34375 L 2.265625 -32.890625 L 3.484375 -32.015625 L 4.390625 -31.140625 L 5.3125 -30.078125 L 5.921875 -28.65625 L 6.390625 -26.953125 L 6.703125 -26.1875 L 7.625 -25.765625 L 8.515625 -25.765625 L 9.296875 -25.671875 L 10.953125 -24.90625 L 12.28125 -24.109375 L 14.421875 -21.609375 L 14.703125 -20.8125 L 15.03125 -20.0625 L 15.28125 -19.1875 L 15.46875 -17.328125 L 15.125 -15.265625 L 14.828125 -14.5 L 13.546875 -12.5 L 13.09375 -11.921875 L 10.09375 -8.953125 L 9.40625 -8.5 L 5.0625 -4.484375 L 4.078125 -3.765625 L 3.15625 -2.78125 L 2.25 -2.625 Z M -3.140625 -20.59375 L -0.875 -22.78125 L -0.265625 -23.875 L -0.140625 -24.640625 L -0.71875 -25.71875 L -1.625 -26.546875 L -2.296875 -26.828125 L -3 -26.640625 L -6.328125 -24.03125 L -6.578125 -23.140625 L -6.15625 -21.9375 L -5.1875 -20.9375 L -4.09375 -20.375 Z M 4.046875 -12.40625 L 6.4375 -14.4375 L 7.96875 -16.09375 L 8.203125 -16.890625 L 8.140625 -17.609375 L 7.5 -18.640625 L 6.640625 -19.21875 L 5.859375 -19.5 L 5.140625 -19.25 L 2.03125 -16.96875 L 1.46875 -16.328125 L 0.796875 -15.90625 L 0.65625 -15.046875 L 0.828125 -14.28125 L 2.375 -12.375 L 3.3125 -12.109375 Z M 4.046875 -12.40625 "/></g></g></g><g fill="#528fc1" fill-opacity="1"><g transform="translate(112.670191, 86.92401)"><g><path d="M 12.28125 -7.125 L 11.546875 -6.765625 L 10.875 -6.28125 L 10.046875 -5.859375 L 9.296875 -5.59375 L 7.921875 -4.625 L 7.265625 -4.296875 L 6.546875 -3.78125 L 4 -2.296875 L 2.671875 -2.140625 L 1.828125 -2.9375 L 1.296875 -3.65625 L -0.046875 -6.140625 L -0.5625 -6.78125 L -0.875 -7.5 L -4.21875 -13.203125 L -4.6875 -13.765625 L -6.359375 -16.65625 L -6.6875 -17.375 L -7.21875 -18.0625 L -9.1875 -21.546875 L -9.75 -22.25 L -10.484375 -23.75 L -11.34375 -25.03125 L -11.40625 -26 L -10.828125 -26.734375 L -10.109375 -27.09375 L -9.453125 -27.59375 L -8.765625 -27.890625 L -8.1875 -28.4375 L -7.421875 -28.734375 L -4.578125 -30.515625 L -3.84375 -30.859375 L -3.28125 -31.25 L -2.53125 -31.578125 L -1.796875 -32.125 L 1.03125 -33.828125 L 1.734375 -34.0625 L 2.46875 -34.5 L 3.34375 -34.625 L 4.078125 -34.15625 L 5.375 -32.09375 L 5.75 -31.359375 L 6.203125 -30.6875 L 6.234375 -29.84375 L 5.734375 -29 L 5.109375 -28.5625 L 0.03125 -25.671875 L -0.546875 -25.140625 L -1.234375 -24.765625 L -1.859375 -24.03125 L -1.765625 -23.171875 L -1.125 -22.078125 L -0.203125 -21.171875 L 0.734375 -21.296875 L 2.71875 -22.5625 L 4.265625 -23.328125 L 4.96875 -23.84375 L 7.03125 -25.0625 L 8.109375 -25.09375 L 9.03125 -24.3125 L 10.796875 -21.078125 L 10.984375 -20.25 L 10.4375 -19.53125 L 9.609375 -19.09375 L 8.9375 -18.625 L 7.484375 -17.78125 L 6.203125 -16.9375 L 5 -16.375 L 3.96875 -15.703125 L 3.578125 -14.953125 L 3.703125 -14.046875 L 5.015625 -11.828125 L 5.640625 -11.359375 L 6.59375 -11.4375 L 7.328125 -11.953125 L 8.0625 -12.25 L 8.8125 -12.75 L 9.546875 -13.09375 L 10.625 -13.90625 L 12.4375 -14.953125 L 13.171875 -15.234375 L 13.9375 -15.78125 L 14.859375 -15.90625 L 15.671875 -15.421875 L 17.765625 -11.875 L 17.8125 -10.921875 L 17.265625 -10.15625 Z M 12.28125 -7.125 "/></g></g></g><g fill="#528fc1" fill-opacity="1"><g transform="translate(133.173473, 75.312571)"><g/></g></g><g fill="#528fc1" fill-opacity="1"><g transform="translate(143.083047, 70.36381)"><g><path d="M 12.25 -2.765625 L 10.578125 -2.546875 L 9.828125 -2.234375 L 4.953125 -1.171875 L 4.1875 -0.90625 L 3.296875 -1.109375 L 2.625 -2.25 L 2.140625 -4.28125 L 1.875 -5.015625 L -3.328125 -27.203125 L -3.171875 -28.140625 L -2.375 -28.6875 L -1.59375 -28.84375 L -0.890625 -29.140625 L 8.1875 -31.1875 L 10.609375 -31.390625 L 11.484375 -31.390625 L 12.234375 -31.234375 L 13.0625 -31.265625 L 13.921875 -31.015625 L 16.265625 -30.125 L 18.921875 -28.28125 L 20.78125 -26.5 L 21.265625 -25.8125 L 22.140625 -24.4375 L 23.421875 -21.421875 L 23.75 -20.28125 L 23.9375 -18.984375 L 24.140625 -18.140625 L 24.203125 -17.328125 L 24.125 -16.609375 L 24.140625 -15.71875 L 24.140625 -14.921875 L 23.859375 -13.234375 L 23.546875 -12.46875 L 23.328125 -11.609375 L 21.984375 -8.625 L 19.75 -6.21875 L 18.0625 -4.984375 L 16.5 -4.3125 L 15.4375 -3.703125 L 14.625 -3.5 L 13.453125 -3.046875 Z M 10.59375 -9.25 L 11.796875 -9.578125 L 13.453125 -10.171875 L 14.5 -10.8125 L 15.640625 -12 L 16.734375 -14.015625 L 17.046875 -15.640625 L 16.8125 -18.515625 L 15.34375 -21.875 L 14.796875 -22.484375 L 14.25 -23.0625 L 13.484375 -23.640625 L 12.75 -24.0625 L 12.0625 -24.34375 L 11.265625 -24.53125 L 9.609375 -24.625 L 8.421875 -24.453125 L 6.765625 -24.03125 L 5.5625 -23.453125 L 5.390625 -22.453125 L 5.46875 -21.75 L 6.84375 -16.28125 L 7.140625 -14.265625 L 7.765625 -12.34375 L 8.109375 -10.703125 L 8.3125 -10.046875 L 8.828125 -9.375 L 9.828125 -9.171875 Z M 10.59375 -9.25 "/></g></g></g><g fill="#528fc1" fill-opacity="1"><g transform="translate(171.380826, 63.943989)"><g><path d="M 14.203125 -0.234375 L 13.375 -0.28125 L 12.5625 -0.1875 L 11.625 -0.21875 L 10.859375 -0.34375 L 9.171875 -0.1875 L 8.4375 -0.203125 L 7.546875 -0.109375 L 4.609375 -0.0625 L 3.375 -0.5625 L 3.015625 -1.671875 L 2.921875 -2.5625 L 2.96875 -5.375 L 2.828125 -6.203125 L 2.890625 -6.96875 L 2.75 -13.578125 L 2.625 -14.3125 L 2.578125 -17.65625 L 2.640625 -18.4375 L 2.5 -19.296875 L 2.484375 -23.296875 L 2.328125 -24.1875 L 2.421875 -25.84375 L 2.296875 -27.390625 L 2.71875 -28.25 L 3.5625 -28.609375 L 4.390625 -28.578125 L 5.203125 -28.6875 L 5.953125 -28.625 L 6.703125 -28.8125 L 7.515625 -28.703125 L 10.875 -28.875 L 11.6875 -28.8125 L 12.375 -28.875 L 13.203125 -28.796875 L 14.09375 -28.921875 L 17.390625 -29.03125 L 18.140625 -28.890625 L 19 -28.90625 L 19.8125 -28.609375 L 20.203125 -27.828125 L 20.34375 -25.40625 L 20.328125 -24.578125 L 20.390625 -23.78125 L 20 -23.03125 L 19.15625 -22.515625 L 18.390625 -22.453125 L 12.546875 -22.40625 L 11.78125 -22.21875 L 11 -22.234375 L 10.09375 -21.890625 L 9.765625 -21.09375 L 9.796875 -19.828125 L 10.15625 -18.578125 L 11.015625 -18.234375 L 13.375 -18.375 L 15.09375 -18.296875 L 15.953125 -18.390625 L 18.359375 -18.453125 L 19.3125 -17.96875 L 19.75 -16.8125 L 19.71875 -13.140625 L 19.453125 -12.328125 L 18.65625 -11.96875 L 17.703125 -12 L 16.890625 -11.890625 L 15.21875 -11.890625 L 13.671875 -11.765625 L 12.359375 -11.859375 L 11.140625 -11.78125 L 10.40625 -11.328125 L 10.078125 -10.46875 L 10.140625 -7.890625 L 10.46875 -7.15625 L 11.34375 -6.765625 L 12.25 -6.875 L 13.015625 -6.78125 L 13.921875 -6.828125 L 14.734375 -6.78125 L 16.078125 -6.96875 L 18.15625 -6.984375 L 18.9375 -6.890625 L 19.875 -6.984375 L 20.734375 -6.640625 L 21.21875 -5.828125 L 21.3125 -1.71875 L 20.875 -0.84375 L 20.03125 -0.453125 Z M 14.203125 -0.234375 "/></g></g></g><g fill="#528fc1" fill-opacity="1"><g transform="translate(194.943816, 63.799534)"><g/></g></g><g fill="#528fc1" fill-opacity="1"><g transform="translate(205.962293, 64.213757)"><g><path d="M 13.546875 4.265625 L 12.8125 4 L 12.15625 3.65625 L 11.453125 3.15625 L 10.796875 2.796875 L 9.234375 1.546875 L 7.828125 0.140625 L 6.5 -1.890625 L 5.390625 -4.078125 L 4.6875 -7.96875 L 4.8125 -10.359375 L 5.390625 -13.3125 L 6.75 -16.5625 L 7.609375 -18.046875 L 9.234375 -19.96875 L 10.3125 -20.875 L 11.765625 -21.890625 L 13.875 -22.9375 L 15.265625 -23.46875 L 18.578125 -24 L 22.578125 -23.640625 L 25 -22.921875 L 25.734375 -22.5625 L 26.484375 -22.296875 L 29.875 -19.96875 L 32.046875 -17.515625 L 32.8125 -16.0625 L 33.03125 -15.171875 L 33.390625 -14.34375 L 33.5625 -13.625 L 33.828125 -12.875 L 33.796875 -11.96875 L 33.875 -11.1875 L 33.859375 -10.265625 L 33.375 -9.5625 L 32.609375 -9.4375 L 31.390625 -9.65625 L 30.328125 -10.109375 L 29.53125 -10.28125 L 28.734375 -10.5625 L 27.984375 -10.703125 L 27.21875 -11.375 L 26.6875 -12.34375 L 26.4375 -13.0625 L 25.625 -14.53125 L 25.1875 -15.125 L 24.5625 -15.609375 L 23.453125 -16.296875 L 21.796875 -16.859375 L 19.078125 -17.265625 L 17.859375 -17 L 16.6875 -16.515625 L 15.4375 -15.703125 L 14.828125 -15.078125 L 13.828125 -13.84375 L 13.09375 -12.34375 L 12.40625 -9.953125 L 12.28125 -9.046875 L 12.265625 -8.28125 L 12.375 -7.671875 L 12.421875 -6.8125 L 12.890625 -5.171875 L 13.71875 -3.828125 L 14.90625 -2.71875 L 16.15625 -1.796875 L 17.265625 -1.359375 L 19.359375 -0.875 L 20.953125 -1.21875 L 21.609375 -1.296875 L 22.40625 -1.65625 L 23.59375 -2.40625 L 24.203125 -3.046875 L 25.015625 -3.5 L 26.046875 -3.703125 L 26.8125 -3.4375 L 27.625 -3.25 L 28.375 -2.890625 L 30.609375 -2.421875 L 31.234375 -1.6875 L 31.265625 -0.921875 L 29.390625 1.765625 L 28.140625 2.953125 L 26.921875 3.859375 L 25.5 4.640625 L 23.1875 5.453125 L 22.421875 5.578125 L 21.53125 5.625 L 20.703125 5.796875 L 18.265625 5.59375 L 15.453125 5 Z M 13.546875 4.265625 "/></g></g></g><g fill="#528fc1" fill-opacity="1"><g transform="translate(235.194932, 73.286225)"><g><path d="M 12.0625 6.421875 L 11.421875 5.859375 L 9.65625 4.9375 L 8.484375 4.53125 L 7.125 3.625 L 6.375 3.34375 L 5.234375 2.78125 L 4.234375 2.109375 L 3.515625 1.8125 L 2.828125 1.46875 L 2.265625 0.765625 L 2.40625 -0.40625 L 4.234375 -3.6875 L 4.984375 -4.125 L 7.75 -3.625 L 8.703125 -4.5 L 14.34375 -15.671875 L 14.546875 -16.8125 L 14.0625 -17.609375 L 13.34375 -17.984375 L 12.75 -18.8125 L 12.734375 -19.734375 L 13.15625 -20.390625 L 14.4375 -23.125 L 15.25 -23.8125 L 16.171875 -23.796875 L 17 -23.375 L 17.625 -22.90625 L 20.59375 -21.375 L 21.40625 -21.125 L 22 -20.71875 L 26.390625 -18.453125 L 26.84375 -17.703125 L 26.921875 -16.8125 L 25.03125 -13.234375 L 24.359375 -12.828125 L 23.453125 -12.953125 L 22.671875 -13.21875 L 21.703125 -13.296875 L 21.03125 -12.59375 L 19 -9.015625 L 17.796875 -6.328125 L 17.296875 -5.5625 L 15.265625 -1.5625 L 14.8125 -0.921875 L 14.8125 0.140625 L 15.53125 0.875 L 16.28125 1.25 L 16.890625 2.0625 L 16.953125 2.984375 L 15.09375 6.578125 L 14.390625 7.0625 L 13.5625 7.09375 Z M 12.0625 6.421875 "/></g></g></g><g fill="#528fc1" fill-opacity="1"><g transform="translate(251.650472, 81.557568)"><g><path d="M 32.3125 -15.53125 L 31.65625 -15.890625 L 30.46875 -16.875 L 30.015625 -17.609375 L 29.984375 -18.140625 L 30.078125 -18.671875 L 29.9375 -19.15625 L 29.484375 -19.59375 L 27.921875 -19.1875 L 26.59375 -19.609375 L 26.25 -20.03125 L 25.78125 -20.21875 L 25.234375 -20.703125 L 24.90625 -21.046875 L 24.234375 -21.484375 L 23.421875 -22.09375 L 23.21875 -22.609375 L 26.703125 -23.6875 L 27.1875 -23.65625 L 27.671875 -23.859375 L 30.4375 -24.421875 L 31.3125 -24.234375 L 31.71875 -24.03125 L 32.484375 -23.453125 L 32.78125 -23.125 L 33.28125 -22.859375 L 33.609375 -22.46875 L 34 -22.171875 L 34.375 -21.453125 L 34.453125 -20.96875 L 34.453125 -20.453125 L 34.5625 -19.546875 L 34.5 -18.578125 L 34.703125 -18.171875 L 34.6875 -14.0625 L 34.046875 -14.015625 L 33.640625 -14.3125 L 32.921875 -14.96875 Z M 11.28125 8.625 L 10.671875 8.0625 L 9.96875 7.640625 L 9.25 7.046875 L 8.734375 6.453125 L 7.296875 5.53125 L 6.75 5.0625 L 5.984375 4.59375 L 3.65625 2.796875 L 3.015625 1.640625 L 3.40625 0.5625 L 3.875 -0.1875 L 5.65625 -2.375 L 6.0625 -3.09375 L 6.59375 -3.671875 L 10.578125 -8.9375 L 10.9375 -9.59375 L 12.953125 -12.25 L 13.484375 -12.828125 L 13.921875 -13.578125 L 16.390625 -16.71875 L 16.8125 -17.515625 L 17.9375 -18.765625 L 18.796875 -20.0625 L 19.65625 -20.5 L 20.546875 -20.21875 L 21.171875 -19.703125 L 21.890625 -19.28125 L 22.421875 -18.765625 L 23.140625 -18.453125 L 23.703125 -17.859375 L 26.4375 -15.90625 L 27.046875 -15.34375 L 27.625 -14.984375 L 28.21875 -14.421875 L 29 -13.953125 L 31.65625 -11.984375 L 32.140625 -11.421875 L 32.828125 -10.90625 L 33.28125 -10.171875 L 33.109375 -9.3125 L 31.703125 -7.3125 L 31.1875 -6.6875 L 30.71875 -6 L 29.953125 -5.65625 L 28.984375 -5.796875 L 28.34375 -6.203125 L 23.71875 -9.796875 L 23.015625 -10.109375 L 22.421875 -10.625 L 21.5 -10.90625 L 20.734375 -10.5 L 19.96875 -9.484375 L 19.484375 -8.265625 L 19.953125 -7.46875 L 21.890625 -6.125 L 23.1875 -4.984375 L 23.921875 -4.53125 L 25.84375 -3.078125 L 26.28125 -2.109375 L 25.921875 -0.953125 L 23.609375 1.921875 L 22.890625 2.40625 L 22.046875 2.171875 L 21.3125 1.5625 L 20.625 1.140625 L 19.296875 0.109375 L 18.015625 -0.765625 L 17.046875 -1.640625 L 16.046875 -2.34375 L 15.1875 -2.421875 L 14.390625 -1.953125 L 12.84375 0.109375 L 12.65625 0.875 L 13.09375 1.71875 L 13.859375 2.203125 L 14.40625 2.75 L 15.15625 3.265625 L 15.75 3.8125 L 16.921875 4.5 L 18.5625 5.78125 L 19.109375 6.34375 L 19.90625 6.84375 L 20.375 7.65625 L 20.25 8.578125 L 17.78125 11.859375 L 16.90625 12.28125 L 15.984375 12.0625 Z M 11.28125 8.625 "/></g></g></g><g fill="#528fc1" fill-opacity="1"><g transform="translate(270.12775, 94.859795)"><g><path d="M 16.296875 17.703125 L 16.3125 16.90625 L 16.5 15.3125 L 17.109375 6.4375 L 16.984375 5.609375 L 17.09375 4.8125 L 17.296875 0.796875 L 17.46875 -0.046875 L 17.265625 -0.59375 L 16.578125 -0.359375 L 15.890625 0.140625 L 8.078125 6.859375 L 6.859375 7.390625 L 6.015625 7.046875 L 5.421875 6.421875 L 4.46875 5.140625 L 3.828125 4.515625 L 2.78125 3.203125 L 2.4375 2.375 L 2.78125 1.578125 L 5.3125 -0.71875 L 5.953125 -1.171875 L 10.9375 -5.625 L 11.5625 -5.984375 L 12.75 -7.140625 L 13.3125 -7.578125 L 22.640625 -15.6875 L 23.46875 -15.90625 L 24.390625 -15.46875 L 24.96875 -14.359375 L 25.21875 -13.34375 L 25.25 -12.546875 L 24.40625 -1.15625 L 24.484375 0.28125 L 24.1875 4.375 L 24.375 5.015625 L 25.046875 4.75 L 30.609375 0.015625 L 31.234375 -0.625 L 32.609375 -1.65625 L 33.03125 -2.1875 L 33.71875 -2.703125 L 34.625 -2.921875 L 35.484375 -2.625 L 38.84375 1.15625 L 39.046875 2.0625 L 38.6875 2.90625 L 34.484375 6.71875 L 33.671875 7.265625 L 30.625 9.921875 L 30.171875 10.46875 L 18.890625 20.171875 L 18.015625 20.40625 L 17.203125 19.90625 L 16.546875 18.96875 Z M 16.296875 17.703125 "/></g></g></g><g fill="#528fc1" fill-opacity="1"><g transform="translate(289.777764, 117.244891)"><g><path d="M 6.21875 12.78125 L 5.90625 12.046875 L 5.703125 11.34375 L 5.59375 10.46875 L 5.40625 9.75 L 5.234375 7.765625 L 5.28125 5.765625 L 5.84375 3.421875 L 6.65625 1.09375 L 9.015625 -2.078125 L 10.8125 -3.65625 L 13.359375 -5.234375 L 16.65625 -6.484375 L 18.328125 -6.890625 L 20.84375 -7.046875 L 22.25 -6.890625 L 23.984375 -6.546875 L 26.203125 -5.703125 L 27.53125 -5.078125 L 30.203125 -3.046875 L 32.6875 0.109375 L 33.8125 2.375 L 34.078125 3.15625 L 34.40625 3.875 L 35.046875 7.9375 L 34.75 11.203125 L 34.234375 12.765625 L 33.734375 13.53125 L 33.390625 14.34375 L 32.984375 14.96875 L 32.609375 15.6875 L 31.953125 16.28125 L 31.4375 16.875 L 30.734375 17.515625 L 29.890625 17.625 L 29.296875 17.15625 L 28.609375 16.125 L 28.203125 15.046875 L 27.78125 14.34375 L 27.4375 13.5625 L 27.03125 12.953125 L 26.984375 11.921875 L 27.3125 10.875 L 27.65625 10.203125 L 28.1875 8.59375 L 28.3125 7.890625 L 28.21875 7.09375 L 27.96875 5.8125 L 27.25 4.203125 L 25.65625 1.953125 L 24.609375 1.265625 L 23.46875 0.75 L 22 0.390625 L 21.125 0.375 L 19.5625 0.515625 L 17.96875 1.015625 L 15.75 2.15625 L 15.015625 2.6875 L 14.453125 3.1875 L 14.078125 3.703125 L 13.484375 4.3125 L 12.625 5.796875 L 12.21875 7.328125 L 12.234375 8.921875 L 12.4375 10.484375 L 12.875 11.578125 L 13.96875 13.453125 L 15.3125 14.359375 L 15.8125 14.796875 L 16.609375 15.109375 L 17.984375 15.453125 L 18.859375 15.453125 L 19.734375 15.75 L 20.609375 16.359375 L 20.9375 17.09375 L 21.359375 17.8125 L 21.625 18.59375 L 22.828125 20.53125 L 22.71875 21.5 L 22.1875 22.0625 L 18.9375 22.546875 L 17.234375 22.453125 L 15.71875 22.1875 L 14.1875 21.6875 L 11.984375 20.5625 L 11.390625 20.109375 L 10.75 19.46875 L 10.046875 19.015625 L 8.5 17.09375 L 7.015625 14.640625 Z M 6.21875 12.78125 "/></g></g></g><g fill="#528fc1" fill-opacity="1"><g transform="translate(303.308676, 144.701979)"><g><path d="M 3.640625 13.1875 L 3.609375 12.328125 L 3.0625 10.421875 L 2.546875 9.28125 L 2.265625 7.671875 L 1.953125 6.921875 L 1.5625 5.703125 L 1.390625 4.53125 L 1.09375 3.796875 L 0.890625 3.0625 L 1 2.171875 L 1.953125 1.46875 L 5.59375 0.546875 L 6.421875 0.78125 L 7.953125 3.140625 L 9.265625 3.234375 L 21.25 -0.375 L 22.203125 -1.03125 L 22.453125 -1.90625 L 22.234375 -2.6875 L 22.421875 -3.6875 L 23.078125 -4.34375 L 23.84375 -4.484375 L 26.703125 -5.4375 L 27.765625 -5.328125 L 28.390625 -4.65625 L 28.65625 -3.75 L 28.734375 -2.96875 L 29.671875 0.25 L 30.046875 0.984375 L 30.171875 1.71875 L 31.546875 6.453125 L 31.3125 7.28125 L 30.71875 7.96875 L 26.8125 9.046875 L 26.078125 8.84375 L 25.546875 8.109375 L 25.1875 7.359375 L 24.578125 6.609375 L 23.59375 6.578125 L 19.625 7.578125 L 16.828125 8.546875 L 15.9375 8.734375 L 11.640625 10 L 10.875 10.109375 L 10.09375 10.84375 L 10.0625 11.875 L 10.296875 12.6875 L 10.125 13.6875 L 9.5 14.375 L 5.609375 15.5 L 4.765625 15.3125 L 4.171875 14.703125 Z M 3.640625 13.1875 "/></g></g></g><g fill="#528fc1" fill-opacity="1"><g transform="translate(308.899189, 162.00339)"><g><path d="M 2.140625 23.953125 L 2.140625 23.125 L 2.453125 22.15625 L 3 21.265625 L 3.703125 20.96875 L 4.4375 20.515625 L 5.015625 19.703125 L 5.375 18.765625 L 5.1875 17.875 L 5.1875 17.140625 L 4.78125 13.15625 L 4.84375 12.421875 L 4.515625 10.71875 L 4.5625 9.953125 L 4.046875 9.125 L 3.1875 8.4375 L 1.796875 7.828125 L 0.984375 7.125 L 0.625 6.203125 L 0.3125 3.9375 L 0.34375 3.125 L 0.09375 1.546875 L 0.265625 0.71875 L 1.265625 0.421875 L 2.109375 0.59375 L 3.796875 1.25 L 4.5625 1.390625 L 5.171875 1.78125 L 6.84375 2.234375 L 8.21875 2.84375 L 9.0625 3.046875 L 9.6875 3.40625 L 10.609375 3.578125 L 19.6875 6.90625 L 20.453125 7.09375 L 21.25 7.453125 L 22.09375 7.578125 L 22.734375 7.96875 L 26.625 9.265625 L 27.234375 9.5625 L 28.078125 9.78125 L 28.78125 10.078125 L 29.546875 10.734375 L 30.125 12.015625 L 29.828125 13.390625 L 29.15625 14.125 L 27.8125 15.046875 L 27.109375 15.34375 L 26.421875 15.859375 L 25.625 16.1875 L 20.234375 19.390625 L 19.40625 19.75 L 18 20.75 L 17.359375 21.0625 L 16.78125 21.46875 L 15.90625 21.796875 L 15.171875 22.28125 L 14.59375 22.734375 L 11.0625 24.609375 L 9.65625 25.578125 L 8.203125 26.28125 L 6.1875 27.578125 L 4.75 28.3125 L 3.859375 28.6875 L 2.859375 28.65625 L 2.546875 27.53125 L 2.390625 26.28125 L 2.40625 25.515625 Z M 11.390625 13.828125 L 11.59375 15.4375 L 11.96875 16 L 12.71875 16.109375 L 17.015625 13.796875 L 17.296875 13.203125 L 16.875 12.78125 L 12.3125 11.28125 L 11.53125 11.390625 L 11.3125 12.0625 L 11.484375 13 Z M 11.390625 13.828125 "/></g></g></g><g fill="#528fc1" fill-opacity="1"><g transform="translate(311.449085, 190.766468)"><g><path d="M -1.71875 10.84375 L -1.234375 9.203125 L -0.46875 7.703125 L -0.125 6.9375 L 0.3125 6.21875 L 1.015625 5.71875 L 2.078125 4.421875 L 2.734375 3.96875 L 3.34375 3.46875 L 4.9375 2.890625 L 5.703125 2.734375 L 6.53125 2.65625 L 7.34375 2.65625 L 8.171875 3.078125 L 8.40625 3.859375 L 8.171875 6.984375 L 7.96875 7.734375 L 7.953125 8.46875 L 7.53125 9.234375 L 5.890625 10.40625 L 5.359375 11.03125 L 4.921875 11.671875 L 4.453125 13.734375 L 4.484375 14.453125 L 4.421875 15.71875 L 4.859375 17.171875 L 5.375 17.78125 L 6.359375 18.21875 L 7.40625 18.109375 L 7.953125 17.640625 L 8.828125 16.265625 L 10.328125 10.015625 L 11.015625 8.609375 L 12.84375 6.046875 L 14.890625 4.78125 L 16.40625 4.3125 L 18.0625 4.21875 L 19.3125 4.34375 L 21.28125 4.71875 L 23.421875 5.734375 L 25.140625 7.375 L 26.25 9.484375 L 26.875 10.953125 L 27.171875 12.5625 L 27.203125 13.296875 L 27.15625 14.125 L 27.265625 15.03125 L 26.796875 18.15625 L 26.28125 19.6875 L 25.21875 21.859375 L 23.015625 24.28125 L 21.703125 25.046875 L 19.453125 25.90625 L 18.6875 25.890625 L 17.890625 25.953125 L 17.25 25.5625 L 16.765625 24.703125 L 16.9375 23.984375 L 17.03125 23.1875 L 17.265625 22.09375 L 17.328125 20.171875 L 17.96875 19.359375 L 18.859375 18.84375 L 19.515625 18.234375 L 20.078125 17.5625 L 20.375 16.859375 L 20.71875 15.578125 L 20.828125 14.28125 L 20.765625 13.546875 L 20.46875 12.84375 L 20.09375 12.171875 L 19.640625 11.625 L 18.5625 11.28125 L 17.34375 11.3125 L 16.6875 11.828125 L 15.765625 13.21875 L 15.0625 15.328125 L 14.921875 16.515625 L 14.65625 17.3125 L 14.5 18.140625 L 14.28125 18.9375 L 12.921875 21.953125 L 12.390625 22.640625 L 11.984375 23.234375 L 11.234375 23.890625 L 9.90625 24.78125 L 9.1875 25.15625 L 6.765625 25.46875 L 5.453125 25.390625 L 3.46875 24.90625 L 2.796875 24.5625 L 2.09375 24.21875 L 1.28125 23.65625 L 0.75 23.203125 L -0.3125 21.875 L -1.625 18.921875 L -1.890625 18.109375 L -1.890625 17.359375 L -2.109375 16.515625 L -2.125 15.6875 L -2.21875 14.859375 L -2.21875 14.03125 Z M -1.71875 10.84375 "/></g></g></g><g fill="#528fc1" fill-opacity="1"><g transform="translate(307.656197, 216.574352)"><g/></g></g><g fill="#528fc1" fill-opacity="1"><g transform="translate(72.824161, 293.014859)"><g><path d="M 9.859375 9.46875 L 9.390625 8.765625 L 7.9375 7.40625 L 6.9375 6.6875 L 5.859375 5.453125 L 5.203125 4.953125 L 4.265625 4.125 L 3.5 3.1875 L 2.875 2.703125 L 2.328125 2.1875 L 1.96875 1.34375 L 2.421875 0.28125 L 5.09375 -2.375 L 5.921875 -2.609375 L 8.4375 -1.359375 L 9.625 -1.9375 L 18.09375 -11.15625 L 18.59375 -12.203125 L 18.34375 -13.09375 L 17.765625 -13.640625 L 17.40625 -14.59375 L 17.65625 -15.484375 L 18.25 -16.015625 L 20.21875 -18.28125 L 21.1875 -18.734375 L 22.0625 -18.46875 L 22.734375 -17.828125 L 23.21875 -17.203125 L 25.65625 -14.90625 L 26.359375 -14.46875 L 26.84375 -13.90625 L 30.4375 -10.53125 L 30.65625 -9.703125 L 30.5 -8.796875 L 27.6875 -5.875 L 26.9375 -5.6875 L 26.109375 -6.03125 L 25.4375 -6.5 L 24.515625 -6.859375 L 23.671875 -6.359375 L 20.734375 -3.46875 L 18.84375 -1.21875 L 18.171875 -0.609375 L 15.109375 2.671875 L 14.5 3.15625 L 14.203125 4.171875 L 14.703125 5.09375 L 15.328125 5.671875 L 15.6875 6.609375 L 15.5 7.5 L 12.734375 10.453125 L 11.90625 10.75 L 11.09375 10.53125 Z M 9.859375 9.46875 "/></g></g></g><g fill="#528fc1" fill-opacity="1"><g transform="translate(89.496738, 308.437647)"><g><path d="M 3.140625 0.703125 L 9.984375 -9.4375 L 10.578125 -10.15625 L 10.953125 -10.859375 L 11.421875 -11.453125 L 11.90625 -12.03125 L 12.375 -12.84375 L 12.84375 -13.40625 L 13.28125 -14.140625 L 13.609375 -14.765625 L 16.328125 -18.4375 L 16.921875 -19.515625 L 17.953125 -20.828125 L 18.578125 -21.296875 L 19.578125 -21.171875 L 20.484375 -20.484375 L 21.25 -20.078125 L 22.96875 -18.90625 L 23.515625 -18.40625 L 24.828125 -17.515625 L 25.9375 -16.890625 L 26.578125 -16.390625 L 27.640625 -15.765625 L 28.203125 -15.296875 L 29.5625 -14.453125 L 30.21875 -13.84375 L 32.28125 -12.515625 L 32.59375 -11.75 L 32.328125 -10.46875 L 31.375 -9.234375 L 30.28125 -7.46875 L 29.453125 -7.015625 L 28.546875 -7.140625 L 26.0625 -8.96875 L 25.28125 -9.375 L 24.640625 -9.859375 L 24 -10.25 L 23.09375 -10.984375 L 22.015625 -11.71875 L 21.078125 -11.703125 L 20.265625 -11.265625 L 19.296875 -9.703125 L 18.796875 -9.109375 L 18.15625 -8.15625 L 18.046875 -7.203125 L 18.53125 -6.46875 L 19.296875 -6 L 20.5 -4.9375 L 22.375 -3.859375 L 23.96875 -2.65625 L 24.5 -1.90625 L 24.375 -1 L 22.375 2.015625 L 21.328125 2.84375 L 20.390625 2.6875 L 18.953125 1.828125 L 18.328125 1.28125 L 17.59375 0.828125 L 16.96875 0.3125 L 16.1875 -0.015625 L 15.59375 -0.625 L 14.796875 -1.078125 L 13.921875 -1.234375 L 13.15625 -0.765625 L 10.75 2.828125 L 10.25 3.4375 L 9.625 4.59375 L 8.515625 5.328125 L 7.609375 5.140625 L 5.828125 4.125 L 3.53125 2.40625 L 3.03125 1.578125 Z M 3.140625 0.703125 "/></g></g></g><g fill="#528fc1" fill-opacity="1"><g transform="translate(111.797568, 323.379907)"><g><path d="M 4.96875 2.3125 L 4.296875 1.984375 L 3.296875 1.09375 L 3.203125 0.21875 L 6.28125 -6.6875 L 6.515625 -7.421875 L 10.796875 -17.078125 L 11.03125 -17.84375 L 11.8125 -19.25 L 13.78125 -23.796875 L 14.375 -24.25 L 15.34375 -24.328125 L 16.1875 -24.125 L 16.8125 -23.71875 L 17.625 -23.328125 L 20 -22.453125 L 20.703125 -22.015625 L 22.96875 -20.984375 L 23.828125 -20.734375 L 25.046875 -20.234375 L 26.15625 -19.71875 L 26.765625 -19.125 L 27.53125 -18.796875 L 28.046875 -18.25 L 29.34375 -17.15625 L 30.21875 -15.78125 L 31.265625 -13.59375 L 31.625 -11.96875 L 31.78125 -10.390625 L 31.625 -8.8125 L 31.359375 -7.953125 L 31.25 -7.234375 L 29.828125 -4.203125 L 29.328125 -3.703125 L 28.859375 -2.9375 L 27.59375 -1.765625 L 26.265625 -0.90625 L 25.546875 -0.546875 L 24.84375 -0.28125 L 24.078125 0.078125 L 23.296875 0.28125 L 19.125 0.15625 L 15.15625 -1.234375 L 14.4375 -1.734375 L 13.578125 -2.015625 L 12.53125 -1.984375 L 11.90625 -1.46875 L 11.5625 -0.59375 L 11.1875 0.09375 L 10.640625 1.515625 L 10.25 2.3125 L 9.96875 3.0625 L 9.28125 3.71875 L 8.375 3.671875 L 7.484375 3.375 L 6.828125 3.046875 Z M 16.171875 -8 L 17.078125 -7.6875 L 18.984375 -6.828125 L 20.203125 -6.453125 L 20.890625 -6.375 L 21.6875 -6.578125 L 22.421875 -6.953125 L 23.015625 -7.421875 L 23.59375 -7.96875 L 24.09375 -8.953125 L 24.5 -10.03125 L 24.6875 -10.75 L 24.625 -11.65625 L 24.359375 -12.34375 L 23.9375 -13.03125 L 23.328125 -13.6875 L 19.484375 -15.5 L 18.546875 -15.46875 L 17.859375 -14.9375 L 17.1875 -13.40625 L 16.78125 -12.640625 L 15.5625 -9.578125 L 15.609375 -8.78125 Z M 16.171875 -8 "/></g></g></g><g fill="#528fc1" fill-opacity="1"><g transform="translate(141.045136, 335.734503)"><g><path d="M 3.34375 -1.015625 L 4.578125 -6.90625 L 4.671875 -7.734375 L 5.390625 -10.953125 L 5.625 -11.703125 L 5.703125 -12.46875 L 5.875 -13.28125 L 6.03125 -14.15625 L 6.46875 -15.734375 L 6.5625 -16.546875 L 8.453125 -25.703125 L 9.15625 -26.71875 L 9.953125 -26.96875 L 12.359375 -26.671875 L 13.21875 -26.4375 L 14 -26.109375 L 14.796875 -25.953125 L 15.546875 -26 L 16.34375 -25.828125 L 17.09375 -25.5 L 19.5 -24.984375 L 20.6875 -24.84375 L 21.953125 -24.53125 L 24.109375 -23.53125 L 25.515625 -22.6875 L 26.765625 -21.65625 L 28.53125 -18.765625 L 28.828125 -18.046875 L 29.015625 -17.296875 L 29.25 -14.875 L 29.21875 -14.046875 L 28.765625 -11.515625 L 27.75 -9.3125 L 25.609375 -6.84375 L 24.953125 -6.46875 L 24.265625 -6 L 23.734375 -5.1875 L 23.5625 -4.21875 L 23.921875 -3.53125 L 24.75 -1.171875 L 24.96875 -0.375 L 25.90625 1.953125 L 26.046875 2.765625 L 26.421875 3.421875 L 26.671875 4.390625 L 26.25 5.21875 L 25.40625 5.421875 L 24.078125 5.1875 L 23.328125 4.953125 L 20.1875 4.328125 L 18.90625 3.671875 L 18.171875 2.78125 L 17.890625 2 L 17.71875 1.125 L 17.421875 0.4375 L 16.96875 -1.15625 L 16.375 -2.515625 L 16.1875 -3.296875 L 15.890625 -4.21875 L 15.234375 -5.046875 L 12.984375 -5.875 L 12.140625 -5.578125 L 11.609375 -4.859375 L 11 -2.328125 L 10.9375 -1.453125 L 10.71875 -0.75 L 10.421875 0.609375 L 9.8125 1.6875 L 8.453125 1.828125 L 7.25 1.578125 L 6.59375 1.515625 L 5.359375 1.125 L 4.53125 1.078125 L 3.46875 0.328125 Z M 14.3125 -12.265625 L 15.234375 -12.140625 L 17.109375 -11.671875 L 17.890625 -11.546875 L 19.109375 -11.578125 L 19.890625 -11.75 L 20.40625 -12.015625 L 20.96875 -12.515625 L 21.5 -13.234375 L 21.875 -14.421875 L 21.9375 -15.484375 L 21.8125 -16.171875 L 21.09375 -17.609375 L 20.375 -17.96875 L 19.34375 -18.265625 L 18.28125 -18.75 L 16.65625 -18.9375 L 15.859375 -19.125 L 14.953125 -18.984375 L 14.4375 -18.3125 L 14 -16.65625 L 13.9375 -15.96875 L 13.4375 -13.5625 L 13.609375 -12.84375 Z M 14.3125 -12.265625 "/></g></g></g><g fill="#528fc1" fill-opacity="1"><g transform="translate(173.185046, 341.597306)"><g><path d="M 1.921875 -12.421875 L 2.046875 -15.890625 L 2.4375 -16.65625 L 3.3125 -17.109375 L 4.09375 -17.15625 L 4.90625 -17.046875 L 9.640625 -16.953125 L 10.40625 -16.765625 L 14.515625 -16.65625 L 15.328125 -16.1875 L 15.5625 -15.265625 L 15.53125 -11.96875 L 15.015625 -11.140625 L 13.765625 -10.78125 L 11.375 -10.828125 L 10.5625 -10.984375 L 7.796875 -11.078125 L 7.09375 -10.984375 L 5.46875 -11.15625 L 4.6875 -11.015625 L 3.828125 -11.140625 L 2.96875 -11.125 L 2.25 -11.640625 Z M 1.921875 -12.421875 "/></g></g></g><g fill="#528fc1" fill-opacity="1"><g transform="translate(194.036565, 342.265917)"><g><path d="M 10.578125 -1.15625 L 9.328125 -1.03125 L 8.09375 -1.3125 L 7.484375 -2.140625 L 7.46875 -2.921875 L 7.234375 -5.28125 L 7.046875 -6.125 L 6.71875 -9.390625 L 6.703125 -10.234375 L 5.875 -16.25 L 5.828125 -17.40625 L 5.6875 -18.203125 L 5.640625 -19.09375 L 5.40625 -20.21875 L 5.34375 -21.53125 L 4.796875 -22.28125 L 3.96875 -22.609375 L 0.125 -22.25 L -0.6875 -22.0625 L -1.453125 -22.359375 L -1.890625 -23.0625 L -2.125 -24.3125 L -2.28125 -26.359375 L -2.421875 -27.140625 L -2.046875 -28.140625 L -1.3125 -28.640625 L 1.546875 -28.8125 L 2.78125 -29.078125 L 5.1875 -29.234375 L 5.90625 -29.484375 L 6.796875 -29.5 L 7.625 -29.71875 L 8.421875 -29.765625 L 9.25 -29.703125 L 12.5 -30.25 L 13.28125 -30.25 L 14.109375 -30.484375 L 14.890625 -30.484375 L 17.40625 -30.78125 L 18.25 -30.34375 L 18.796875 -29.578125 L 19.1875 -25.71875 L 18.8125 -24.765625 L 18.15625 -24.25 L 17.421875 -24.21875 L 16.59375 -23.984375 L 15.0625 -24 L 13.5 -23.75 L 12.78125 -23.1875 L 12.609375 -21.90625 L 12.90625 -18.375 L 13.109375 -17.53125 L 13.796875 -11.015625 L 14.03125 -10.125 L 14.03125 -9.390625 L 14.25 -7.765625 L 14.265625 -6.921875 L 14.578125 -5.390625 L 14.703125 -3.265625 L 14.421875 -2.09375 L 13.28125 -1.546875 Z M 10.578125 -1.15625 "/></g></g></g><g fill="#528fc1" fill-opacity="1"><g transform="translate(221.270171, 338.853734)"><g><path d="M 2.546875 -2.125 L 2.234375 -2.84375 L -0.359375 -11.390625 L -0.84375 -12.515625 L -3.015625 -20 L -3.640625 -21.609375 L -4.28125 -23.9375 L -4.546875 -24.609375 L -4.75 -25.453125 L -5.046875 -26.125 L -5.3125 -26.96875 L -5.1875 -27.921875 L -4.4375 -28.578125 L 0.28125 -29.96875 L 0.9375 -30.34375 L 2.515625 -30.625 L 3.171875 -31 L 7.21875 -32.140625 L 8.84375 -32.265625 L 9.578125 -32.25 L 10.4375 -32.109375 L 11.21875 -31.9375 L 11.890625 -31.6875 L 12.59375 -31.453125 L 13.359375 -31.109375 L 15.203125 -29.71875 L 15.71875 -28.984375 L 16.46875 -27.671875 L 16.921875 -26.5 L 17.3125 -25.15625 L 17.28125 -23.609375 L 17.015625 -21.859375 L 16.96875 -21.046875 L 17.640625 -20.265625 L 18.4375 -19.921875 L 19.125 -19.484375 L 20.328125 -18.109375 L 21.1875 -16.84375 L 22.109375 -13.671875 L 22.015625 -12.828125 L 22.015625 -12.015625 L 21.859375 -11.109375 L 21.28125 -9.34375 L 20.09375 -7.609375 L 19.515625 -7.03125 L 17.515625 -5.734375 L 16.859375 -5.40625 L 12.90625 -3.953125 L 12.09375 -3.828125 L 6.46875 -1.96875 L 5.28125 -1.734375 L 4.03125 -1.203125 L 3.125 -1.453125 Z M 5.703125 -20.03125 L 8.65625 -21.09375 L 9.671875 -21.84375 L 10.109375 -22.484375 L 10.015625 -23.703125 L 9.546875 -24.828125 L 9.046875 -25.359375 L 8.328125 -25.46875 L 4.234375 -24.484375 L 3.625 -23.796875 L 3.53125 -22.515625 L 3.96875 -21.1875 L 4.734375 -20.25 Z M 8.828125 -9.609375 L 11.859375 -10.46875 L 13.9375 -11.34375 L 14.453125 -11.953125 L 14.71875 -12.65625 L 14.5625 -13.84375 L 14.015625 -14.734375 L 13.40625 -15.3125 L 12.671875 -15.375 L 8.90625 -14.578125 L 8.125 -14.234375 L 7.328125 -14.125 L 6.828125 -13.421875 L 6.671875 -12.65625 L 7.296875 -10.28125 L 8.046875 -9.65625 Z M 8.828125 -9.609375 "/></g></g></g><g clip-path="url(#af2aa45afa)"><g clip-path="url(#e7f4f01e15)"><g clip-path="url(#db9044af28)"><path fill="#528fc1" d="M 318.917969 231.191406 C 319.480469 231.472656 319.832031 232.179688 319.828125 232.882812 C 311.636719 285.824219 270.203125 308.617188 269.707031 308.898438 C 269.003906 309.246094 268.089844 308.964844 267.601562 308.1875 C 267.109375 307.414062 267.394531 306.5 268.308594 306.082031 C 268.59375 305.871094 308.757812 283.84375 316.59375 232.308594 C 316.667969 231.464844 317.511719 230.835938 318.355469 230.90625 C 318.496094 230.976562 318.636719 231.050781 318.917969 231.191406 Z M 318.917969 231.191406 " fill-opacity="1" fill-rule="nonzero"/></g></g></g><g clip-path="url(#b2d97d5001)"><path fill="#528fc1" d="M 184.195312 261.601562 L 188.84375 261.601562 L 188.84375 267.757812 L 184.195312 267.757812 Z M 184.195312 261.601562 " fill-opacity="1" fill-rule="nonzero"/></g><g clip-path="url(#782653ffb7)"><g clip-path="url(#b70518b24b)"><g clip-path="url(#9e68f54f71)"><path fill="#528fc1" d="M 134.335938 112.917969 C 126.03125 119.011719 120.550781 127.355469 118.828125 136.660156 C 117.535156 143.695312 118.191406 150.277344 121.90625 166.117188 C 122.148438 167.167969 121.421875 167.046875 115.828125 164.9375 C 112.355469 163.644531 109.582031 162.425781 109.613281 162.171875 C 109.71875 161.933594 111.613281 160.558594 113.871094 159.097656 C 118.011719 156.445312 118.011719 156.445312 117.691406 154.839844 C 117.554688 153.96875 117.394531 153.167969 117.34375 153.078125 C 117.0625 152.585938 112.519531 155.046875 109.382812 157.367188 C 104.996094 160.636719 101.414062 164.574219 99.019531 168.730469 C 96.8125 172.480469 93.855469 183.378906 93.789062 187.753906 C 93.527344 202.765625 99.058594 214.898438 109.253906 222.058594 C 111.992188 223.949219 116.410156 226.492188 118.300781 227.199219 C 118.441406 227.238281 118.699219 226.4375 118.898438 225.429688 L 119.191406 223.542969 L 116.257812 221.9375 C 113.179688 220.183594 108.6875 216.675781 108.84375 216.109375 C 108.902344 215.898438 110.691406 215.179688 112.851562 214.484375 C 119.652344 212.222656 122 211.125 121.367188 210.535156 C 121 210.207031 118.53125 210.777344 114.125 212.332031 L 107.46875 214.632812 L 106.09375 213.15625 C 105.355469 212.386719 104.757812 211.539062 104.859375 211.300781 C 104.996094 210.808594 113.609375 208.289062 114.632812 208.417969 C 114.984375 208.515625 117.019531 208.011719 119.117188 207.414062 C 121.210938 206.816406 123.199219 206.339844 123.484375 206.417969 C 123.808594 206.46875 123.101562 211.390625 121.960938 217.328125 C 120.820312 223.269531 120 228.3125 120.128906 228.535156 C 120.257812 228.761719 125.007812 230.636719 130.695312 232.691406 C 136.382812 234.75 140.976562 236.65625 140.851562 236.964844 C 140.773438 237.246094 139.347656 238.710938 137.761719 240.207031 C 136.175781 241.703125 134.707031 243.191406 134.609375 243.546875 C 134.195312 244.492188 127.628906 250.605469 127.132812 250.472656 C 126.878906 250.4375 126.457031 249.488281 126.171875 248.464844 L 125.605469 246.527344 L 130.984375 241.980469 C 134.574219 238.988281 136.328125 237.160156 136.230469 236.679688 C 136.046875 235.832031 133.902344 237.289062 128.484375 241.976562 C 126.785156 243.476562 125.25 244.648438 125.039062 244.589844 C 124.472656 244.433594 123.753906 238.78125 123.820312 235.234375 L 123.941406 231.894531 L 122.167969 231.179688 C 121.203125 230.839844 120.382812 230.652344 120.34375 230.792969 C 119.984375 232.777344 119.910156 237.875 120.136719 241.195312 C 121.078125 253.617188 128.675781 264.574219 141.710938 272.023438 C 145.503906 274.207031 156.382812 277.234375 160.734375 277.257812 C 165.527344 277.324219 170.75 276.257812 175.796875 274.160156 C 179.394531 272.648438 183.835938 270.003906 183.554688 269.507812 C 183.503906 269.417969 182.898438 268.875 182.21875 268.308594 C 181.003906 267.214844 181.003906 267.214844 176.609375 269.417969 C 174.195312 270.613281 172.046875 271.535156 171.789062 271.503906 C 171.554688 271.402344 171.925781 268.394531 172.585938 264.75 C 173.636719 258.863281 173.902344 258.175781 174.679688 258.921875 C 186.394531 270.214844 191.71875 274.140625 198.421875 276.628906 C 210.605469 281.117188 224.859375 278.480469 237.335938 269.480469 C 246.785156 262.679688 252.128906 254.828125 253.945312 245.054688 C 255.234375 238.023438 254.582031 231.4375 250.863281 215.597656 C 250.625 214.546875 251.347656 214.671875 256.945312 216.777344 C 260.417969 218.074219 263.1875 219.289062 263.15625 219.546875 C 263.054688 219.785156 261.160156 221.15625 258.902344 222.621094 C 254.761719 225.273438 254.761719 225.273438 255.078125 226.875 C 255.21875 227.746094 255.375 228.546875 255.425781 228.636719 C 255.707031 229.132812 260.25 226.667969 263.390625 224.347656 C 267.773438 221.082031 271.359375 217.140625 273.753906 212.984375 C 275.957031 209.234375 278.917969 198.339844 278.984375 193.960938 C 279.246094 178.949219 273.714844 166.820312 263.519531 159.65625 C 260.777344 157.765625 256.363281 155.226562 254.472656 154.515625 C 254.332031 154.480469 254.074219 155.277344 253.871094 156.285156 L 253.582031 158.175781 L 256.511719 159.777344 C 259.589844 161.535156 264.082031 165.042969 263.929688 165.605469 C 263.871094 165.816406 262.082031 166.539062 259.917969 167.230469 C 253.121094 169.492188 250.773438 170.589844 251.40625 171.183594 C 251.769531 171.507812 254.238281 170.9375 258.644531 169.382812 L 265.304688 167.082031 L 266.679688 168.558594 C 267.414062 169.332031 268.015625 170.179688 267.910156 170.414062 C 267.777344 170.910156 259.164062 173.429688 258.136719 173.296875 C 257.785156 173.203125 255.753906 173.703125 253.65625 174.300781 C 251.558594 174.898438 249.570312 175.375 249.289062 175.300781 C 248.960938 175.246094 249.671875 170.324219 250.8125 164.386719 C 251.953125 158.449219 252.769531 153.40625 252.640625 153.179688 C 252.515625 152.957031 247.761719 151.082031 242.074219 149.023438 C 236.386719 146.96875 231.796875 145.0625 231.917969 144.753906 C 231.996094 144.472656 233.421875 143.007812 235.007812 141.511719 C 236.59375 140.015625 238.066406 138.523438 238.160156 138.171875 C 238.574219 137.222656 245.144531 131.109375 245.636719 131.246094 C 245.894531 131.277344 246.316406 132.226562 246.601562 133.253906 L 247.167969 135.191406 L 241.785156 139.734375 C 238.199219 142.726562 236.445312 144.558594 236.539062 145.039062 C 236.722656 145.886719 238.867188 144.429688 244.285156 139.742188 C 245.988281 138.238281 247.523438 137.070312 247.734375 137.128906 C 248.296875 137.28125 249.015625 142.9375 248.949219 146.480469 L 248.828125 149.820312 L 250.601562 150.535156 C 251.570312 150.878906 252.390625 151.066406 252.429688 150.921875 C 252.785156 148.9375 252.859375 143.84375 252.636719 140.523438 C 251.695312 128.097656 244.097656 117.140625 231.0625 109.691406 C 227.265625 107.511719 216.386719 104.484375 212.035156 104.460938 C 207.242188 104.394531 202.023438 105.457031 196.972656 107.558594 C 193.375 109.070312 188.933594 111.714844 189.214844 112.207031 C 189.265625 112.296875 189.875 112.84375 190.550781 113.410156 C 191.769531 114.5 191.769531 114.5 196.164062 112.296875 C 198.574219 111.105469 200.726562 110.179688 200.980469 110.210938 C 201.21875 110.316406 200.847656 113.320312 200.183594 116.964844 C 199.132812 122.855469 198.871094 123.539062 198.089844 122.792969 C 190.695312 115.644531 185.84375 111.507812 182.441406 109.28125 C 170.976562 101.773438 158.640625 100.882812 145.316406 106.617188 C 140.453125 108.726562 138.792969 109.671875 134.335938 112.917969 Z M 147.808594 125.113281 L 154.324219 136.566406 L 152.976562 137.332031 C 151.3125 138.277344 151.484375 138.476562 144.855469 128.28125 C 141.980469 123.851562 139.058594 119.449219 138.335938 118.492188 L 137.039062 116.734375 L 139.09375 115.328125 C 140.210938 114.574219 141.191406 113.894531 141.257812 113.800781 C 141.277344 113.730469 144.234375 118.824219 147.808594 125.113281 Z M 148.757812 112.566406 C 149.210938 113.675781 151.503906 118.433594 153.839844 123.171875 C 159.210938 134.085938 159.128906 133.835938 157.46875 134.777344 L 156.121094 135.546875 L 149.65625 124.179688 L 143.21875 112.859375 L 145.542969 111.71875 L 147.933594 110.597656 Z M 137.859375 120.367188 C 138.714844 121.664062 139.75 122.859375 140.128906 123 C 140.601562 123.207031 140.730469 123.433594 140.539062 123.71875 C 140.320312 123.960938 141.839844 126.425781 144.542969 130.238281 C 149.496094 137.171875 150.472656 138.996094 149.5625 139.691406 C 148.1875 140.828125 147.265625 140.046875 142.09375 133.355469 C 139.210938 129.644531 135.914062 125.519531 134.800781 124.1875 C 133.730469 122.832031 132.691406 121.523438 132.511719 121.210938 C 132.152344 120.582031 133.074219 119.582031 134.921875 118.652344 C 136.273438 118 136.371094 118.0625 137.859375 120.367188 Z M 153.683594 108.574219 C 153.894531 108.632812 154.601562 110.191406 155.304688 112.054688 C 155.933594 113.894531 157.941406 118.992188 159.65625 123.367188 C 162.71875 131.257812 162.921875 132.453125 161.238281 133.050781 C 160.175781 133.476562 159.109375 131.707031 155.683594 123.90625 C 153.632812 119.363281 152.421875 117.019531 152.003906 117.019531 C 151.589844 117.019531 151.503906 116.769531 151.71875 116.410156 C 151.886719 116.078125 151.421875 114.738281 150.679688 113.433594 C 149.9375 112.132812 149.382812 110.84375 149.507812 110.535156 C 149.617188 109.996094 153.046875 108.402344 153.683594 108.574219 Z M 133.804688 125.050781 C 135.601562 127.476562 144.542969 138.5 145.875 140.003906 C 146.609375 140.773438 146.507812 141.011719 145.160156 141.777344 L 143.632812 142.648438 L 141.046875 139.777344 C 139.621094 138.210938 137.523438 135.777344 136.363281 134.355469 C 134.449219 131.9375 130.339844 127.320312 128.925781 125.984375 C 128.484375 125.519531 128.65625 124.886719 129.589844 123.703125 C 131.152344 121.746094 131.363281 121.804688 133.804688 125.050781 Z M 159.601562 107.589844 C 159.671875 107.609375 160.160156 108.992188 160.644531 110.679688 C 161.128906 112.367188 162.207031 115.617188 163.046875 117.933594 C 163.886719 120.25 165.074219 123.796875 165.664062 125.777344 L 166.8125 129.464844 L 165.285156 130.335938 C 163.9375 131.101562 163.679688 131.066406 163.394531 130.042969 C 162.972656 128.675781 157.914062 114.96875 156.714844 112.023438 C 155.15625 108.035156 155.113281 108.058594 157.433594 107.75 C 158.5625 107.644531 159.53125 107.570312 159.601562 107.589844 Z M 129.476562 128.523438 C 130.4375 129.582031 131.746094 131.15625 132.445312 132.066406 C 133.140625 132.980469 135.652344 135.828125 138.058594 138.386719 C 140.464844 140.941406 142.386719 143.175781 142.347656 143.316406 C 142.308594 143.457031 141.539062 143.777344 140.648438 143.988281 C 139.1875 144.34375 138.714844 144.136719 136.46875 141.964844 C 135.054688 140.628906 132.273438 137.929688 130.179688 136.03125 C 125.546875 131.648438 125.164062 130.976562 126.074219 128.914062 C 127.105469 126.542969 127.609375 126.492188 129.476562 128.523438 Z M 163.941406 107.378906 C 166.222656 107.628906 166.578125 108.257812 168 114.523438 C 168.566406 117.292969 169.460938 121.0625 169.886719 122.960938 C 170.605469 126 170.539062 126.511719 169.488281 127.585938 C 168.851562 128.246094 168.183594 128.746094 168.042969 128.707031 C 167.902344 128.667969 166.964844 125.871094 166 122.496094 C 165.03125 119.125 163.867188 115.507812 163.4375 114.441406 C 162.082031 111.113281 161.203125 107.6875 161.652344 107.433594 C 161.875 107.304688 162.914062 107.25 163.941406 107.378906 Z M 131.03125 138.578125 C 134.640625 141.992188 137.640625 144.863281 137.691406 144.953125 C 137.769531 145.089844 137.023438 145.453125 136.09375 145.804688 C 134.367188 146.429688 134.273438 146.363281 128.617188 141.851562 L 122.863281 137.277344 L 123.542969 134.8125 C 123.910156 133.472656 124.289062 132.363281 124.359375 132.382812 C 124.429688 132.402344 127.449219 135.203125 131.03125 138.578125 Z M 173.851562 116.128906 C 174.789062 123.324219 174.796875 123.4375 173.378906 124.601562 C 172.601562 125.222656 171.90625 125.675781 171.832031 125.542969 C 171.78125 125.453125 170.820312 121.359375 169.746094 116.441406 L 167.765625 107.523438 L 170.277344 108.175781 L 172.859375 108.847656 Z M 123.230469 139.386719 C 123.359375 139.613281 124.566406 140.589844 125.894531 141.558594 C 128.707031 143.582031 132.9375 146.945312 132.757812 147.046875 C 132.714844 147.074219 130.917969 147.675781 128.78125 148.417969 C 126.644531 149.15625 124.625 149.886719 124.3125 150.066406 C 123.546875 150.5 124.136719 153.734375 124.914062 153.53125 C 126.214844 153.207031 140.300781 148.703125 143.617188 147.53125 C 145.796875 146.765625 151 144.105469 157.648438 140.324219 C 164.296875 136.542969 169.246094 133.433594 171.015625 131.949219 C 173.71875 129.699219 184.789062 119.894531 185.734375 118.941406 C 186.304688 118.378906 183.828125 116.222656 183.066406 116.65625 C 182.75 116.835938 181.089844 118.195312 179.363281 119.652344 C 177.632812 121.113281 176.195312 122.34375 176.152344 122.371094 C 175.972656 122.472656 175.246094 117.121094 174.945312 113.664062 C 174.789062 112.03125 174.566406 110.492188 174.4375 110.265625 C 173.851562 109.234375 175.160156 109.441406 177.609375 110.722656 C 182.46875 113.308594 187.1875 117.105469 193.699219 123.746094 C 202.535156 132.808594 205.644531 135.558594 211.546875 139.457031 C 218.890625 144.316406 226.367188 147.851562 234.796875 150.546875 C 238.84375 151.8125 243.699219 153.449219 245.539062 154.070312 L 248.914062 155.300781 L 248.21875 158.785156 C 247.839844 160.726562 246.738281 165.691406 245.78125 169.863281 C 243.789062 178.484375 243.003906 186.71875 243.425781 195.515625 C 243.757812 202.578125 244.53125 206.65625 247.800781 218.886719 C 250.179688 227.878906 251.03125 233.871094 250.769531 239.371094 C 250.617188 242.132812 250.128906 243.363281 249.539062 242.328125 C 249.414062 242.105469 248.203125 241.128906 246.878906 240.15625 C 244.0625 238.132812 239.832031 234.773438 240.011719 234.667969 C 240.058594 234.644531 241.851562 234.039062 243.988281 233.300781 C 246.125 232.5625 248.144531 231.828125 248.460938 231.648438 C 249.222656 231.214844 248.632812 227.984375 247.859375 228.1875 C 246.554688 228.511719 232.472656 233.011719 229.15625 234.1875 C 224.5 235.824219 205.542969 246.601562 201.753906 249.769531 C 199.050781 252.019531 187.980469 261.820312 187.035156 262.773438 C 186.464844 263.335938 188.941406 265.496094 189.707031 265.0625 C 190.019531 264.882812 191.683594 263.519531 193.410156 262.0625 C 195.136719 260.605469 196.574219 259.371094 196.621094 259.347656 C 196.800781 259.242188 197.527344 264.597656 197.824219 268.050781 C 197.984375 269.6875 198.203125 271.226562 198.332031 271.449219 C 198.917969 272.484375 197.613281 272.277344 195.160156 270.996094 C 190.300781 268.410156 185.585938 264.609375 179.074219 257.96875 C 170.234375 248.90625 167.125 246.15625 161.222656 242.261719 C 153.882812 237.402344 146.402344 233.867188 137.972656 231.167969 C 133.902344 229.859375 129.070312 228.265625 127.207031 227.601562 L 123.859375 226.417969 L 124.523438 222.886719 C 124.933594 220.988281 126.007812 215.980469 126.988281 211.855469 C 128.980469 203.230469 129.769531 194.996094 129.34375 186.203125 C 129.011719 179.136719 128.238281 175.058594 124.96875 162.828125 C 122.59375 153.839844 121.738281 147.84375 122 142.34375 C 122.152344 139.582031 122.644531 138.355469 123.230469 139.386719 Z M 110.808594 165 C 112.410156 165.515625 115.664062 166.636719 118.046875 167.480469 L 122.433594 169.027344 L 122.914062 171.132812 L 123.398438 173.234375 L 120.285156 172.152344 C 118.585938 171.570312 114.515625 170.261719 111.175781 169.308594 C 107.859375 168.28125 105.175781 167.429688 105.257812 167.261719 C 105.527344 166.691406 107.066406 164.691406 107.46875 164.460938 C 107.714844 164.261719 109.230469 164.527344 110.808594 165 Z M 205.765625 109.214844 C 206.617188 109.148438 207.445312 109.035156 207.585938 109.074219 C 207.769531 109.085938 207.132812 111.828125 206.316406 115.203125 C 205.429688 118.5625 204.472656 122.730469 204.105469 124.488281 L 203.445312 127.714844 L 201.882812 126.226562 L 200.324219 124.734375 L 201.234375 120.171875 C 202.433594 114.023438 203.480469 109.800781 203.886719 109.570312 C 204.066406 109.46875 204.914062 109.285156 205.765625 109.214844 Z M 109.996094 170.574219 C 112.953125 171.386719 117.308594 172.773438 119.621094 173.601562 C 123.417969 174.945312 123.875 175.222656 123.769531 176.292969 C 123.621094 177.390625 123.460938 177.421875 121 176.859375 C 117.347656 176.082031 115.195312 175.640625 108.671875 174.417969 C 105.539062 173.820312 102.734375 173.277344 102.40625 173.222656 C 101.84375 173.070312 103.332031 169.726562 104.183594 169.242188 C 104.410156 169.113281 107.054688 169.6875 109.996094 170.574219 Z M 212.304688 109.003906 C 213.4375 109.015625 214.261719 109.316406 214.167969 109.667969 C 214.042969 109.976562 213.078125 112.667969 211.988281 115.664062 C 209.707031 121.894531 208.984375 123.972656 207.785156 127.507812 C 207.011719 129.910156 206.902344 130.03125 205.882812 129.597656 C 204.910156 129.140625 204.902344 128.609375 205.6875 124.65625 C 206.929688 118.480469 209.339844 109.441406 209.835938 109.160156 C 210.058594 109.03125 211.144531 108.953125 212.304688 109.003906 Z M 107.234375 175.652344 C 110.15625 176.1875 113.21875 176.765625 113.992188 176.980469 C 114.792969 177.238281 117.390625 177.722656 119.816406 178.125 C 123.878906 178.789062 124.1875 178.910156 124.28125 180.222656 C 124.34375 180.960938 124.125 181.621094 123.734375 181.664062 C 123.136719 181.765625 101.765625 179.414062 100.382812 179.070312 C 99.816406 178.917969 100.742188 175.417969 101.480469 174.941406 C 101.660156 174.835938 104.269531 175.136719 107.234375 175.652344 Z M 218.484375 109.949219 C 219.5625 110.167969 220.351562 110.613281 220.226562 110.917969 C 219.8125 112.285156 210.910156 131.851562 210.515625 132.3125 C 210.28125 132.625 209.601562 132.476562 209 132.046875 C 207.917969 131.296875 207.96875 130.96875 209.476562 127.136719 C 210.371094 124.847656 211.238281 122.394531 211.449219 121.617188 C 212.269531 118.773438 215.644531 110.078125 216.09375 109.820312 C 216.363281 109.667969 217.410156 109.726562 218.484375 109.949219 Z M 107.425781 181.425781 C 111.707031 181.84375 115.339844 182.277344 115.578125 182.378906 C 115.789062 182.4375 117.699219 182.660156 119.8125 182.824219 C 121.929688 182.988281 123.863281 183.253906 124.195312 183.421875 C 124.625 183.652344 124.9375 185.558594 124.761719 186.609375 C 124.722656 186.75 122.75 186.625 120.398438 186.355469 C 118.042969 186.089844 112.195312 185.730469 107.4375 185.523438 C 99.925781 185.273438 98.804688 185.082031 98.898438 184.195312 C 99.125 182.402344 99.4375 180.859375 99.570312 180.78125 C 99.660156 180.730469 103.21875 181.027344 107.425781 181.425781 Z M 224.511719 111.871094 L 226.339844 112.675781 L 222.207031 120.253906 C 219.910156 124.476562 217.226562 129.6875 216.253906 131.84375 C 215.28125 134.003906 214.382812 135.761719 214.242188 135.722656 C 213.246094 135.335938 211.769531 134.097656 211.789062 133.609375 C 211.816406 133.238281 212.578125 131.4375 213.472656 129.5625 C 214.4375 127.707031 215.410156 125.546875 215.648438 124.816406 C 216.671875 121.917969 221.804688 111.390625 222.214844 111.277344 C 222.464844 111.191406 223.519531 111.484375 224.511719 111.871094 Z M 104.460938 186.976562 C 107.3125 187.078125 113.042969 187.328125 117.175781 187.59375 C 123.726562 188.03125 124.707031 188.183594 124.734375 189.179688 C 124.765625 189.753906 124.566406 190.34375 124.34375 190.472656 C 123.894531 190.726562 101.324219 191.496094 99.671875 191.304688 C 98.53125 191.183594 98.480469 191.09375 98.496094 189.238281 C 98.511719 188.21875 98.667969 187.242188 98.890625 187.113281 C 99.070312 187.011719 101.589844 186.945312 104.460938 186.976562 Z M 229.929688 114.496094 C 231.53125 115.429688 231.582031 115.519531 231.105469 116.5625 C 230.421875 118.082031 218.222656 137.085938 217.773438 137.339844 C 217.550781 137.46875 216.941406 137.339844 216.460938 137.015625 C 215.695312 136.503906 215.972656 135.632812 218.519531 130.496094 C 222.226562 123.214844 227.296875 114.152344 227.855469 113.773438 C 228.125 113.621094 229.046875 113.988281 229.929688 114.496094 Z M 116.949219 192.417969 C 124.453125 192.132812 124.664062 192.191406 124.785156 193.550781 C 124.949219 195.300781 124.5625 195.460938 120.433594 195.726562 C 118.589844 195.824219 113.269531 196.296875 108.59375 196.753906 C 103.992188 197.230469 99.960938 197.5625 99.675781 197.484375 C 99.441406 197.382812 99.109375 196.382812 98.957031 195.277344 L 98.6875 193.234375 L 103.921875 192.929688 C 106.878906 192.796875 112.671875 192.53125 116.949219 192.417969 Z M 236.414062 119.726562 C 236.335938 120.007812 234.035156 123.28125 231.222656 127.015625 C 228.484375 130.773438 225.316406 135.132812 224.289062 136.667969 C 221.949219 140.078125 221.613281 140.328125 220.167969 139.25 C 219.0625 138.453125 219.144531 138.285156 224.167969 130.496094 C 226.988281 126.15625 230.152344 121.265625 231.226562 119.703125 L 233.15625 116.824219 L 234.839844 118.007812 C 235.753906 118.675781 236.488281 119.445312 236.414062 119.726562 Z M 106.675781 198.5 C 110.007812 198.089844 114.769531 197.582031 117.285156 197.398438 C 119.796875 197.21875 122.398438 196.988281 123.015625 196.816406 C 124.34375 196.535156 125.078125 197.308594 124.589844 198.535156 C 124.390625 199.125 123.09375 199.566406 120.074219 200.210938 C 116.410156 200.988281 104.839844 203.109375 101.875 203.546875 C 101.09375 203.632812 100.753906 203.351562 100.386719 202.074219 C 99.800781 200.210938 99.75 199.703125 100.242188 199.421875 C 100.421875 199.320312 103.339844 198.910156 106.675781 198.5 Z M 239.773438 122.394531 C 240.652344 123.320312 240.914062 123.882812 240.664062 124.382812 C 240.175781 125.195312 232.203125 134.484375 228.328125 138.652344 C 226.226562 140.914062 225.1875 141.804688 224.578125 141.675781 C 223.273438 141.464844 222.984375 140.441406 223.90625 139.441406 C 224.367188 139 225.769531 137.074219 227.015625 135.296875 C 231.035156 129.503906 237.09375 121.65625 237.773438 121.390625 C 238.160156 121.230469 239.0625 121.667969 239.773438 122.394531 Z M 113.464844 203.019531 C 119.441406 201.820312 124.371094 200.976562 124.449219 201.113281 C 124.523438 201.246094 124.453125 202.0625 124.316406 202.972656 L 124.101562 204.578125 L 121.0625 205.296875 C 119.394531 205.710938 114.824219 206.765625 110.960938 207.710938 L 103.875 209.363281 L 102.695312 207.597656 C 101.890625 206.390625 101.691406 205.730469 102.097656 205.5 C 102.410156 205.324219 107.535156 204.191406 113.464844 203.019531 Z M 243.5625 127.492188 L 244.472656 129.410156 L 239.433594 134.65625 C 236.644531 137.488281 233.402344 140.878906 232.191406 142.101562 L 230.023438 144.347656 L 228.53125 143.707031 C 227.679688 143.359375 226.941406 143.007812 226.863281 142.871094 C 226.6875 142.558594 240.8125 126.734375 241.867188 126.078125 C 242.515625 125.648438 242.828125 125.886719 243.5625 127.492188 Z M 144.617188 238.148438 C 145.382812 238.550781 145.984375 238.980469 145.917969 239.074219 C 145.78125 239.570312 131.246094 255.503906 130.707031 255.8125 C 130.300781 256.042969 129.859375 255.578125 129.210938 254.226562 L 128.296875 252.308594 L 133.164062 247.277344 C 135.863281 244.496094 138.753906 241.425781 139.671875 240.429688 C 142.074219 237.753906 142.980469 237.359375 144.617188 238.148438 Z M 253.464844 175.953125 C 255.34375 175.601562 259.597656 174.609375 262.886719 173.808594 L 268.871094 172.308594 L 270.078125 174.117188 C 270.90625 175.371094 271.078125 175.984375 270.675781 176.214844 C 270.136719 176.523438 249.007812 180.867188 248.515625 180.734375 C 247.929688 180.648438 248.574219 177.488281 249.246094 177.105469 C 249.695312 176.851562 251.613281 176.355469 253.464844 175.953125 Z M 148.238281 240.015625 C 149.503906 240.367188 149.785156 241.277344 148.910156 242.25 C 148.429688 242.761719 146.746094 245.027344 145.085938 247.335938 C 139.96875 254.644531 135.0625 260.648438 134.472656 260.445312 C 134.117188 260.351562 133.34375 259.71875 132.777344 259.035156 C 131.867188 258.0625 131.796875 257.628906 132.273438 257 C 134.792969 253.902344 146.175781 240.890625 147.191406 239.957031 C 147.328125 239.878906 147.742188 239.882812 148.238281 240.015625 Z M 254.027344 181.226562 C 257.367188 180.515625 267.542969 178.652344 270.894531 178.171875 C 271.675781 178.082031 272.015625 178.363281 272.386719 179.640625 C 272.683594 180.480469 272.832031 181.46875 272.734375 181.820312 C 272.605469 182.429688 264.9375 183.582031 256.039062 184.242188 C 253.25 184.460938 250.398438 184.773438 249.753906 184.902344 C 249.070312 185.054688 248.390625 184.90625 248.210938 184.589844 C 247.726562 183.738281 248.300781 182.339844 249.242188 182.222656 C 249.679688 182.152344 251.851562 181.6875 254.027344 181.226562 Z M 152.578125 242.421875 C 153.683594 243.21875 153.625 243.429688 149.542969 249.734375 C 147.261719 253.351562 144.070312 258.199219 142.445312 260.667969 L 139.507812 265.015625 L 137.886719 263.734375 C 137.015625 263.042969 136.328125 262.246094 136.359375 261.988281 C 136.4375 261.707031 138.78125 258.410156 141.546875 254.699219 C 144.328125 250.917969 147.453125 246.585938 148.484375 245.046875 C 150.824219 241.636719 151.15625 241.386719 152.578125 242.421875 Z M 252.335938 185.988281 C 254.183594 185.890625 259.546875 185.394531 264.175781 184.964844 C 268.824219 184.460938 272.8125 184.15625 273.09375 184.230469 C 273.332031 184.335938 273.664062 185.335938 273.8125 186.4375 L 274.085938 188.484375 L 268.847656 188.785156 C 265.894531 188.921875 260.097656 189.183594 255.824219 189.296875 C 248.316406 189.582031 248.105469 189.527344 247.984375 188.167969 C 247.824219 186.417969 248.207031 186.257812 252.335938 185.988281 Z M 156.308594 244.699219 C 157.148438 245.234375 156.78125 246.15625 153.808594 252.007812 C 149.847656 259.785156 145.410156 267.660156 144.871094 267.96875 C 144.199219 268.351562 141.222656 266.359375 141.414062 265.652344 C 141.6875 264.667969 154.304688 244.828125 154.886719 244.496094 C 155.175781 244.273438 155.828125 244.378906 156.308594 244.699219 Z M 260.410156 190.671875 C 275.214844 190.160156 274.285156 190.09375 274.277344 192.476562 C 274.261719 193.496094 274.105469 194.476562 273.878906 194.605469 C 273.339844 194.910156 264.304688 194.699219 255.59375 194.125 C 249.046875 193.6875 248.066406 193.53125 248.035156 192.539062 C 248.003906 191.960938 248.203125 191.371094 248.429688 191.242188 C 248.609375 191.140625 254.03125 190.851562 260.410156 190.671875 Z M 159.84375 246.730469 C 161.316406 247.855469 161.300781 248.042969 159.253906 252.179688 C 158.316406 254.082031 157.53125 255.835938 157.472656 256.046875 C 157.351562 257.300781 150.703125 270.59375 150.261719 270.550781 C 149.960938 270.542969 148.996094 270.199219 148.089844 269.761719 L 146.433594 269.042969 L 151.027344 260.601562 C 153.511719 255.980469 156.148438 250.792969 156.824219 249.160156 C 157.574219 247.546875 158.234375 246.101562 158.371094 246.023438 C 158.503906 245.949219 159.171875 246.28125 159.84375 246.730469 Z M 252.488281 195.355469 C 254.796875 195.648438 260.578125 195.988281 265.308594 196.148438 L 273.960938 196.519531 L 273.777344 198.289062 C 273.691406 199.289062 273.488281 200.292969 273.34375 200.558594 C 273.15625 200.960938 258.332031 199.878906 257.191406 199.339844 C 256.980469 199.28125 255.070312 199.058594 252.957031 198.894531 C 250.84375 198.730469 248.90625 198.460938 248.601562 198.339844 C 248.144531 198.0625 247.671875 195.242188 248.074219 195.011719 C 248.164062 194.960938 250.164062 195.132812 252.488281 195.355469 Z M 163.84375 249.6875 C 164.855469 250.421875 164.78125 250.820312 163.292969 254.578125 C 162.398438 256.871094 161.488281 259.347656 161.300781 260.167969 C 160.667969 262.609375 157.058594 271.734375 156.65625 271.964844 C 155.867188 272.355469 152.390625 271.359375 152.542969 270.796875 C 152.976562 269.363281 162.195312 249.199219 162.421875 249.070312 C 162.601562 248.96875 163.242188 249.257812 163.84375 249.6875 Z M 260.765625 201.230469 C 266.796875 201.902344 272.035156 202.546875 272.390625 202.644531 C 272.953125 202.800781 272.027344 206.296875 271.289062 206.777344 C 270.886719 207.007812 261.199219 205.441406 258.777344 204.738281 C 257.976562 204.480469 255.382812 203.992188 252.953125 203.589844 C 248.890625 202.929688 248.582031 202.808594 248.492188 201.492188 C 248.429688 200.753906 248.648438 200.097656 249.039062 200.050781 C 249.402344 199.960938 254.664062 200.539062 260.765625 201.230469 Z M 167.054688 252.203125 C 167.746094 252.582031 167.757812 253.644531 167.039062 257.085938 C 165.691406 263.914062 163.933594 270.859375 163.335938 271.792969 C 162.800781 272.632812 159.960938 273.179688 158.910156 272.585938 C 158.648438 272.4375 159.589844 269.285156 160.945312 265.605469 C 162.296875 261.921875 163.929688 257.367188 164.523438 255.484375 C 165.117188 253.601562 165.722656 251.949219 165.902344 251.847656 C 166.082031 251.746094 166.601562 251.925781 167.054688 252.203125 Z M 253.105469 205.109375 C 255.027344 205.5625 259.773438 206.488281 263.628906 207.210938 C 267.488281 207.929688 270.679688 208.730469 270.671875 209.03125 C 270.644531 210.238281 268.722656 212.398438 267.726562 212.429688 C 266.621094 212.464844 259.753906 210.425781 253.195312 208.089844 C 249.871094 206.949219 248.960938 206.398438 248.988281 205.609375 C 248.984375 205.078125 249.09375 204.539062 249.273438 204.4375 C 249.453125 204.335938 251.183594 204.660156 253.105469 205.109375 Z M 172.03125 256.5625 C 172.363281 257.148438 170.242188 268.996094 169.457031 271.164062 C 169.109375 272.019531 168.707031 272.246094 167.257812 272.417969 C 166.269531 272.5625 165.328125 272.683594 165.210938 272.6875 C 165.070312 272.648438 165.816406 269.253906 166.824219 265.175781 C 167.875 261.066406 168.789062 256.921875 168.917969 255.898438 L 169.121094 254.058594 L 170.402344 255.054688 C 171.097656 255.550781 171.808594 256.273438 172.03125 256.5625 Z M 261.59375 212.410156 C 264.914062 213.4375 267.597656 214.289062 267.511719 214.453125 C 267.472656 214.59375 266.890625 215.34375 266.257812 216.117188 C 264.871094 217.859375 265.011719 217.898438 256.660156 214.917969 L 250.3125 212.644531 L 249.832031 210.539062 L 249.375 208.480469 L 252.484375 209.5625 C 254.183594 210.144531 258.257812 211.453125 261.59375 212.410156 Z M 213.15625 249.644531 C 213.679688 250.355469 215.40625 254.011719 217.089844 257.8125 C 218.984375 262.085938 220.324219 264.652344 220.644531 264.585938 C 220.992188 264.570312 221.117188 264.792969 221.054688 265.304688 C 220.980469 265.703125 221.480469 267.203125 222.15625 268.601562 L 223.425781 271.148438 L 221.46875 272.203125 C 220.433594 272.792969 219.371094 273.21875 219.132812 273.117188 C 218.921875 273.058594 218.167969 271.523438 217.46875 269.664062 C 216.835938 267.824219 214.828125 262.722656 213.113281 258.347656 C 211.15625 253.339844 210.152344 250.105469 210.425781 249.652344 C 211.097656 248.320312 212.230469 248.328125 213.15625 249.644531 Z M 224.621094 241.578125 C 225.152344 241.574219 227.417969 244.089844 230.722656 248.335938 C 233.605469 252.046875 236.960938 256.378906 238.21875 257.863281 C 239.460938 259.414062 240.394531 260.847656 240.335938 261.058594 C 240.304688 261.316406 239.390625 262.011719 238.359375 262.597656 L 236.453125 263.742188 L 234.914062 261.347656 C 234.054688 260.050781 233.019531 258.859375 232.644531 258.714844 C 232.195312 258.554688 232.039062 258.285156 232.1875 258.023438 C 232.40625 257.78125 230.632812 254.867188 227.703125 250.765625 C 225.097656 247.015625 222.875 243.523438 222.777344 243.042969 C 222.632812 242.054688 223.390625 241.507812 224.621094 241.578125 Z M 205.226562 253.679688 C 205.691406 255.851562 208.777344 265.984375 209.414062 267.523438 C 210.734375 270.578125 211.570312 274.027344 211.121094 274.285156 C 210.132812 274.847656 206.992188 274.132812 206.457031 273.191406 C 206.148438 272.652344 205.429688 270.03125 204.851562 267.445312 C 204.292969 264.789062 203.421875 261.066406 202.945312 259.078125 C 202.039062 255.492188 202.285156 254.460938 204.234375 253.292969 C 204.792969 252.914062 205.101562 253.039062 205.226562 253.679688 Z M 209.351562 251.628906 C 209.796875 253.039062 214.859375 266.75 216.058594 269.691406 C 217.613281 273.683594 217.65625 273.65625 215.335938 273.964844 C 214.210938 274.074219 213.242188 274.148438 213.171875 274.128906 C 213.101562 274.109375 212.609375 272.722656 212.125 271.035156 C 211.640625 269.351562 210.566406 266.097656 209.722656 263.78125 C 208.882812 261.46875 207.699219 257.921875 207.082031 255.894531 L 205.960938 252.25 L 207.488281 251.382812 C 208.835938 250.617188 209.089844 250.648438 209.351562 251.628906 Z M 223.089844 257.492188 L 229.550781 268.855469 L 227.230469 269.996094 L 224.835938 271.121094 L 224.011719 269.152344 C 223.558594 268.042969 221.269531 263.28125 218.933594 258.546875 C 213.558594 247.632812 213.640625 247.882812 215.304688 246.9375 L 216.652344 246.171875 Z M 221.886719 244.503906 C 222.351562 245.011719 225.042969 249.007812 227.917969 253.4375 C 230.792969 257.867188 233.710938 262.269531 234.433594 263.226562 L 235.707031 264.9375 L 233.515625 266.421875 L 231.347656 267.832031 L 224.886719 256.46875 L 218.449219 245.148438 L 219.796875 244.382812 C 220.828125 243.796875 221.316406 243.816406 221.886719 244.503906 Z M 231.695312 241.894531 C 233.121094 243.460938 235.566406 246.292969 237.125 248.199219 C 238.683594 250.109375 240.929688 252.695312 242.132812 253.972656 C 243.335938 255.25 244.273438 256.382812 244.253906 256.453125 C 244.234375 256.523438 243.675781 257.316406 243.007812 258.230469 C 241.554688 260.066406 241.601562 260.042969 238.964844 256.664062 C 237.050781 254.128906 227.855469 242.773438 226.871094 241.667969 C 226.160156 240.941406 226.265625 240.703125 227.613281 239.9375 L 229.140625 239.070312 Z M 232.691406 237.582031 C 233.679688 237.4375 234.542969 238.015625 236.546875 239.96875 C 238.011719 241.394531 240.769531 244.046875 242.765625 245.886719 C 244.691406 247.703125 246.578125 249.664062 246.882812 250.203125 C 247.417969 251.144531 246.425781 254.207031 245.4375 254.769531 C 244.988281 255.023438 242.449219 252.542969 240.5 249.847656 C 239.503906 248.511719 232.371094 240.679688 230.742188 239.167969 C 229.988281 238.46875 230.671875 237.898438 232.691406 237.582031 Z M 203.015625 265.160156 L 205.003906 274.195312 L 202.492188 273.542969 L 199.910156 272.871094 L 198.921875 265.585938 C 198.011719 258.554688 198.019531 258.253906 199.285156 257.234375 C 200.015625 256.640625 200.683594 256.144531 200.800781 256.136719 C 200.914062 256.128906 201.917969 260.195312 203.015625 265.160156 Z M 244.199219 239.839844 L 249.953125 244.414062 L 249.210938 246.976562 L 248.488281 249.46875 L 241.835938 243.203125 C 238.15625 239.769531 235.128906 236.851562 235.078125 236.761719 C 235.003906 236.628906 235.746094 236.261719 236.675781 235.914062 C 238.402344 235.289062 238.5 235.351562 244.199219 239.839844 Z M 244.199219 239.839844 " fill-opacity="1" fill-rule="nonzero"/></g></g></g></svg>