<svg xmlns="http://www.w3.org/2000/svg" xmlns:xlink="http://www.w3.org/1999/xlink" width="500" zoomAndPan="magnify" viewBox="0 0 375 374.999991" height="500" preserveAspectRatio="xMidYMid meet" version="1.0"><defs><g/><clipPath id="7b6698b8d7"><path d="M 196 193 L 241 193 L 241 237 L 196 237 Z M 196 193 " clip-rule="nonzero"/></clipPath><clipPath id="5236171a65"><path d="M 153.140625 141.007812 L 261.890625 159.140625 L 242.644531 274.546875 L 133.898438 256.414062 Z M 153.140625 141.007812 " clip-rule="nonzero"/></clipPath><clipPath id="bf4b7b2e0c"><path d="M 153.140625 141.007812 L 261.890625 159.140625 L 242.644531 274.546875 L 133.898438 256.414062 Z M 153.140625 141.007812 " clip-rule="nonzero"/></clipPath><clipPath id="64d87b872f"><path d="M 152 221 L 184 221 L 184 246 L 152 246 Z M 152 221 " clip-rule="nonzero"/></clipPath><clipPath id="fc8cb05020"><path d="M 153.140625 141.007812 L 261.890625 159.140625 L 242.644531 274.546875 L 133.898438 256.414062 Z M 153.140625 141.007812 " clip-rule="nonzero"/></clipPath><clipPath id="40785bc1f1"><path d="M 153.140625 141.007812 L 261.890625 159.140625 L 242.644531 274.546875 L 133.898438 256.414062 Z M 153.140625 141.007812 " clip-rule="nonzero"/></clipPath><clipPath id="9230ced2b8"><path d="M 151 152 L 204 152 L 204 265 L 151 265 Z M 151 152 " clip-rule="nonzero"/></clipPath><clipPath id="c0a98b0697"><path d="M 153.140625 141.007812 L 261.890625 159.140625 L 242.644531 274.546875 L 133.898438 256.414062 Z M 153.140625 141.007812 " clip-rule="nonzero"/></clipPath><clipPath id="d6c14daa67"><path d="M 153.140625 141.007812 L 261.890625 159.140625 L 242.644531 274.546875 L 133.898438 256.414062 Z M 153.140625 141.007812 " clip-rule="nonzero"/></clipPath><clipPath id="f21b23bb5a"><path d="M 95 103 L 281 103 L 281 280 L 95 280 Z M 95 103 " clip-rule="nonzero"/></clipPath><clipPath id="e4aee6ea42"><path d="M 66.375 152.507812 L 216.324219 67.238281 L 309.753906 231.53125 L 159.804688 316.800781 Z M 66.375 152.507812 " clip-rule="nonzero"/></clipPath><clipPath id="0e9f408223"><path d="M 66.375 152.507812 L 216.324219 67.238281 L 309.753906 231.53125 L 159.804688 316.800781 Z M 66.375 152.507812 " clip-rule="nonzero"/></clipPath><clipPath id="b8584d6de9"><path d="M 41 188 L 69 188 L 69 279 L 41 279 Z M 41 188 " clip-rule="nonzero"/></clipPath><clipPath id="6671dcce24"><path d="M 18.148438 197.183594 L 46.269531 186.730469 L 78.929688 274.609375 L 50.808594 285.058594 Z M 18.148438 197.183594 " clip-rule="nonzero"/></clipPath><clipPath id="82140831b7"><path d="M 18.148438 197.183594 L 46.269531 186.730469 L 78.929688 274.609375 L 50.808594 285.058594 Z M 18.148438 197.183594 " clip-rule="nonzero"/></clipPath><clipPath id="84dbcb0851"><path d="M 268 231 L 322 231 L 322 310 L 268 310 Z M 268 231 " clip-rule="nonzero"/></clipPath><clipPath id="9d276fe111"><path d="M 309.902344 225.902344 L 336.691406 239.40625 L 294.488281 323.121094 L 267.703125 309.617188 Z M 309.902344 225.902344 " clip-rule="nonzero"/></clipPath><clipPath id="3e1fd159d0"><path d="M 294.714844 323.117188 L 267.925781 309.613281 L 310.125 225.898438 L 336.914062 239.402344 Z M 294.714844 323.117188 " clip-rule="nonzero"/></clipPath><clipPath id="a11b3b963e"><path d="M 185.695312 261.601562 L 190.34375 261.601562 L 190.34375 267.75 L 185.695312 267.75 Z M 185.695312 261.601562 " clip-rule="nonzero"/></clipPath></defs><g clip-path="url(#7b6698b8d7)"><g clip-path="url(#5236171a65)"><g clip-path="url(#bf4b7b2e0c)"><path fill="#ffffff" d="M 196.472656 231.007812 C 196.472656 231.007812 198.269531 210.125 217.488281 205.226562 C 236.703125 200.328125 239.613281 193.007812 239.613281 193.007812 C 239.613281 193.007812 247.359375 244.546875 200.421875 235.296875 C 200.421875 235.296875 227.324219 227.125 232.121094 208.0625 C 232.121094 208.0625 225.597656 225.035156 196.472656 231.007812 " fill-opacity="1" fill-rule="nonzero"/></g></g></g><g clip-path="url(#64d87b872f)"><g clip-path="url(#fc8cb05020)"><g clip-path="url(#40785bc1f1)"><path fill="#ffffff" d="M 181.71875 244.957031 C 181.71875 244.957031 168.867188 246.691406 163.3125 235.75 C 157.761719 224.808594 152.949219 224.039062 152.949219 224.039062 C 152.949219 224.039062 183.019531 212.40625 183.773438 241.992188 C 183.773438 241.992188 175.207031 226.855469 163.050781 226.53125 C 163.050781 226.53125 174.179688 228.175781 181.71875 244.957031 " fill-opacity="1" fill-rule="nonzero"/></g></g></g><g clip-path="url(#9230ced2b8)"><g clip-path="url(#c0a98b0697)"><g clip-path="url(#d6c14daa67)"><path fill="#ffffff" d="M 190.152344 264.824219 C 193.90625 244.476562 194.332031 227.988281 192.921875 214.734375 C 190.566406 183.359375 176.203125 170.0625 171.332031 166.417969 C 170.847656 166.046875 170.574219 165.875 170.574219 165.875 C 170.027344 165.492188 169.714844 165.316406 169.714844 165.316406 C 194.019531 175.441406 199.53125 212.695312 199.53125 212.695312 C 221.0625 152.339844 151.25 152.414062 151.25 152.414062 C 151.25 152.414062 160.371094 157.714844 163.0625 184.144531 C 164.957031 202.722656 179.019531 211.460938 187.207031 215.007812 C 189.542969 242.59375 181.414062 264.339844 181.414062 264.339844 L 190.152344 264.824219 " fill-opacity="1" fill-rule="nonzero"/></g></g></g><g clip-path="url(#f21b23bb5a)"><g clip-path="url(#e4aee6ea42)"><g clip-path="url(#0e9f408223)"><path fill="#ffffff" d="M 135.835938 113.667969 C 127.53125 119.761719 122.050781 128.105469 120.328125 137.410156 C 119.035156 144.445312 119.691406 151.027344 123.40625 166.867188 C 123.648438 167.917969 122.921875 167.796875 117.328125 165.6875 C 113.855469 164.394531 111.082031 163.175781 111.113281 162.921875 C 111.21875 162.683594 113.113281 161.308594 115.371094 159.847656 C 119.511719 157.195312 119.511719 157.195312 119.191406 155.589844 C 119.054688 154.71875 118.894531 153.917969 118.84375 153.828125 C 118.5625 153.335938 114.019531 155.796875 110.882812 158.117188 C 106.496094 161.386719 102.914062 165.324219 100.519531 169.480469 C 98.3125 173.230469 95.355469 184.128906 95.289062 188.503906 C 95.027344 203.515625 100.558594 215.648438 110.753906 222.808594 C 113.492188 224.699219 117.910156 227.242188 119.800781 227.949219 C 119.941406 227.988281 120.199219 227.1875 120.398438 226.179688 L 120.691406 224.292969 L 117.757812 222.6875 C 114.679688 220.933594 110.1875 217.425781 110.34375 216.859375 C 110.402344 216.648438 112.191406 215.929688 114.351562 215.234375 C 121.152344 212.972656 123.5 211.875 122.867188 211.285156 C 122.5 210.957031 120.03125 211.527344 115.625 213.082031 L 108.96875 215.382812 L 107.59375 213.90625 C 106.855469 213.136719 106.257812 212.289062 106.359375 212.050781 C 106.496094 211.558594 115.109375 209.039062 116.132812 209.167969 C 116.484375 209.265625 118.519531 208.761719 120.617188 208.164062 C 122.710938 207.566406 124.699219 207.089844 124.984375 207.167969 C 125.308594 207.21875 124.601562 212.140625 123.460938 218.078125 C 122.320312 224.019531 121.5 229.0625 121.628906 229.285156 C 121.757812 229.511719 126.507812 231.386719 132.195312 233.441406 C 137.882812 235.5 142.476562 237.40625 142.351562 237.714844 C 142.273438 237.996094 140.847656 239.460938 139.261719 240.957031 C 137.675781 242.453125 136.207031 243.941406 136.109375 244.296875 C 135.695312 245.242188 129.128906 251.355469 128.632812 251.222656 C 128.378906 251.1875 127.957031 250.238281 127.671875 249.214844 L 127.105469 247.277344 L 132.484375 242.730469 C 136.074219 239.738281 137.828125 237.910156 137.730469 237.429688 C 137.546875 236.582031 135.402344 238.039062 129.984375 242.726562 C 128.285156 244.226562 126.75 245.398438 126.539062 245.339844 C 125.972656 245.183594 125.253906 239.53125 125.320312 235.984375 L 125.441406 232.644531 L 123.667969 231.929688 C 122.703125 231.589844 121.882812 231.402344 121.84375 231.542969 C 121.484375 233.527344 121.410156 238.625 121.636719 241.945312 C 122.578125 254.367188 130.175781 265.324219 143.210938 272.773438 C 147.003906 274.957031 157.882812 277.984375 162.234375 278.007812 C 167.027344 278.074219 172.25 277.007812 177.296875 274.910156 C 180.894531 273.398438 185.335938 270.753906 185.054688 270.257812 C 185.003906 270.167969 184.398438 269.625 183.71875 269.058594 C 182.503906 267.964844 182.503906 267.964844 178.109375 270.167969 C 175.695312 271.363281 173.546875 272.285156 173.289062 272.253906 C 173.054688 272.152344 173.425781 269.144531 174.085938 265.5 C 175.136719 259.613281 175.402344 258.925781 176.179688 259.671875 C 187.894531 270.964844 193.21875 274.890625 199.921875 277.378906 C 212.105469 281.867188 226.359375 279.230469 238.835938 270.230469 C 248.285156 263.429688 253.628906 255.578125 255.445312 245.804688 C 256.734375 238.773438 256.082031 232.1875 252.363281 216.347656 C 252.125 215.296875 252.847656 215.421875 258.445312 217.527344 C 261.917969 218.824219 264.6875 220.039062 264.65625 220.296875 C 264.554688 220.535156 262.660156 221.90625 260.402344 223.371094 C 256.261719 226.023438 256.261719 226.023438 256.578125 227.625 C 256.71875 228.496094 256.875 229.296875 256.925781 229.386719 C 257.207031 229.882812 261.75 227.417969 264.890625 225.097656 C 269.273438 221.832031 272.859375 217.890625 275.253906 213.734375 C 277.457031 209.984375 280.417969 199.089844 280.484375 194.710938 C 280.746094 179.699219 275.214844 167.570312 265.019531 160.40625 C 262.277344 158.515625 257.863281 155.976562 255.972656 155.265625 C 255.832031 155.230469 255.574219 156.027344 255.371094 157.035156 L 255.082031 158.925781 L 258.011719 160.527344 C 261.089844 162.285156 265.582031 165.792969 265.429688 166.355469 C 265.371094 166.566406 263.582031 167.289062 261.417969 167.980469 C 254.621094 170.242188 252.273438 171.339844 252.90625 171.933594 C 253.269531 172.257812 255.738281 171.6875 260.144531 170.132812 L 266.804688 167.832031 L 268.179688 169.308594 C 268.914062 170.082031 269.515625 170.929688 269.410156 171.164062 C 269.277344 171.660156 260.664062 174.179688 259.636719 174.046875 C 259.285156 173.953125 257.253906 174.453125 255.15625 175.050781 C 253.058594 175.648438 251.070312 176.125 250.789062 176.050781 C 250.460938 175.996094 251.171875 171.074219 252.3125 165.136719 C 253.453125 159.199219 254.269531 154.15625 254.140625 153.929688 C 254.015625 153.707031 249.261719 151.832031 243.574219 149.773438 C 237.886719 147.71875 233.296875 145.8125 233.417969 145.503906 C 233.496094 145.222656 234.921875 143.757812 236.507812 142.261719 C 238.09375 140.765625 239.566406 139.273438 239.660156 138.921875 C 240.074219 137.972656 246.644531 131.859375 247.136719 131.996094 C 247.394531 132.027344 247.816406 132.976562 248.101562 134.003906 L 248.667969 135.941406 L 243.285156 140.484375 C 239.699219 143.476562 237.945312 145.308594 238.039062 145.789062 C 238.222656 146.636719 240.367188 145.179688 245.785156 140.492188 C 247.488281 138.988281 249.023438 137.820312 249.234375 137.878906 C 249.796875 138.03125 250.515625 143.6875 250.449219 147.230469 L 250.328125 150.570312 L 252.101562 151.285156 C 253.070312 151.628906 253.890625 151.816406 253.929688 151.671875 C 254.285156 149.6875 254.359375 144.59375 254.136719 141.273438 C 253.195312 128.847656 245.597656 117.890625 232.5625 110.441406 C 228.765625 108.261719 217.886719 105.234375 213.535156 105.210938 C 208.742188 105.144531 203.523438 106.207031 198.472656 108.308594 C 194.875 109.820312 190.433594 112.464844 190.714844 112.957031 C 190.765625 113.046875 191.375 113.59375 192.050781 114.160156 C 193.269531 115.25 193.269531 115.25 197.664062 113.046875 C 200.074219 111.855469 202.226562 110.929688 202.480469 110.960938 C 202.71875 111.066406 202.347656 114.070312 201.683594 117.714844 C 200.632812 123.605469 200.371094 124.289062 199.589844 123.542969 C 192.195312 116.394531 187.34375 112.257812 183.941406 110.03125 C 172.476562 102.523438 160.140625 101.632812 146.816406 107.367188 C 141.953125 109.476562 140.292969 110.421875 135.835938 113.667969 Z M 149.308594 125.863281 L 155.824219 137.316406 L 154.476562 138.082031 C 152.8125 139.027344 152.984375 139.226562 146.355469 129.03125 C 143.480469 124.601562 140.558594 120.199219 139.835938 119.242188 L 138.539062 117.484375 L 140.59375 116.078125 C 141.710938 115.324219 142.691406 114.644531 142.757812 114.550781 C 142.777344 114.480469 145.734375 119.574219 149.308594 125.863281 Z M 150.257812 113.316406 C 150.710938 114.425781 153.003906 119.183594 155.339844 123.921875 C 160.710938 134.835938 160.628906 134.585938 158.96875 135.527344 L 157.621094 136.296875 L 151.15625 124.929688 L 144.71875 113.609375 L 147.042969 112.46875 L 149.433594 111.347656 Z M 139.359375 121.117188 C 140.214844 122.414062 141.25 123.609375 141.628906 123.75 C 142.101562 123.957031 142.230469 124.183594 142.039062 124.46875 C 141.820312 124.710938 143.339844 127.175781 146.042969 130.988281 C 150.996094 137.921875 151.972656 139.746094 151.0625 140.441406 C 149.6875 141.578125 148.765625 140.796875 143.59375 134.105469 C 140.710938 130.394531 137.414062 126.269531 136.300781 124.9375 C 135.230469 123.582031 134.191406 122.273438 134.011719 121.960938 C 133.652344 121.332031 134.574219 120.332031 136.421875 119.402344 C 137.773438 118.75 137.871094 118.8125 139.359375 121.117188 Z M 155.183594 109.324219 C 155.394531 109.382812 156.101562 110.941406 156.804688 112.804688 C 157.433594 114.644531 159.441406 119.742188 161.15625 124.117188 C 164.21875 132.007812 164.421875 133.203125 162.738281 133.800781 C 161.675781 134.226562 160.609375 132.457031 157.183594 124.65625 C 155.132812 120.113281 153.921875 117.769531 153.503906 117.769531 C 153.089844 117.769531 153.003906 117.519531 153.21875 117.160156 C 153.386719 116.828125 152.921875 115.488281 152.179688 114.183594 C 151.4375 112.882812 150.882812 111.59375 151.007812 111.285156 C 151.117188 110.746094 154.546875 109.152344 155.183594 109.324219 Z M 135.304688 125.800781 C 137.101562 128.226562 146.042969 139.25 147.375 140.753906 C 148.109375 141.523438 148.007812 141.761719 146.660156 142.527344 L 145.132812 143.398438 L 142.546875 140.527344 C 141.121094 138.960938 139.023438 136.527344 137.863281 135.105469 C 135.949219 132.6875 131.839844 128.070312 130.425781 126.734375 C 129.984375 126.269531 130.15625 125.636719 131.089844 124.453125 C 132.652344 122.496094 132.863281 122.554688 135.304688 125.800781 Z M 161.101562 108.339844 C 161.171875 108.359375 161.660156 109.742188 162.144531 111.429688 C 162.628906 113.117188 163.707031 116.367188 164.546875 118.683594 C 165.386719 121 166.574219 124.546875 167.164062 126.527344 L 168.3125 130.214844 L 166.785156 131.085938 C 165.4375 131.851562 165.179688 131.816406 164.894531 130.792969 C 164.472656 129.425781 159.414062 115.71875 158.214844 112.773438 C 156.65625 108.785156 156.613281 108.808594 158.933594 108.5 C 160.0625 108.394531 161.03125 108.320312 161.101562 108.339844 Z M 130.976562 129.273438 C 131.9375 130.332031 133.246094 131.90625 133.945312 132.816406 C 134.640625 133.730469 137.152344 136.578125 139.558594 139.136719 C 141.964844 141.691406 143.886719 143.925781 143.847656 144.066406 C 143.808594 144.207031 143.039062 144.527344 142.148438 144.738281 C 140.6875 145.09375 140.214844 144.886719 137.96875 142.714844 C 136.554688 141.378906 133.773438 138.679688 131.679688 136.78125 C 127.046875 132.398438 126.664062 131.726562 127.574219 129.664062 C 128.605469 127.292969 129.109375 127.242188 130.976562 129.273438 Z M 165.441406 108.128906 C 167.722656 108.378906 168.078125 109.007812 169.5 115.273438 C 170.066406 118.042969 170.960938 121.8125 171.386719 123.710938 C 172.105469 126.75 172.039062 127.261719 170.988281 128.335938 C 170.351562 128.996094 169.683594 129.496094 169.542969 129.457031 C 169.402344 129.417969 168.464844 126.621094 167.5 123.246094 C 166.53125 119.875 165.367188 116.257812 164.9375 115.191406 C 163.582031 111.863281 162.703125 108.4375 163.152344 108.183594 C 163.375 108.054688 164.414062 108 165.441406 108.128906 Z M 132.53125 139.328125 C 136.140625 142.742188 139.140625 145.613281 139.191406 145.703125 C 139.269531 145.839844 138.523438 146.203125 137.59375 146.554688 C 135.867188 147.179688 135.773438 147.113281 130.117188 142.601562 L 124.363281 138.027344 L 125.042969 135.5625 C 125.410156 134.222656 125.789062 133.113281 125.859375 133.132812 C 125.929688 133.152344 128.949219 135.953125 132.53125 139.328125 Z M 175.351562 116.878906 C 176.289062 124.074219 176.296875 124.1875 174.878906 125.351562 C 174.101562 125.972656 173.40625 126.425781 173.332031 126.292969 C 173.28125 126.203125 172.320312 122.109375 171.246094 117.191406 L 169.265625 108.273438 L 171.777344 108.925781 L 174.359375 109.597656 Z M 124.730469 140.136719 C 124.859375 140.363281 126.066406 141.339844 127.394531 142.308594 C 130.207031 144.332031 134.4375 147.695312 134.257812 147.796875 C 134.214844 147.824219 132.417969 148.425781 130.28125 149.167969 C 128.144531 149.90625 126.125 150.636719 125.8125 150.816406 C 125.046875 151.25 125.636719 154.484375 126.414062 154.28125 C 127.714844 153.957031 141.800781 149.453125 145.117188 148.28125 C 147.296875 147.515625 152.5 144.855469 159.148438 141.074219 C 165.796875 137.292969 170.746094 134.183594 172.515625 132.699219 C 175.21875 130.449219 186.289062 120.644531 187.234375 119.691406 C 187.804688 119.128906 185.328125 116.972656 184.566406 117.40625 C 184.25 117.585938 182.589844 118.945312 180.863281 120.402344 C 179.132812 121.863281 177.695312 123.09375 177.652344 123.121094 C 177.472656 123.222656 176.746094 117.871094 176.445312 114.414062 C 176.289062 112.78125 176.066406 111.242188 175.9375 111.015625 C 175.351562 109.984375 176.660156 110.191406 179.109375 111.472656 C 183.96875 114.058594 188.6875 117.855469 195.199219 124.496094 C 204.035156 133.558594 207.144531 136.308594 213.046875 140.207031 C 220.390625 145.066406 227.867188 148.601562 236.296875 151.296875 C 240.34375 152.5625 245.199219 154.199219 247.039062 154.820312 L 250.414062 156.050781 L 249.71875 159.535156 C 249.339844 161.476562 248.238281 166.441406 247.28125 170.613281 C 245.289062 179.234375 244.503906 187.46875 244.925781 196.265625 C 245.257812 203.328125 246.03125 207.40625 249.300781 219.636719 C 251.679688 228.628906 252.53125 234.621094 252.269531 240.121094 C 252.117188 242.882812 251.628906 244.113281 251.039062 243.078125 C 250.914062 242.855469 249.703125 241.878906 248.378906 240.90625 C 245.5625 238.882812 241.332031 235.523438 241.511719 235.417969 C 241.558594 235.394531 243.351562 234.789062 245.488281 234.050781 C 247.625 233.3125 249.644531 232.578125 249.960938 232.398438 C 250.722656 231.964844 250.132812 228.734375 249.359375 228.9375 C 248.054688 229.261719 233.972656 233.761719 230.65625 234.9375 C 226 236.574219 207.042969 247.351562 203.253906 250.519531 C 200.550781 252.769531 189.480469 262.570312 188.535156 263.523438 C 187.964844 264.085938 190.441406 266.246094 191.207031 265.8125 C 191.519531 265.632812 193.183594 264.269531 194.910156 262.8125 C 196.636719 261.355469 198.074219 260.121094 198.121094 260.097656 C 198.300781 259.992188 199.027344 265.347656 199.324219 268.800781 C 199.484375 270.4375 199.703125 271.976562 199.832031 272.199219 C 200.417969 273.234375 199.113281 273.027344 196.660156 271.746094 C 191.800781 269.160156 187.085938 265.359375 180.574219 258.71875 C 171.734375 249.65625 168.625 246.90625 162.722656 243.011719 C 155.382812 238.152344 147.902344 234.617188 139.472656 231.917969 C 135.402344 230.609375 130.570312 229.015625 128.707031 228.351562 L 125.359375 227.167969 L 126.023438 223.636719 C 126.433594 221.738281 127.507812 216.730469 128.488281 212.605469 C 130.480469 203.980469 131.269531 195.746094 130.84375 186.953125 C 130.511719 179.886719 129.738281 175.808594 126.46875 163.578125 C 124.09375 154.589844 123.238281 148.59375 123.5 143.09375 C 123.652344 140.332031 124.144531 139.105469 124.730469 140.136719 Z M 112.308594 165.75 C 113.910156 166.265625 117.164062 167.386719 119.546875 168.230469 L 123.933594 169.777344 L 124.414062 171.882812 L 124.898438 173.984375 L 121.785156 172.902344 C 120.085938 172.320312 116.015625 171.011719 112.675781 170.058594 C 109.359375 169.03125 106.675781 168.179688 106.757812 168.011719 C 107.027344 167.441406 108.566406 165.441406 108.96875 165.210938 C 109.214844 165.011719 110.730469 165.277344 112.308594 165.75 Z M 207.265625 109.964844 C 208.117188 109.898438 208.945312 109.785156 209.085938 109.824219 C 209.269531 109.835938 208.632812 112.578125 207.816406 115.953125 C 206.929688 119.3125 205.972656 123.480469 205.605469 125.238281 L 204.945312 128.464844 L 203.382812 126.976562 L 201.824219 125.484375 L 202.734375 120.921875 C 203.933594 114.773438 204.980469 110.550781 205.386719 110.320312 C 205.566406 110.21875 206.414062 110.035156 207.265625 109.964844 Z M 111.496094 171.324219 C 114.453125 172.136719 118.808594 173.523438 121.121094 174.351562 C 124.917969 175.695312 125.375 175.972656 125.269531 177.042969 C 125.121094 178.140625 124.960938 178.171875 122.5 177.609375 C 118.847656 176.832031 116.695312 176.390625 110.171875 175.167969 C 107.039062 174.570312 104.234375 174.027344 103.90625 173.972656 C 103.34375 173.820312 104.832031 170.476562 105.683594 169.992188 C 105.910156 169.863281 108.554688 170.4375 111.496094 171.324219 Z M 213.804688 109.753906 C 214.9375 109.765625 215.761719 110.066406 215.667969 110.417969 C 215.542969 110.726562 214.578125 113.417969 213.488281 116.414062 C 211.207031 122.644531 210.484375 124.722656 209.285156 128.257812 C 208.511719 130.660156 208.402344 130.78125 207.382812 130.347656 C 206.410156 129.890625 206.402344 129.359375 207.1875 125.40625 C 208.429688 119.230469 210.839844 110.191406 211.335938 109.910156 C 211.558594 109.78125 212.644531 109.703125 213.804688 109.753906 Z M 108.734375 176.402344 C 111.65625 176.9375 114.71875 177.515625 115.492188 177.730469 C 116.292969 177.988281 118.890625 178.472656 121.316406 178.875 C 125.378906 179.539062 125.6875 179.660156 125.78125 180.972656 C 125.84375 181.710938 125.625 182.371094 125.234375 182.414062 C 124.636719 182.515625 103.265625 180.164062 101.882812 179.820312 C 101.316406 179.667969 102.242188 176.167969 102.980469 175.691406 C 103.160156 175.585938 105.769531 175.886719 108.734375 176.402344 Z M 219.984375 110.699219 C 221.0625 110.917969 221.851562 111.363281 221.726562 111.667969 C 221.3125 113.035156 212.410156 132.601562 212.015625 133.0625 C 211.78125 133.375 211.101562 133.226562 210.5 132.796875 C 209.417969 132.046875 209.46875 131.71875 210.976562 127.886719 C 211.871094 125.597656 212.738281 123.144531 212.949219 122.367188 C 213.769531 119.523438 217.144531 110.828125 217.59375 110.570312 C 217.863281 110.417969 218.910156 110.476562 219.984375 110.699219 Z M 108.925781 182.175781 C 113.207031 182.59375 116.839844 183.027344 117.078125 183.128906 C 117.289062 183.1875 119.199219 183.410156 121.3125 183.574219 C 123.429688 183.738281 125.363281 184.003906 125.695312 184.171875 C 126.125 184.402344 126.4375 186.308594 126.261719 187.359375 C 126.222656 187.5 124.25 187.375 121.898438 187.105469 C 119.542969 186.839844 113.695312 186.480469 108.9375 186.273438 C 101.425781 186.023438 100.304688 185.832031 100.398438 184.945312 C 100.625 183.152344 100.9375 181.609375 101.070312 181.53125 C 101.160156 181.480469 104.71875 181.777344 108.925781 182.175781 Z M 226.011719 112.621094 L 227.839844 113.425781 L 223.707031 121.003906 C 221.410156 125.226562 218.726562 130.4375 217.753906 132.59375 C 216.78125 134.753906 215.882812 136.511719 215.742188 136.472656 C 214.746094 136.085938 213.269531 134.847656 213.289062 134.359375 C 213.316406 133.988281 214.078125 132.1875 214.972656 130.3125 C 215.9375 128.457031 216.910156 126.296875 217.148438 125.566406 C 218.171875 122.667969 223.304688 112.140625 223.714844 112.027344 C 223.964844 111.941406 225.019531 112.234375 226.011719 112.621094 Z M 105.960938 187.726562 C 108.8125 187.828125 114.542969 188.078125 118.675781 188.34375 C 125.226562 188.78125 126.207031 188.933594 126.234375 189.929688 C 126.265625 190.503906 126.066406 191.09375 125.84375 191.222656 C 125.394531 191.476562 102.824219 192.246094 101.171875 192.054688 C 100.03125 191.933594 99.980469 191.84375 99.996094 189.988281 C 100.011719 188.96875 100.167969 187.992188 100.390625 187.863281 C 100.570312 187.761719 103.089844 187.695312 105.960938 187.726562 Z M 231.429688 115.246094 C 233.03125 116.179688 233.082031 116.269531 232.605469 117.3125 C 231.921875 118.832031 219.722656 137.835938 219.273438 138.089844 C 219.050781 138.21875 218.441406 138.089844 217.960938 137.765625 C 217.195312 137.253906 217.472656 136.382812 220.019531 131.246094 C 223.726562 123.964844 228.796875 114.902344 229.355469 114.523438 C 229.625 114.371094 230.546875 114.738281 231.429688 115.246094 Z M 118.449219 193.167969 C 125.953125 192.882812 126.164062 192.941406 126.285156 194.300781 C 126.449219 196.050781 126.0625 196.210938 121.933594 196.476562 C 120.089844 196.574219 114.769531 197.046875 110.09375 197.503906 C 105.492188 197.980469 101.460938 198.3125 101.175781 198.234375 C 100.941406 198.132812 100.609375 197.132812 100.457031 196.027344 L 100.1875 193.984375 L 105.421875 193.679688 C 108.378906 193.546875 114.171875 193.28125 118.449219 193.167969 Z M 237.914062 120.476562 C 237.835938 120.757812 235.535156 124.03125 232.722656 127.765625 C 229.984375 131.523438 226.816406 135.882812 225.789062 137.417969 C 223.449219 140.828125 223.113281 141.078125 221.667969 140 C 220.5625 139.203125 220.644531 139.035156 225.667969 131.246094 C 228.488281 126.90625 231.652344 122.015625 232.726562 120.453125 L 234.65625 117.574219 L 236.339844 118.757812 C 237.253906 119.425781 237.988281 120.195312 237.914062 120.476562 Z M 108.175781 199.25 C 111.507812 198.839844 116.269531 198.332031 118.785156 198.148438 C 121.296875 197.96875 123.898438 197.738281 124.515625 197.566406 C 125.84375 197.285156 126.578125 198.058594 126.089844 199.285156 C 125.890625 199.875 124.59375 200.316406 121.574219 200.960938 C 117.910156 201.738281 106.339844 203.859375 103.375 204.296875 C 102.59375 204.382812 102.253906 204.101562 101.886719 202.824219 C 101.300781 200.960938 101.25 200.453125 101.742188 200.171875 C 101.921875 200.070312 104.839844 199.660156 108.175781 199.25 Z M 241.273438 123.144531 C 242.152344 124.070312 242.414062 124.632812 242.164062 125.132812 C 241.675781 125.945312 233.703125 135.234375 229.828125 139.402344 C 227.726562 141.664062 226.6875 142.554688 226.078125 142.425781 C 224.773438 142.214844 224.484375 141.191406 225.40625 140.191406 C 225.867188 139.75 227.269531 137.824219 228.515625 136.046875 C 232.535156 130.253906 238.59375 122.40625 239.273438 122.140625 C 239.660156 121.980469 240.5625 122.417969 241.273438 123.144531 Z M 114.964844 203.769531 C 120.941406 202.570312 125.871094 201.726562 125.949219 201.863281 C 126.023438 201.996094 125.953125 202.8125 125.816406 203.722656 L 125.601562 205.328125 L 122.5625 206.046875 C 120.894531 206.460938 116.324219 207.515625 112.460938 208.460938 L 105.375 210.113281 L 104.195312 208.347656 C 103.390625 207.140625 103.191406 206.480469 103.597656 206.25 C 103.910156 206.074219 109.035156 204.941406 114.964844 203.769531 Z M 245.0625 128.242188 L 245.972656 130.160156 L 240.933594 135.40625 C 238.144531 138.238281 234.902344 141.628906 233.691406 142.851562 L 231.523438 145.097656 L 230.03125 144.457031 C 229.179688 144.109375 228.441406 143.757812 228.363281 143.621094 C 228.1875 143.308594 242.3125 127.484375 243.367188 126.828125 C 244.015625 126.398438 244.328125 126.636719 245.0625 128.242188 Z M 146.117188 238.898438 C 146.882812 239.300781 147.484375 239.730469 147.417969 239.824219 C 147.28125 240.320312 132.746094 256.253906 132.207031 256.5625 C 131.800781 256.792969 131.359375 256.328125 130.710938 254.976562 L 129.796875 253.058594 L 134.664062 248.027344 C 137.363281 245.246094 140.253906 242.175781 141.171875 241.179688 C 143.574219 238.503906 144.480469 238.109375 146.117188 238.898438 Z M 254.964844 176.703125 C 256.84375 176.351562 261.097656 175.359375 264.386719 174.558594 L 270.371094 173.058594 L 271.578125 174.867188 C 272.40625 176.121094 272.578125 176.734375 272.175781 176.964844 C 271.636719 177.273438 250.507812 181.617188 250.015625 181.484375 C 249.429688 181.398438 250.074219 178.238281 250.746094 177.855469 C 251.195312 177.601562 253.113281 177.105469 254.964844 176.703125 Z M 149.738281 240.765625 C 151.003906 241.117188 151.285156 242.027344 150.410156 243 C 149.929688 243.511719 148.246094 245.777344 146.585938 248.085938 C 141.46875 255.394531 136.5625 261.398438 135.972656 261.195312 C 135.617188 261.101562 134.84375 260.46875 134.277344 259.785156 C 133.367188 258.8125 133.296875 258.378906 133.773438 257.75 C 136.292969 254.652344 147.675781 241.640625 148.691406 240.707031 C 148.828125 240.628906 149.242188 240.632812 149.738281 240.765625 Z M 255.527344 181.976562 C 258.867188 181.265625 269.042969 179.402344 272.394531 178.921875 C 273.175781 178.832031 273.515625 179.113281 273.886719 180.390625 C 274.183594 181.230469 274.332031 182.21875 274.234375 182.570312 C 274.105469 183.179688 266.4375 184.332031 257.539062 184.992188 C 254.75 185.210938 251.898438 185.523438 251.253906 185.652344 C 250.570312 185.804688 249.890625 185.65625 249.710938 185.339844 C 249.226562 184.488281 249.800781 183.089844 250.742188 182.972656 C 251.179688 182.902344 253.351562 182.4375 255.527344 181.976562 Z M 154.078125 243.171875 C 155.183594 243.96875 155.125 244.179688 151.042969 250.484375 C 148.761719 254.101562 145.570312 258.949219 143.945312 261.417969 L 141.007812 265.765625 L 139.386719 264.484375 C 138.515625 263.792969 137.828125 262.996094 137.859375 262.738281 C 137.9375 262.457031 140.28125 259.160156 143.046875 255.449219 C 145.828125 251.667969 148.953125 247.335938 149.984375 245.796875 C 152.324219 242.386719 152.65625 242.136719 154.078125 243.171875 Z M 253.835938 186.738281 C 255.683594 186.640625 261.046875 186.144531 265.675781 185.714844 C 270.324219 185.210938 274.3125 184.90625 274.59375 184.980469 C 274.832031 185.085938 275.164062 186.085938 275.3125 187.1875 L 275.585938 189.234375 L 270.347656 189.535156 C 267.394531 189.671875 261.597656 189.933594 257.324219 190.046875 C 249.816406 190.332031 249.605469 190.277344 249.484375 188.917969 C 249.324219 187.167969 249.707031 187.007812 253.835938 186.738281 Z M 157.808594 245.449219 C 158.648438 245.984375 158.28125 246.90625 155.308594 252.757812 C 151.347656 260.535156 146.910156 268.410156 146.371094 268.71875 C 145.699219 269.101562 142.722656 267.109375 142.914062 266.402344 C 143.1875 265.417969 155.804688 245.578125 156.386719 245.246094 C 156.675781 245.023438 157.328125 245.128906 157.808594 245.449219 Z M 261.910156 191.421875 C 276.714844 190.910156 275.785156 190.84375 275.777344 193.226562 C 275.761719 194.246094 275.605469 195.226562 275.378906 195.355469 C 274.839844 195.660156 265.804688 195.449219 257.09375 194.875 C 250.546875 194.4375 249.566406 194.28125 249.535156 193.289062 C 249.503906 192.710938 249.703125 192.121094 249.929688 191.992188 C 250.109375 191.890625 255.53125 191.601562 261.910156 191.421875 Z M 161.34375 247.480469 C 162.816406 248.605469 162.800781 248.792969 160.753906 252.929688 C 159.816406 254.832031 159.03125 256.585938 158.972656 256.796875 C 158.851562 258.050781 152.203125 271.34375 151.761719 271.300781 C 151.460938 271.292969 150.496094 270.949219 149.589844 270.511719 L 147.933594 269.792969 L 152.527344 261.351562 C 155.011719 256.730469 157.648438 251.542969 158.324219 249.910156 C 159.074219 248.296875 159.734375 246.851562 159.871094 246.773438 C 160.003906 246.699219 160.671875 247.03125 161.34375 247.480469 Z M 253.988281 196.105469 C 256.296875 196.398438 262.078125 196.738281 266.808594 196.898438 L 275.460938 197.269531 L 275.277344 199.039062 C 275.191406 200.039062 274.988281 201.042969 274.84375 201.308594 C 274.65625 201.710938 259.832031 200.628906 258.691406 200.089844 C 258.480469 200.03125 256.570312 199.808594 254.457031 199.644531 C 252.34375 199.480469 250.40625 199.210938 250.101562 199.089844 C 249.644531 198.8125 249.171875 195.992188 249.574219 195.761719 C 249.664062 195.710938 251.664062 195.882812 253.988281 196.105469 Z M 165.34375 250.4375 C 166.355469 251.171875 166.28125 251.570312 164.792969 255.328125 C 163.898438 257.621094 162.988281 260.097656 162.800781 260.917969 C 162.167969 263.359375 158.558594 272.484375 158.15625 272.714844 C 157.367188 273.105469 153.890625 272.109375 154.042969 271.546875 C 154.476562 270.113281 163.695312 249.949219 163.921875 249.820312 C 164.101562 249.71875 164.742188 250.007812 165.34375 250.4375 Z M 262.265625 201.980469 C 268.296875 202.652344 273.535156 203.296875 273.890625 203.394531 C 274.453125 203.550781 273.527344 207.046875 272.789062 207.527344 C 272.386719 207.757812 262.699219 206.191406 260.277344 205.488281 C 259.476562 205.230469 256.882812 204.742188 254.453125 204.339844 C 250.390625 203.679688 250.082031 203.558594 249.992188 202.242188 C 249.929688 201.503906 250.148438 200.847656 250.539062 200.800781 C 250.902344 200.710938 256.164062 201.289062 262.265625 201.980469 Z M 168.554688 252.953125 C 169.246094 253.332031 169.257812 254.394531 168.539062 257.835938 C 167.191406 264.664062 165.433594 271.609375 164.835938 272.542969 C 164.300781 273.382812 161.460938 273.929688 160.410156 273.335938 C 160.148438 273.1875 161.089844 270.035156 162.445312 266.355469 C 163.796875 262.671875 165.429688 258.117188 166.023438 256.234375 C 166.617188 254.351562 167.222656 252.699219 167.402344 252.597656 C 167.582031 252.496094 168.101562 252.675781 168.554688 252.953125 Z M 254.605469 205.859375 C 256.527344 206.3125 261.273438 207.238281 265.128906 207.960938 C 268.988281 208.679688 272.179688 209.480469 272.171875 209.78125 C 272.144531 210.988281 270.222656 213.148438 269.226562 213.179688 C 268.121094 213.214844 261.253906 211.175781 254.695312 208.839844 C 251.371094 207.699219 250.460938 207.148438 250.488281 206.359375 C 250.484375 205.828125 250.59375 205.289062 250.773438 205.1875 C 250.953125 205.085938 252.683594 205.410156 254.605469 205.859375 Z M 173.53125 257.3125 C 173.863281 257.898438 171.742188 269.746094 170.957031 271.914062 C 170.609375 272.769531 170.207031 272.996094 168.757812 273.167969 C 167.769531 273.3125 166.828125 273.433594 166.710938 273.4375 C 166.570312 273.398438 167.316406 270.003906 168.324219 265.925781 C 169.375 261.816406 170.289062 257.671875 170.417969 256.648438 L 170.621094 254.808594 L 171.902344 255.804688 C 172.597656 256.300781 173.308594 257.023438 173.53125 257.3125 Z M 263.09375 213.160156 C 266.414062 214.1875 269.097656 215.039062 269.011719 215.203125 C 268.972656 215.34375 268.390625 216.09375 267.757812 216.867188 C 266.371094 218.609375 266.511719 218.648438 258.160156 215.667969 L 251.8125 213.394531 L 251.332031 211.289062 L 250.875 209.230469 L 253.984375 210.3125 C 255.683594 210.894531 259.757812 212.203125 263.09375 213.160156 Z M 214.65625 250.394531 C 215.179688 251.105469 216.90625 254.761719 218.589844 258.5625 C 220.484375 262.835938 221.824219 265.402344 222.144531 265.335938 C 222.492188 265.320312 222.617188 265.542969 222.554688 266.054688 C 222.480469 266.453125 222.980469 267.953125 223.65625 269.351562 L 224.925781 271.898438 L 222.96875 272.953125 C 221.933594 273.542969 220.871094 273.96875 220.632812 273.867188 C 220.421875 273.808594 219.667969 272.273438 218.96875 270.414062 C 218.335938 268.574219 216.328125 263.472656 214.613281 259.097656 C 212.65625 254.089844 211.652344 250.855469 211.925781 250.402344 C 212.597656 249.070312 213.730469 249.078125 214.65625 250.394531 Z M 226.121094 242.328125 C 226.652344 242.324219 228.917969 244.839844 232.222656 249.085938 C 235.105469 252.796875 238.460938 257.128906 239.71875 258.613281 C 240.960938 260.164062 241.894531 261.597656 241.835938 261.808594 C 241.804688 262.066406 240.890625 262.761719 239.859375 263.347656 L 237.953125 264.492188 L 236.414062 262.097656 C 235.554688 260.800781 234.519531 259.609375 234.144531 259.464844 C 233.695312 259.304688 233.539062 259.035156 233.6875 258.773438 C 233.90625 258.53125 232.132812 255.617188 229.203125 251.515625 C 226.597656 247.765625 224.375 244.273438 224.277344 243.792969 C 224.132812 242.804688 224.890625 242.257812 226.121094 242.328125 Z M 206.726562 254.429688 C 207.191406 256.601562 210.277344 266.734375 210.914062 268.273438 C 212.234375 271.328125 213.070312 274.777344 212.621094 275.035156 C 211.632812 275.597656 208.492188 274.882812 207.957031 273.941406 C 207.648438 273.402344 206.929688 270.78125 206.351562 268.195312 C 205.792969 265.539062 204.921875 261.816406 204.445312 259.828125 C 203.539062 256.242188 203.785156 255.210938 205.734375 254.042969 C 206.292969 253.664062 206.601562 253.789062 206.726562 254.429688 Z M 210.851562 252.378906 C 211.296875 253.789062 216.359375 267.5 217.558594 270.441406 C 219.113281 274.433594 219.15625 274.40625 216.835938 274.714844 C 215.710938 274.824219 214.742188 274.898438 214.671875 274.878906 C 214.601562 274.859375 214.109375 273.472656 213.625 271.785156 C 213.140625 270.101562 212.066406 266.847656 211.222656 264.53125 C 210.382812 262.21875 209.199219 258.671875 208.582031 256.644531 L 207.460938 253 L 208.988281 252.132812 C 210.335938 251.367188 210.589844 251.398438 210.851562 252.378906 Z M 224.589844 258.242188 L 231.050781 269.605469 L 228.730469 270.746094 L 226.335938 271.871094 L 225.511719 269.902344 C 225.058594 268.792969 222.769531 264.03125 220.433594 259.296875 C 215.058594 248.382812 215.140625 248.632812 216.804688 247.6875 L 218.152344 246.921875 Z M 223.386719 245.253906 C 223.851562 245.761719 226.542969 249.757812 229.417969 254.1875 C 232.292969 258.617188 235.210938 263.019531 235.933594 263.976562 L 237.207031 265.6875 L 235.015625 267.171875 L 232.847656 268.582031 L 226.386719 257.21875 L 219.949219 245.898438 L 221.296875 245.132812 C 222.328125 244.546875 222.816406 244.566406 223.386719 245.253906 Z M 233.195312 242.644531 C 234.621094 244.210938 237.066406 247.042969 238.625 248.949219 C 240.183594 250.859375 242.429688 253.445312 243.632812 254.722656 C 244.835938 256 245.773438 257.132812 245.753906 257.203125 C 245.734375 257.273438 245.175781 258.066406 244.507812 258.980469 C 243.054688 260.816406 243.101562 260.792969 240.464844 257.414062 C 238.550781 254.878906 229.355469 243.523438 228.371094 242.417969 C 227.660156 241.691406 227.765625 241.453125 229.113281 240.6875 L 230.640625 239.820312 Z M 234.191406 238.332031 C 235.179688 238.1875 236.042969 238.765625 238.046875 240.71875 C 239.511719 242.144531 242.269531 244.796875 244.265625 246.636719 C 246.191406 248.453125 248.078125 250.414062 248.382812 250.953125 C 248.917969 251.894531 247.925781 254.957031 246.9375 255.519531 C 246.488281 255.773438 243.949219 253.292969 242 250.597656 C 241.003906 249.261719 233.871094 241.429688 232.242188 239.917969 C 231.488281 239.21875 232.171875 238.648438 234.191406 238.332031 Z M 204.515625 265.910156 L 206.503906 274.945312 L 203.992188 274.292969 L 201.410156 273.621094 L 200.421875 266.335938 C 199.511719 259.304688 199.519531 259.003906 200.785156 257.984375 C 201.515625 257.390625 202.183594 256.894531 202.300781 256.886719 C 202.414062 256.878906 203.417969 260.945312 204.515625 265.910156 Z M 245.699219 240.589844 L 251.453125 245.164062 L 250.710938 247.726562 L 249.988281 250.21875 L 243.335938 243.953125 C 239.65625 240.519531 236.628906 237.601562 236.578125 237.511719 C 236.503906 237.378906 237.246094 237.011719 238.175781 236.664062 C 239.902344 236.039062 240 236.101562 245.699219 240.589844 Z M 245.699219 240.589844 " fill-opacity="1" fill-rule="nonzero"/></g></g></g><g clip-path="url(#b8584d6de9)"><g clip-path="url(#6671dcce24)"><g clip-path="url(#82140831b7)"><path fill="#ffffff" d="M 67.496094 278.042969 C 66.90625 278.261719 66.152344 278.039062 65.636719 277.558594 C 32.40625 235.542969 43.882812 189.664062 44.011719 189.113281 C 44.234375 188.359375 45.066406 187.882812 45.964844 188.050781 C 46.867188 188.21875 47.34375 189.046875 47.027344 190.003906 C 46.992188 190.355469 35.8125 234.78125 68.257812 275.578125 C 68.828125 276.207031 68.714844 277.253906 68.085938 277.824219 C 67.9375 277.878906 67.789062 277.933594 67.496094 278.042969 Z M 67.496094 278.042969 " fill-opacity="1" fill-rule="nonzero"/></g></g></g><g fill="#ffffff" fill-opacity="1"><g transform="translate(62.682088, 176.826646)"><g><path d="M 3.421875 -13.78125 L 3.21875 -13.03125 L 2.90625 -12.34375 L 2.453125 -11.609375 L 2.125 -10.953125 L 0.984375 -9.3125 L -0.34375 -7.8125 L -2.28125 -6.375 L -4.40625 -5.125 L -8.25 -4.1875 L -10.640625 -4.15625 L -13.609375 -4.578125 L -16.9375 -5.734375 L -18.484375 -6.484375 L -20.5 -7.984375 L -21.46875 -9.015625 L -22.578125 -10.390625 L -23.765625 -12.453125 L -24.359375 -13.796875 L -25.109375 -17.0625 L -24.984375 -21.078125 L -24.40625 -23.5625 L -24.09375 -24.3125 L -23.875 -25.0625 L -21.75 -28.59375 L -19.4375 -30.9375 L -18.03125 -31.78125 L -17.171875 -32.046875 L -16.375 -32.4375 L -15.65625 -32.671875 L -14.90625 -32.96875 L -14.015625 -33.015625 L -13.25 -33.125 L -12.328125 -33.171875 L -11.59375 -32.71875 L -11.421875 -31.96875 L -11.578125 -30.734375 L -11.953125 -29.65625 L -12.078125 -28.84375 L -12.3125 -28.03125 L -12.390625 -27.296875 L -13.015625 -26.46875 L -13.953125 -25.875 L -14.65625 -25.59375 L -16.0625 -24.6875 L -16.625 -24.234375 L -17.078125 -23.5625 L -17.6875 -22.421875 L -18.171875 -20.734375 L -18.40625 -17.984375 L -18.0625 -16.78125 L -17.515625 -15.640625 L -16.609375 -14.4375 L -15.953125 -13.859375 L -14.65625 -12.953125 L -13.125 -12.328125 L -10.703125 -11.78125 L -9.78125 -11.703125 L -9.015625 -11.734375 L -8.40625 -11.890625 L -7.546875 -11.96875 L -5.953125 -12.546875 L -4.65625 -13.453125 L -3.625 -14.703125 L -2.78125 -16.03125 L -2.40625 -17.15625 L -2.046875 -19.28125 L -2.5 -20.84375 L -2.625 -21.484375 L -3.015625 -22.25 L -3.84375 -23.40625 L -4.53125 -23.96875 L -5.015625 -24.75 L -5.28125 -25.78125 L -5.0625 -26.546875 L -4.921875 -27.375 L -4.625 -28.140625 L -4.296875 -30.390625 L -3.59375 -31.078125 L -2.828125 -31.171875 L -0.03125 -29.4375 L 1.21875 -28.28125 L 2.203125 -27.09375 L 3.0625 -25.734375 L 4.03125 -23.46875 L 4.1875 -22.734375 L 4.28125 -21.828125 L 4.515625 -21.015625 L 4.46875 -18.5625 L 4.03125 -15.734375 Z M 3.421875 -13.78125 "/></g></g></g><g fill="#ffffff" fill-opacity="1"><g transform="translate(69.762118, 147.186197)"><g><path d="M -0.0625 -3.421875 L -13.984375 -9.75 L -14.71875 -10.015625 L -15.546875 -10.328125 L -16.890625 -11.078125 L -17.65625 -11.34375 L -18.328125 -11.734375 L -23.515625 -14.109375 L -24.1875 -14.8125 L -24.109375 -15.71875 L -23.90625 -16.484375 L -23.078125 -17.890625 L -22.90625 -18.703125 L -22.234375 -20.140625 L -21.453125 -20.6875 L -20.46875 -20.703125 L -19.78125 -20.34375 L -17.609375 -19.484375 L -16.15625 -18.734375 L -15.234375 -18.40625 L -2.6875 -12.609375 L -1.796875 -12.5625 L -1.15625 -13.171875 L -0.875 -13.984375 L -0.140625 -15.40625 L 0.0625 -16.125 L 0.546875 -16.78125 L 1.203125 -18.34375 L 1.65625 -19.0625 L 1.84375 -19.828125 L 2.125 -20.640625 L 2.875 -21.109375 L 4.140625 -20.9375 L 7.15625 -19.609375 L 8.125 -18.671875 L 8.1875 -17.796875 L 4.78125 -10.453125 L 4.484375 -9.625 L 4.03125 -8.953125 L 3.484375 -7.515625 L 2.734375 -6.09375 L 2.15625 -4.5 L 1.734375 -3.78125 L 1.03125 -3.25 Z M -0.0625 -3.421875 "/></g></g></g><g fill="#ffffff" fill-opacity="1"><g transform="translate(78.376206, 127.490319)"><g><path d="M 8.640625 -11.0625 L 7.828125 -10.0625 L 7.34375 -9.390625 L 6.140625 -8.296875 L 4.65625 -7.453125 L 4 -7.15625 L 3.234375 -6.71875 L 1.78125 -6.15625 L 1 -5.96875 L 0.25 -5.90625 L -1.5 -6.015625 L -3.015625 -6.296875 L -4.609375 -6.9375 L -7.390625 -8.640625 L -12.65625 -12.59375 L -13.328125 -12.984375 L -13.921875 -13.5625 L -18.625 -16.796875 L -19.109375 -17.25 L -19.90625 -17.828125 L -20.609375 -18.234375 L -20.921875 -19.109375 L -20.6875 -20 L -20.265625 -20.78125 L -19.125 -22.109375 L -18.75 -22.828125 L -18.296875 -23.453125 L -17.5 -23.921875 L -16.484375 -23.8125 L -15.46875 -23.1875 L -14.453125 -22.34375 L -13.90625 -22.0625 L -3.34375 -14.28125 L -1.265625 -13.09375 L -0.5 -12.859375 L 0.3125 -12.859375 L 1.109375 -13.09375 L 1.84375 -13.40625 L 2.546875 -14.046875 L 3.96875 -16.03125 L 4.390625 -17.5 L 4.390625 -18.375 L 3.984375 -19.203125 L 3.640625 -19.75 L 1.75 -21.46875 L -11.34375 -30.8125 L -11.796875 -31.6875 L -11.625 -32.625 L -10.53125 -33.9375 L -9.078125 -36.078125 L -8.328125 -36.625 L -7.3125 -36.5625 L -6.734375 -36 L -3.984375 -34.015625 L -3.421875 -33.703125 L -2.734375 -33.109375 L -2.0625 -32.71875 L 6.875 -26.28125 L 8.359375 -24.953125 L 9.515625 -23.65625 L 9.859375 -22.921875 L 10.375 -22.25 L 10.984375 -20.65625 L 11.234375 -19.078125 L 11.1875 -17.453125 L 10.953125 -15.796875 L 9.75 -12.734375 L 9.265625 -12.140625 Z M 8.640625 -11.0625 "/></g></g></g><g fill="#ffffff" fill-opacity="1"><g transform="translate(94.425664, 105.223354)"><g><path d="M 1.4375 -2.984375 L 0.859375 -3.515625 L -5.046875 -10.203125 L -5.96875 -11.046875 L -11.046875 -16.9375 L -12.28125 -18.15625 L -13.828125 -19.984375 L -14.34375 -20.5 L -14.890625 -21.171875 L -15.4375 -21.671875 L -16.03125 -22.34375 L -16.296875 -23.25 L -15.90625 -24.140625 L -12.1875 -27.375 L -11.75 -27.984375 L -10.421875 -28.90625 L -9.984375 -29.515625 L -6.78125 -32.234375 L -5.359375 -33.03125 L -4.671875 -33.296875 L -3.84375 -33.546875 L -3.046875 -33.703125 L -2.34375 -33.765625 L -1.609375 -33.859375 L -0.78125 -33.84375 L 1.46875 -33.34375 L 2.265625 -32.890625 L 3.484375 -32.015625 L 4.390625 -31.140625 L 5.3125 -30.078125 L 5.921875 -28.65625 L 6.390625 -26.953125 L 6.703125 -26.1875 L 7.625 -25.765625 L 8.515625 -25.765625 L 9.296875 -25.671875 L 10.953125 -24.90625 L 12.28125 -24.109375 L 14.421875 -21.609375 L 14.703125 -20.8125 L 15.03125 -20.0625 L 15.28125 -19.1875 L 15.46875 -17.328125 L 15.125 -15.265625 L 14.828125 -14.5 L 13.546875 -12.5 L 13.09375 -11.921875 L 10.09375 -8.953125 L 9.40625 -8.5 L 5.0625 -4.484375 L 4.078125 -3.765625 L 3.15625 -2.78125 L 2.25 -2.625 Z M -3.140625 -20.59375 L -0.875 -22.78125 L -0.265625 -23.875 L -0.140625 -24.640625 L -0.71875 -25.71875 L -1.625 -26.546875 L -2.296875 -26.828125 L -3 -26.640625 L -6.328125 -24.03125 L -6.578125 -23.140625 L -6.15625 -21.9375 L -5.1875 -20.9375 L -4.09375 -20.375 Z M 4.046875 -12.40625 L 6.4375 -14.4375 L 7.96875 -16.09375 L 8.203125 -16.890625 L 8.140625 -17.609375 L 7.5 -18.640625 L 6.640625 -19.21875 L 5.859375 -19.5 L 5.140625 -19.25 L 2.03125 -16.96875 L 1.46875 -16.328125 L 0.796875 -15.90625 L 0.65625 -15.046875 L 0.828125 -14.28125 L 2.375 -12.375 L 3.3125 -12.109375 Z M 4.046875 -12.40625 "/></g></g></g><g fill="#ffffff" fill-opacity="1"><g transform="translate(114.170191, 87.67401)"><g><path d="M 12.28125 -7.125 L 11.546875 -6.765625 L 10.875 -6.28125 L 10.046875 -5.859375 L 9.296875 -5.59375 L 7.921875 -4.625 L 7.265625 -4.296875 L 6.546875 -3.78125 L 4 -2.296875 L 2.671875 -2.140625 L 1.828125 -2.9375 L 1.296875 -3.65625 L -0.046875 -6.140625 L -0.5625 -6.78125 L -0.875 -7.5 L -4.21875 -13.203125 L -4.6875 -13.765625 L -6.359375 -16.65625 L -6.6875 -17.375 L -7.21875 -18.0625 L -9.1875 -21.546875 L -9.75 -22.25 L -10.484375 -23.75 L -11.34375 -25.03125 L -11.40625 -26 L -10.828125 -26.734375 L -10.109375 -27.09375 L -9.453125 -27.59375 L -8.765625 -27.890625 L -8.1875 -28.4375 L -7.421875 -28.734375 L -4.578125 -30.515625 L -3.84375 -30.859375 L -3.28125 -31.25 L -2.53125 -31.578125 L -1.796875 -32.125 L 1.03125 -33.828125 L 1.734375 -34.0625 L 2.46875 -34.5 L 3.34375 -34.625 L 4.078125 -34.15625 L 5.375 -32.09375 L 5.75 -31.359375 L 6.203125 -30.6875 L 6.234375 -29.84375 L 5.734375 -29 L 5.109375 -28.5625 L 0.03125 -25.671875 L -0.546875 -25.140625 L -1.234375 -24.765625 L -1.859375 -24.03125 L -1.765625 -23.171875 L -1.125 -22.078125 L -0.203125 -21.171875 L 0.734375 -21.296875 L 2.71875 -22.5625 L 4.265625 -23.328125 L 4.96875 -23.84375 L 7.03125 -25.0625 L 8.109375 -25.09375 L 9.03125 -24.3125 L 10.796875 -21.078125 L 10.984375 -20.25 L 10.4375 -19.53125 L 9.609375 -19.09375 L 8.9375 -18.625 L 7.484375 -17.78125 L 6.203125 -16.9375 L 5 -16.375 L 3.96875 -15.703125 L 3.578125 -14.953125 L 3.703125 -14.046875 L 5.015625 -11.828125 L 5.640625 -11.359375 L 6.59375 -11.4375 L 7.328125 -11.953125 L 8.0625 -12.25 L 8.8125 -12.75 L 9.546875 -13.09375 L 10.625 -13.90625 L 12.4375 -14.953125 L 13.171875 -15.234375 L 13.9375 -15.78125 L 14.859375 -15.90625 L 15.671875 -15.421875 L 17.765625 -11.875 L 17.8125 -10.921875 L 17.265625 -10.15625 Z M 12.28125 -7.125 "/></g></g></g><g fill="#ffffff" fill-opacity="1"><g transform="translate(134.673473, 76.06257)"><g/></g></g><g fill="#ffffff" fill-opacity="1"><g transform="translate(144.583047, 71.11381)"><g><path d="M 12.25 -2.765625 L 10.578125 -2.546875 L 9.828125 -2.234375 L 4.953125 -1.171875 L 4.1875 -0.90625 L 3.296875 -1.109375 L 2.625 -2.25 L 2.140625 -4.28125 L 1.875 -5.015625 L -3.328125 -27.203125 L -3.171875 -28.140625 L -2.375 -28.6875 L -1.59375 -28.84375 L -0.890625 -29.140625 L 8.1875 -31.1875 L 10.609375 -31.390625 L 11.484375 -31.390625 L 12.234375 -31.234375 L 13.0625 -31.265625 L 13.921875 -31.015625 L 16.265625 -30.125 L 18.921875 -28.28125 L 20.78125 -26.5 L 21.265625 -25.8125 L 22.140625 -24.4375 L 23.421875 -21.421875 L 23.75 -20.28125 L 23.9375 -18.984375 L 24.140625 -18.140625 L 24.203125 -17.328125 L 24.125 -16.609375 L 24.140625 -15.71875 L 24.140625 -14.921875 L 23.859375 -13.234375 L 23.546875 -12.46875 L 23.328125 -11.609375 L 21.984375 -8.625 L 19.75 -6.21875 L 18.0625 -4.984375 L 16.5 -4.3125 L 15.4375 -3.703125 L 14.625 -3.5 L 13.453125 -3.046875 Z M 10.59375 -9.25 L 11.796875 -9.578125 L 13.453125 -10.171875 L 14.5 -10.8125 L 15.640625 -12 L 16.734375 -14.015625 L 17.046875 -15.640625 L 16.8125 -18.515625 L 15.34375 -21.875 L 14.796875 -22.484375 L 14.25 -23.0625 L 13.484375 -23.640625 L 12.75 -24.0625 L 12.0625 -24.34375 L 11.265625 -24.53125 L 9.609375 -24.625 L 8.421875 -24.453125 L 6.765625 -24.03125 L 5.5625 -23.453125 L 5.390625 -22.453125 L 5.46875 -21.75 L 6.84375 -16.28125 L 7.140625 -14.265625 L 7.765625 -12.34375 L 8.109375 -10.703125 L 8.3125 -10.046875 L 8.828125 -9.375 L 9.828125 -9.171875 Z M 10.59375 -9.25 "/></g></g></g><g fill="#ffffff" fill-opacity="1"><g transform="translate(172.880826, 64.693989)"><g><path d="M 14.203125 -0.234375 L 13.375 -0.28125 L 12.5625 -0.1875 L 11.625 -0.21875 L 10.859375 -0.34375 L 9.171875 -0.1875 L 8.4375 -0.203125 L 7.546875 -0.109375 L 4.609375 -0.0625 L 3.375 -0.5625 L 3.015625 -1.671875 L 2.921875 -2.5625 L 2.96875 -5.375 L 2.828125 -6.203125 L 2.890625 -6.96875 L 2.75 -13.578125 L 2.625 -14.3125 L 2.578125 -17.65625 L 2.640625 -18.4375 L 2.5 -19.296875 L 2.484375 -23.296875 L 2.328125 -24.1875 L 2.421875 -25.84375 L 2.296875 -27.390625 L 2.71875 -28.25 L 3.5625 -28.609375 L 4.390625 -28.578125 L 5.203125 -28.6875 L 5.953125 -28.625 L 6.703125 -28.8125 L 7.515625 -28.703125 L 10.875 -28.875 L 11.6875 -28.8125 L 12.375 -28.875 L 13.203125 -28.796875 L 14.09375 -28.921875 L 17.390625 -29.03125 L 18.140625 -28.890625 L 19 -28.90625 L 19.8125 -28.609375 L 20.203125 -27.828125 L 20.34375 -25.40625 L 20.328125 -24.578125 L 20.390625 -23.78125 L 20 -23.03125 L 19.15625 -22.515625 L 18.390625 -22.453125 L 12.546875 -22.40625 L 11.78125 -22.21875 L 11 -22.234375 L 10.09375 -21.890625 L 9.765625 -21.09375 L 9.796875 -19.828125 L 10.15625 -18.578125 L 11.015625 -18.234375 L 13.375 -18.375 L 15.09375 -18.296875 L 15.953125 -18.390625 L 18.359375 -18.453125 L 19.3125 -17.96875 L 19.75 -16.8125 L 19.71875 -13.140625 L 19.453125 -12.328125 L 18.65625 -11.96875 L 17.703125 -12 L 16.890625 -11.890625 L 15.21875 -11.890625 L 13.671875 -11.765625 L 12.359375 -11.859375 L 11.140625 -11.78125 L 10.40625 -11.328125 L 10.078125 -10.46875 L 10.140625 -7.890625 L 10.46875 -7.15625 L 11.34375 -6.765625 L 12.25 -6.875 L 13.015625 -6.78125 L 13.921875 -6.828125 L 14.734375 -6.78125 L 16.078125 -6.96875 L 18.15625 -6.984375 L 18.9375 -6.890625 L 19.875 -6.984375 L 20.734375 -6.640625 L 21.21875 -5.828125 L 21.3125 -1.71875 L 20.875 -0.84375 L 20.03125 -0.453125 Z M 14.203125 -0.234375 "/></g></g></g><g fill="#ffffff" fill-opacity="1"><g transform="translate(196.443816, 64.549533)"><g/></g></g><g fill="#ffffff" fill-opacity="1"><g transform="translate(207.462293, 64.963757)"><g><path d="M 13.546875 4.265625 L 12.8125 4 L 12.15625 3.65625 L 11.453125 3.15625 L 10.796875 2.796875 L 9.234375 1.546875 L 7.828125 0.140625 L 6.5 -1.890625 L 5.390625 -4.078125 L 4.6875 -7.96875 L 4.8125 -10.359375 L 5.390625 -13.3125 L 6.75 -16.5625 L 7.609375 -18.046875 L 9.234375 -19.96875 L 10.3125 -20.875 L 11.765625 -21.890625 L 13.875 -22.9375 L 15.265625 -23.46875 L 18.578125 -24 L 22.578125 -23.640625 L 25 -22.921875 L 25.734375 -22.5625 L 26.484375 -22.296875 L 29.875 -19.96875 L 32.046875 -17.515625 L 32.8125 -16.0625 L 33.03125 -15.171875 L 33.390625 -14.34375 L 33.5625 -13.625 L 33.828125 -12.875 L 33.796875 -11.96875 L 33.875 -11.1875 L 33.859375 -10.265625 L 33.375 -9.5625 L 32.609375 -9.4375 L 31.390625 -9.65625 L 30.328125 -10.109375 L 29.53125 -10.28125 L 28.734375 -10.5625 L 27.984375 -10.703125 L 27.21875 -11.375 L 26.6875 -12.34375 L 26.4375 -13.0625 L 25.625 -14.53125 L 25.1875 -15.125 L 24.5625 -15.609375 L 23.453125 -16.296875 L 21.796875 -16.859375 L 19.078125 -17.265625 L 17.859375 -17 L 16.6875 -16.515625 L 15.4375 -15.703125 L 14.828125 -15.078125 L 13.828125 -13.84375 L 13.09375 -12.34375 L 12.40625 -9.953125 L 12.28125 -9.046875 L 12.265625 -8.28125 L 12.375 -7.671875 L 12.421875 -6.8125 L 12.890625 -5.171875 L 13.71875 -3.828125 L 14.90625 -2.71875 L 16.15625 -1.796875 L 17.265625 -1.359375 L 19.359375 -0.875 L 20.953125 -1.21875 L 21.609375 -1.296875 L 22.40625 -1.65625 L 23.59375 -2.40625 L 24.203125 -3.046875 L 25.015625 -3.5 L 26.046875 -3.703125 L 26.8125 -3.4375 L 27.625 -3.25 L 28.375 -2.890625 L 30.609375 -2.421875 L 31.234375 -1.6875 L 31.265625 -0.921875 L 29.390625 1.765625 L 28.140625 2.953125 L 26.921875 3.859375 L 25.5 4.640625 L 23.1875 5.453125 L 22.421875 5.578125 L 21.53125 5.625 L 20.703125 5.796875 L 18.265625 5.59375 L 15.453125 5 Z M 13.546875 4.265625 "/></g></g></g><g fill="#ffffff" fill-opacity="1"><g transform="translate(236.694932, 74.036225)"><g><path d="M 12.0625 6.421875 L 11.421875 5.859375 L 9.65625 4.9375 L 8.484375 4.53125 L 7.125 3.625 L 6.375 3.34375 L 5.234375 2.78125 L 4.234375 2.109375 L 3.515625 1.8125 L 2.828125 1.46875 L 2.265625 0.765625 L 2.40625 -0.40625 L 4.234375 -3.6875 L 4.984375 -4.125 L 7.75 -3.625 L 8.703125 -4.5 L 14.34375 -15.671875 L 14.546875 -16.8125 L 14.0625 -17.609375 L 13.34375 -17.984375 L 12.75 -18.8125 L 12.734375 -19.734375 L 13.15625 -20.390625 L 14.4375 -23.125 L 15.25 -23.8125 L 16.171875 -23.796875 L 17 -23.375 L 17.625 -22.90625 L 20.59375 -21.375 L 21.40625 -21.125 L 22 -20.71875 L 26.390625 -18.453125 L 26.84375 -17.703125 L 26.921875 -16.8125 L 25.03125 -13.234375 L 24.359375 -12.828125 L 23.453125 -12.953125 L 22.671875 -13.21875 L 21.703125 -13.296875 L 21.03125 -12.59375 L 19 -9.015625 L 17.796875 -6.328125 L 17.296875 -5.5625 L 15.265625 -1.5625 L 14.8125 -0.921875 L 14.8125 0.140625 L 15.53125 0.875 L 16.28125 1.25 L 16.890625 2.0625 L 16.953125 2.984375 L 15.09375 6.578125 L 14.390625 7.0625 L 13.5625 7.09375 Z M 12.0625 6.421875 "/></g></g></g><g fill="#ffffff" fill-opacity="1"><g transform="translate(253.150471, 82.307568)"><g><path d="M 32.3125 -15.53125 L 31.65625 -15.890625 L 30.46875 -16.875 L 30.015625 -17.609375 L 29.984375 -18.140625 L 30.078125 -18.671875 L 29.9375 -19.15625 L 29.484375 -19.59375 L 27.921875 -19.1875 L 26.59375 -19.609375 L 26.25 -20.03125 L 25.78125 -20.21875 L 25.234375 -20.703125 L 24.90625 -21.046875 L 24.234375 -21.484375 L 23.421875 -22.09375 L 23.21875 -22.609375 L 26.703125 -23.6875 L 27.1875 -23.65625 L 27.671875 -23.859375 L 30.4375 -24.421875 L 31.3125 -24.234375 L 31.71875 -24.03125 L 32.484375 -23.453125 L 32.78125 -23.125 L 33.28125 -22.859375 L 33.609375 -22.46875 L 34 -22.171875 L 34.375 -21.453125 L 34.453125 -20.96875 L 34.453125 -20.453125 L 34.5625 -19.546875 L 34.5 -18.578125 L 34.703125 -18.171875 L 34.6875 -14.0625 L 34.046875 -14.015625 L 33.640625 -14.3125 L 32.921875 -14.96875 Z M 11.28125 8.625 L 10.671875 8.0625 L 9.96875 7.640625 L 9.25 7.046875 L 8.734375 6.453125 L 7.296875 5.53125 L 6.75 5.0625 L 5.984375 4.59375 L 3.65625 2.796875 L 3.015625 1.640625 L 3.40625 0.5625 L 3.875 -0.1875 L 5.65625 -2.375 L 6.0625 -3.09375 L 6.59375 -3.671875 L 10.578125 -8.9375 L 10.9375 -9.59375 L 12.953125 -12.25 L 13.484375 -12.828125 L 13.921875 -13.578125 L 16.390625 -16.71875 L 16.8125 -17.515625 L 17.9375 -18.765625 L 18.796875 -20.0625 L 19.65625 -20.5 L 20.546875 -20.21875 L 21.171875 -19.703125 L 21.890625 -19.28125 L 22.421875 -18.765625 L 23.140625 -18.453125 L 23.703125 -17.859375 L 26.4375 -15.90625 L 27.046875 -15.34375 L 27.625 -14.984375 L 28.21875 -14.421875 L 29 -13.953125 L 31.65625 -11.984375 L 32.140625 -11.421875 L 32.828125 -10.90625 L 33.28125 -10.171875 L 33.109375 -9.3125 L 31.703125 -7.3125 L 31.1875 -6.6875 L 30.71875 -6 L 29.953125 -5.65625 L 28.984375 -5.796875 L 28.34375 -6.203125 L 23.71875 -9.796875 L 23.015625 -10.109375 L 22.421875 -10.625 L 21.5 -10.90625 L 20.734375 -10.5 L 19.96875 -9.484375 L 19.484375 -8.265625 L 19.953125 -7.46875 L 21.890625 -6.125 L 23.1875 -4.984375 L 23.921875 -4.53125 L 25.84375 -3.078125 L 26.28125 -2.109375 L 25.921875 -0.953125 L 23.609375 1.921875 L 22.890625 2.40625 L 22.046875 2.171875 L 21.3125 1.5625 L 20.625 1.140625 L 19.296875 0.109375 L 18.015625 -0.765625 L 17.046875 -1.640625 L 16.046875 -2.34375 L 15.1875 -2.421875 L 14.390625 -1.953125 L 12.84375 0.109375 L 12.65625 0.875 L 13.09375 1.71875 L 13.859375 2.203125 L 14.40625 2.75 L 15.15625 3.265625 L 15.75 3.8125 L 16.921875 4.5 L 18.5625 5.78125 L 19.109375 6.34375 L 19.90625 6.84375 L 20.375 7.65625 L 20.25 8.578125 L 17.78125 11.859375 L 16.90625 12.28125 L 15.984375 12.0625 Z M 11.28125 8.625 "/></g></g></g><g fill="#ffffff" fill-opacity="1"><g transform="translate(271.62775, 95.609795)"><g><path d="M 16.296875 17.703125 L 16.3125 16.90625 L 16.5 15.3125 L 17.109375 6.4375 L 16.984375 5.609375 L 17.09375 4.8125 L 17.296875 0.796875 L 17.46875 -0.046875 L 17.265625 -0.59375 L 16.578125 -0.359375 L 15.890625 0.140625 L 8.078125 6.859375 L 6.859375 7.390625 L 6.015625 7.046875 L 5.421875 6.421875 L 4.46875 5.140625 L 3.828125 4.515625 L 2.78125 3.203125 L 2.4375 2.375 L 2.78125 1.578125 L 5.3125 -0.71875 L 5.953125 -1.171875 L 10.9375 -5.625 L 11.5625 -5.984375 L 12.75 -7.140625 L 13.3125 -7.578125 L 22.640625 -15.6875 L 23.46875 -15.90625 L 24.390625 -15.46875 L 24.96875 -14.359375 L 25.21875 -13.34375 L 25.25 -12.546875 L 24.40625 -1.15625 L 24.484375 0.28125 L 24.1875 4.375 L 24.375 5.015625 L 25.046875 4.75 L 30.609375 0.015625 L 31.234375 -0.625 L 32.609375 -1.65625 L 33.03125 -2.1875 L 33.71875 -2.703125 L 34.625 -2.921875 L 35.484375 -2.625 L 38.84375 1.15625 L 39.046875 2.0625 L 38.6875 2.90625 L 34.484375 6.71875 L 33.671875 7.265625 L 30.625 9.921875 L 30.171875 10.46875 L 18.890625 20.171875 L 18.015625 20.40625 L 17.203125 19.90625 L 16.546875 18.96875 Z M 16.296875 17.703125 "/></g></g></g><g fill="#ffffff" fill-opacity="1"><g transform="translate(291.277764, 117.994891)"><g><path d="M 6.21875 12.78125 L 5.90625 12.046875 L 5.703125 11.34375 L 5.59375 10.46875 L 5.40625 9.75 L 5.234375 7.765625 L 5.28125 5.765625 L 5.84375 3.421875 L 6.65625 1.09375 L 9.015625 -2.078125 L 10.8125 -3.65625 L 13.359375 -5.234375 L 16.65625 -6.484375 L 18.328125 -6.890625 L 20.84375 -7.046875 L 22.25 -6.890625 L 23.984375 -6.546875 L 26.203125 -5.703125 L 27.53125 -5.078125 L 30.203125 -3.046875 L 32.6875 0.109375 L 33.8125 2.375 L 34.078125 3.15625 L 34.40625 3.875 L 35.046875 7.9375 L 34.75 11.203125 L 34.234375 12.765625 L 33.734375 13.53125 L 33.390625 14.34375 L 32.984375 14.96875 L 32.609375 15.6875 L 31.953125 16.28125 L 31.4375 16.875 L 30.734375 17.515625 L 29.890625 17.625 L 29.296875 17.15625 L 28.609375 16.125 L 28.203125 15.046875 L 27.78125 14.34375 L 27.4375 13.5625 L 27.03125 12.953125 L 26.984375 11.921875 L 27.3125 10.875 L 27.65625 10.203125 L 28.1875 8.59375 L 28.3125 7.890625 L 28.21875 7.09375 L 27.96875 5.8125 L 27.25 4.203125 L 25.65625 1.953125 L 24.609375 1.265625 L 23.46875 0.75 L 22 0.390625 L 21.125 0.375 L 19.5625 0.515625 L 17.96875 1.015625 L 15.75 2.15625 L 15.015625 2.6875 L 14.453125 3.1875 L 14.078125 3.703125 L 13.484375 4.3125 L 12.625 5.796875 L 12.21875 7.328125 L 12.234375 8.921875 L 12.4375 10.484375 L 12.875 11.578125 L 13.96875 13.453125 L 15.3125 14.359375 L 15.8125 14.796875 L 16.609375 15.109375 L 17.984375 15.453125 L 18.859375 15.453125 L 19.734375 15.75 L 20.609375 16.359375 L 20.9375 17.09375 L 21.359375 17.8125 L 21.625 18.59375 L 22.828125 20.53125 L 22.71875 21.5 L 22.1875 22.0625 L 18.9375 22.546875 L 17.234375 22.453125 L 15.71875 22.1875 L 14.1875 21.6875 L 11.984375 20.5625 L 11.390625 20.109375 L 10.75 19.46875 L 10.046875 19.015625 L 8.5 17.09375 L 7.015625 14.640625 Z M 6.21875 12.78125 "/></g></g></g><g fill="#ffffff" fill-opacity="1"><g transform="translate(304.808676, 145.451979)"><g><path d="M 3.640625 13.1875 L 3.609375 12.328125 L 3.0625 10.421875 L 2.546875 9.28125 L 2.265625 7.671875 L 1.953125 6.921875 L 1.5625 5.703125 L 1.390625 4.53125 L 1.09375 3.796875 L 0.890625 3.0625 L 1 2.171875 L 1.953125 1.46875 L 5.59375 0.546875 L 6.421875 0.78125 L 7.953125 3.140625 L 9.265625 3.234375 L 21.25 -0.375 L 22.203125 -1.03125 L 22.453125 -1.90625 L 22.234375 -2.6875 L 22.421875 -3.6875 L 23.078125 -4.34375 L 23.84375 -4.484375 L 26.703125 -5.4375 L 27.765625 -5.328125 L 28.390625 -4.65625 L 28.65625 -3.75 L 28.734375 -2.96875 L 29.671875 0.25 L 30.046875 0.984375 L 30.171875 1.71875 L 31.546875 6.453125 L 31.3125 7.28125 L 30.71875 7.96875 L 26.8125 9.046875 L 26.078125 8.84375 L 25.546875 8.109375 L 25.1875 7.359375 L 24.578125 6.609375 L 23.59375 6.578125 L 19.625 7.578125 L 16.828125 8.546875 L 15.9375 8.734375 L 11.640625 10 L 10.875 10.109375 L 10.09375 10.84375 L 10.0625 11.875 L 10.296875 12.6875 L 10.125 13.6875 L 9.5 14.375 L 5.609375 15.5 L 4.765625 15.3125 L 4.171875 14.703125 Z M 3.640625 13.1875 "/></g></g></g><g fill="#ffffff" fill-opacity="1"><g transform="translate(310.399189, 162.75339)"><g><path d="M 2.140625 23.953125 L 2.140625 23.125 L 2.453125 22.15625 L 3 21.265625 L 3.703125 20.96875 L 4.4375 20.515625 L 5.015625 19.703125 L 5.375 18.765625 L 5.1875 17.875 L 5.1875 17.140625 L 4.78125 13.15625 L 4.84375 12.421875 L 4.515625 10.71875 L 4.5625 9.953125 L 4.046875 9.125 L 3.1875 8.4375 L 1.796875 7.828125 L 0.984375 7.125 L 0.625 6.203125 L 0.3125 3.9375 L 0.34375 3.125 L 0.09375 1.546875 L 0.265625 0.71875 L 1.265625 0.421875 L 2.109375 0.59375 L 3.796875 1.25 L 4.5625 1.390625 L 5.171875 1.78125 L 6.84375 2.234375 L 8.21875 2.84375 L 9.0625 3.046875 L 9.6875 3.40625 L 10.609375 3.578125 L 19.6875 6.90625 L 20.453125 7.09375 L 21.25 7.453125 L 22.09375 7.578125 L 22.734375 7.96875 L 26.625 9.265625 L 27.234375 9.5625 L 28.078125 9.78125 L 28.78125 10.078125 L 29.546875 10.734375 L 30.125 12.015625 L 29.828125 13.390625 L 29.15625 14.125 L 27.8125 15.046875 L 27.109375 15.34375 L 26.421875 15.859375 L 25.625 16.1875 L 20.234375 19.390625 L 19.40625 19.75 L 18 20.75 L 17.359375 21.0625 L 16.78125 21.46875 L 15.90625 21.796875 L 15.171875 22.28125 L 14.59375 22.734375 L 11.0625 24.609375 L 9.65625 25.578125 L 8.203125 26.28125 L 6.1875 27.578125 L 4.75 28.3125 L 3.859375 28.6875 L 2.859375 28.65625 L 2.546875 27.53125 L 2.390625 26.28125 L 2.40625 25.515625 Z M 11.390625 13.828125 L 11.59375 15.4375 L 11.96875 16 L 12.71875 16.109375 L 17.015625 13.796875 L 17.296875 13.203125 L 16.875 12.78125 L 12.3125 11.28125 L 11.53125 11.390625 L 11.3125 12.0625 L 11.484375 13 Z M 11.390625 13.828125 "/></g></g></g><g fill="#ffffff" fill-opacity="1"><g transform="translate(312.949084, 191.516468)"><g><path d="M -1.71875 10.84375 L -1.234375 9.203125 L -0.46875 7.703125 L -0.125 6.9375 L 0.3125 6.21875 L 1.015625 5.71875 L 2.078125 4.421875 L 2.734375 3.96875 L 3.34375 3.46875 L 4.9375 2.890625 L 5.703125 2.734375 L 6.53125 2.65625 L 7.34375 2.65625 L 8.171875 3.078125 L 8.40625 3.859375 L 8.171875 6.984375 L 7.96875 7.734375 L 7.953125 8.46875 L 7.53125 9.234375 L 5.890625 10.40625 L 5.359375 11.03125 L 4.921875 11.671875 L 4.453125 13.734375 L 4.484375 14.453125 L 4.421875 15.71875 L 4.859375 17.171875 L 5.375 17.78125 L 6.359375 18.21875 L 7.40625 18.109375 L 7.953125 17.640625 L 8.828125 16.265625 L 10.328125 10.015625 L 11.015625 8.609375 L 12.84375 6.046875 L 14.890625 4.78125 L 16.40625 4.3125 L 18.0625 4.21875 L 19.3125 4.34375 L 21.28125 4.71875 L 23.421875 5.734375 L 25.140625 7.375 L 26.25 9.484375 L 26.875 10.953125 L 27.171875 12.5625 L 27.203125 13.296875 L 27.15625 14.125 L 27.265625 15.03125 L 26.796875 18.15625 L 26.28125 19.6875 L 25.21875 21.859375 L 23.015625 24.28125 L 21.703125 25.046875 L 19.453125 25.90625 L 18.6875 25.890625 L 17.890625 25.953125 L 17.25 25.5625 L 16.765625 24.703125 L 16.9375 23.984375 L 17.03125 23.1875 L 17.265625 22.09375 L 17.328125 20.171875 L 17.96875 19.359375 L 18.859375 18.84375 L 19.515625 18.234375 L 20.078125 17.5625 L 20.375 16.859375 L 20.71875 15.578125 L 20.828125 14.28125 L 20.765625 13.546875 L 20.46875 12.84375 L 20.09375 12.171875 L 19.640625 11.625 L 18.5625 11.28125 L 17.34375 11.3125 L 16.6875 11.828125 L 15.765625 13.21875 L 15.0625 15.328125 L 14.921875 16.515625 L 14.65625 17.3125 L 14.5 18.140625 L 14.28125 18.9375 L 12.921875 21.953125 L 12.390625 22.640625 L 11.984375 23.234375 L 11.234375 23.890625 L 9.90625 24.78125 L 9.1875 25.15625 L 6.765625 25.46875 L 5.453125 25.390625 L 3.46875 24.90625 L 2.796875 24.5625 L 2.09375 24.21875 L 1.28125 23.65625 L 0.75 23.203125 L -0.3125 21.875 L -1.625 18.921875 L -1.890625 18.109375 L -1.890625 17.359375 L -2.109375 16.515625 L -2.125 15.6875 L -2.21875 14.859375 L -2.21875 14.03125 Z M -1.71875 10.84375 "/></g></g></g><g fill="#ffffff" fill-opacity="1"><g transform="translate(309.156197, 217.324352)"><g/></g></g><g fill="#ffffff" fill-opacity="1"><g transform="translate(74.32416, 293.764859)"><g><path d="M 9.859375 9.46875 L 9.390625 8.765625 L 7.9375 7.40625 L 6.9375 6.6875 L 5.859375 5.453125 L 5.203125 4.953125 L 4.265625 4.125 L 3.5 3.1875 L 2.875 2.703125 L 2.328125 2.1875 L 1.96875 1.34375 L 2.421875 0.28125 L 5.09375 -2.375 L 5.921875 -2.609375 L 8.4375 -1.359375 L 9.625 -1.9375 L 18.09375 -11.15625 L 18.59375 -12.203125 L 18.34375 -13.09375 L 17.765625 -13.640625 L 17.40625 -14.59375 L 17.65625 -15.484375 L 18.25 -16.015625 L 20.21875 -18.28125 L 21.1875 -18.734375 L 22.0625 -18.46875 L 22.734375 -17.828125 L 23.21875 -17.203125 L 25.65625 -14.90625 L 26.359375 -14.46875 L 26.84375 -13.90625 L 30.4375 -10.53125 L 30.65625 -9.703125 L 30.5 -8.796875 L 27.6875 -5.875 L 26.9375 -5.6875 L 26.109375 -6.03125 L 25.4375 -6.5 L 24.515625 -6.859375 L 23.671875 -6.359375 L 20.734375 -3.46875 L 18.84375 -1.21875 L 18.171875 -0.609375 L 15.109375 2.671875 L 14.5 3.15625 L 14.203125 4.171875 L 14.703125 5.09375 L 15.328125 5.671875 L 15.6875 6.609375 L 15.5 7.5 L 12.734375 10.453125 L 11.90625 10.75 L 11.09375 10.53125 Z M 9.859375 9.46875 "/></g></g></g><g fill="#ffffff" fill-opacity="1"><g transform="translate(90.996738, 309.187647)"><g><path d="M 3.140625 0.703125 L 9.984375 -9.4375 L 10.578125 -10.15625 L 10.953125 -10.859375 L 11.421875 -11.453125 L 11.90625 -12.03125 L 12.375 -12.84375 L 12.84375 -13.40625 L 13.28125 -14.140625 L 13.609375 -14.765625 L 16.328125 -18.4375 L 16.921875 -19.515625 L 17.953125 -20.828125 L 18.578125 -21.296875 L 19.578125 -21.171875 L 20.484375 -20.484375 L 21.25 -20.078125 L 22.96875 -18.90625 L 23.515625 -18.40625 L 24.828125 -17.515625 L 25.9375 -16.890625 L 26.578125 -16.390625 L 27.640625 -15.765625 L 28.203125 -15.296875 L 29.5625 -14.453125 L 30.21875 -13.84375 L 32.28125 -12.515625 L 32.59375 -11.75 L 32.328125 -10.46875 L 31.375 -9.234375 L 30.28125 -7.46875 L 29.453125 -7.015625 L 28.546875 -7.140625 L 26.0625 -8.96875 L 25.28125 -9.375 L 24.640625 -9.859375 L 24 -10.25 L 23.09375 -10.984375 L 22.015625 -11.71875 L 21.078125 -11.703125 L 20.265625 -11.265625 L 19.296875 -9.703125 L 18.796875 -9.109375 L 18.15625 -8.15625 L 18.046875 -7.203125 L 18.53125 -6.46875 L 19.296875 -6 L 20.5 -4.9375 L 22.375 -3.859375 L 23.96875 -2.65625 L 24.5 -1.90625 L 24.375 -1 L 22.375 2.015625 L 21.328125 2.84375 L 20.390625 2.6875 L 18.953125 1.828125 L 18.328125 1.28125 L 17.59375 0.828125 L 16.96875 0.3125 L 16.1875 -0.015625 L 15.59375 -0.625 L 14.796875 -1.078125 L 13.921875 -1.234375 L 13.15625 -0.765625 L 10.75 2.828125 L 10.25 3.4375 L 9.625 4.59375 L 8.515625 5.328125 L 7.609375 5.140625 L 5.828125 4.125 L 3.53125 2.40625 L 3.03125 1.578125 Z M 3.140625 0.703125 "/></g></g></g><g fill="#ffffff" fill-opacity="1"><g transform="translate(113.297568, 324.129907)"><g><path d="M 4.96875 2.3125 L 4.296875 1.984375 L 3.296875 1.09375 L 3.203125 0.21875 L 6.28125 -6.6875 L 6.515625 -7.421875 L 10.796875 -17.078125 L 11.03125 -17.84375 L 11.8125 -19.25 L 13.78125 -23.796875 L 14.375 -24.25 L 15.34375 -24.328125 L 16.1875 -24.125 L 16.8125 -23.71875 L 17.625 -23.328125 L 20 -22.453125 L 20.703125 -22.015625 L 22.96875 -20.984375 L 23.828125 -20.734375 L 25.046875 -20.234375 L 26.15625 -19.71875 L 26.765625 -19.125 L 27.53125 -18.796875 L 28.046875 -18.25 L 29.34375 -17.15625 L 30.21875 -15.78125 L 31.265625 -13.59375 L 31.625 -11.96875 L 31.78125 -10.390625 L 31.625 -8.8125 L 31.359375 -7.953125 L 31.25 -7.234375 L 29.828125 -4.203125 L 29.328125 -3.703125 L 28.859375 -2.9375 L 27.59375 -1.765625 L 26.265625 -0.90625 L 25.546875 -0.546875 L 24.84375 -0.28125 L 24.078125 0.078125 L 23.296875 0.28125 L 19.125 0.15625 L 15.15625 -1.234375 L 14.4375 -1.734375 L 13.578125 -2.015625 L 12.53125 -1.984375 L 11.90625 -1.46875 L 11.5625 -0.59375 L 11.1875 0.09375 L 10.640625 1.515625 L 10.25 2.3125 L 9.96875 3.0625 L 9.28125 3.71875 L 8.375 3.671875 L 7.484375 3.375 L 6.828125 3.046875 Z M 16.171875 -8 L 17.078125 -7.6875 L 18.984375 -6.828125 L 20.203125 -6.453125 L 20.890625 -6.375 L 21.6875 -6.578125 L 22.421875 -6.953125 L 23.015625 -7.421875 L 23.59375 -7.96875 L 24.09375 -8.953125 L 24.5 -10.03125 L 24.6875 -10.75 L 24.625 -11.65625 L 24.359375 -12.34375 L 23.9375 -13.03125 L 23.328125 -13.6875 L 19.484375 -15.5 L 18.546875 -15.46875 L 17.859375 -14.9375 L 17.1875 -13.40625 L 16.78125 -12.640625 L 15.5625 -9.578125 L 15.609375 -8.78125 Z M 16.171875 -8 "/></g></g></g><g fill="#ffffff" fill-opacity="1"><g transform="translate(142.545136, 336.484503)"><g><path d="M 3.34375 -1.015625 L 4.578125 -6.90625 L 4.671875 -7.734375 L 5.390625 -10.953125 L 5.625 -11.703125 L 5.703125 -12.46875 L 5.875 -13.28125 L 6.03125 -14.15625 L 6.46875 -15.734375 L 6.5625 -16.546875 L 8.453125 -25.703125 L 9.15625 -26.71875 L 9.953125 -26.96875 L 12.359375 -26.671875 L 13.21875 -26.4375 L 14 -26.109375 L 14.796875 -25.953125 L 15.546875 -26 L 16.34375 -25.828125 L 17.09375 -25.5 L 19.5 -24.984375 L 20.6875 -24.84375 L 21.953125 -24.53125 L 24.109375 -23.53125 L 25.515625 -22.6875 L 26.765625 -21.65625 L 28.53125 -18.765625 L 28.828125 -18.046875 L 29.015625 -17.296875 L 29.25 -14.875 L 29.21875 -14.046875 L 28.765625 -11.515625 L 27.75 -9.3125 L 25.609375 -6.84375 L 24.953125 -6.46875 L 24.265625 -6 L 23.734375 -5.1875 L 23.5625 -4.21875 L 23.921875 -3.53125 L 24.75 -1.171875 L 24.96875 -0.375 L 25.90625 1.953125 L 26.046875 2.765625 L 26.421875 3.421875 L 26.671875 4.390625 L 26.25 5.21875 L 25.40625 5.421875 L 24.078125 5.1875 L 23.328125 4.953125 L 20.1875 4.328125 L 18.90625 3.671875 L 18.171875 2.78125 L 17.890625 2 L 17.71875 1.125 L 17.421875 0.4375 L 16.96875 -1.15625 L 16.375 -2.515625 L 16.1875 -3.296875 L 15.890625 -4.21875 L 15.234375 -5.046875 L 12.984375 -5.875 L 12.140625 -5.578125 L 11.609375 -4.859375 L 11 -2.328125 L 10.9375 -1.453125 L 10.71875 -0.75 L 10.421875 0.609375 L 9.8125 1.6875 L 8.453125 1.828125 L 7.25 1.578125 L 6.59375 1.515625 L 5.359375 1.125 L 4.53125 1.078125 L 3.46875 0.328125 Z M 14.3125 -12.265625 L 15.234375 -12.140625 L 17.109375 -11.671875 L 17.890625 -11.546875 L 19.109375 -11.578125 L 19.890625 -11.75 L 20.40625 -12.015625 L 20.96875 -12.515625 L 21.5 -13.234375 L 21.875 -14.421875 L 21.9375 -15.484375 L 21.8125 -16.171875 L 21.09375 -17.609375 L 20.375 -17.96875 L 19.34375 -18.265625 L 18.28125 -18.75 L 16.65625 -18.9375 L 15.859375 -19.125 L 14.953125 -18.984375 L 14.4375 -18.3125 L 14 -16.65625 L 13.9375 -15.96875 L 13.4375 -13.5625 L 13.609375 -12.84375 Z M 14.3125 -12.265625 "/></g></g></g><g fill="#ffffff" fill-opacity="1"><g transform="translate(174.685046, 342.347306)"><g><path d="M 1.921875 -12.421875 L 2.046875 -15.890625 L 2.4375 -16.65625 L 3.3125 -17.109375 L 4.09375 -17.15625 L 4.90625 -17.046875 L 9.640625 -16.953125 L 10.40625 -16.765625 L 14.515625 -16.65625 L 15.328125 -16.1875 L 15.5625 -15.265625 L 15.53125 -11.96875 L 15.015625 -11.140625 L 13.765625 -10.78125 L 11.375 -10.828125 L 10.5625 -10.984375 L 7.796875 -11.078125 L 7.09375 -10.984375 L 5.46875 -11.15625 L 4.6875 -11.015625 L 3.828125 -11.140625 L 2.96875 -11.125 L 2.25 -11.640625 Z M 1.921875 -12.421875 "/></g></g></g><g fill="#ffffff" fill-opacity="1"><g transform="translate(195.536565, 343.015917)"><g><path d="M 10.578125 -1.15625 L 9.328125 -1.03125 L 8.09375 -1.3125 L 7.484375 -2.140625 L 7.46875 -2.921875 L 7.234375 -5.28125 L 7.046875 -6.125 L 6.71875 -9.390625 L 6.703125 -10.234375 L 5.875 -16.25 L 5.828125 -17.40625 L 5.6875 -18.203125 L 5.640625 -19.09375 L 5.40625 -20.21875 L 5.34375 -21.53125 L 4.796875 -22.28125 L 3.96875 -22.609375 L 0.125 -22.25 L -0.6875 -22.0625 L -1.453125 -22.359375 L -1.890625 -23.0625 L -2.125 -24.3125 L -2.28125 -26.359375 L -2.421875 -27.140625 L -2.046875 -28.140625 L -1.3125 -28.640625 L 1.546875 -28.8125 L 2.78125 -29.078125 L 5.1875 -29.234375 L 5.90625 -29.484375 L 6.796875 -29.5 L 7.625 -29.71875 L 8.421875 -29.765625 L 9.25 -29.703125 L 12.5 -30.25 L 13.28125 -30.25 L 14.109375 -30.484375 L 14.890625 -30.484375 L 17.40625 -30.78125 L 18.25 -30.34375 L 18.796875 -29.578125 L 19.1875 -25.71875 L 18.8125 -24.765625 L 18.15625 -24.25 L 17.421875 -24.21875 L 16.59375 -23.984375 L 15.0625 -24 L 13.5 -23.75 L 12.78125 -23.1875 L 12.609375 -21.90625 L 12.90625 -18.375 L 13.109375 -17.53125 L 13.796875 -11.015625 L 14.03125 -10.125 L 14.03125 -9.390625 L 14.25 -7.765625 L 14.265625 -6.921875 L 14.578125 -5.390625 L 14.703125 -3.265625 L 14.421875 -2.09375 L 13.28125 -1.546875 Z M 10.578125 -1.15625 "/></g></g></g><g fill="#ffffff" fill-opacity="1"><g transform="translate(222.770171, 339.603734)"><g><path d="M 2.546875 -2.125 L 2.234375 -2.84375 L -0.359375 -11.390625 L -0.84375 -12.515625 L -3.015625 -20 L -3.640625 -21.609375 L -4.28125 -23.9375 L -4.546875 -24.609375 L -4.75 -25.453125 L -5.046875 -26.125 L -5.3125 -26.96875 L -5.1875 -27.921875 L -4.4375 -28.578125 L 0.28125 -29.96875 L 0.9375 -30.34375 L 2.515625 -30.625 L 3.171875 -31 L 7.21875 -32.140625 L 8.84375 -32.265625 L 9.578125 -32.25 L 10.4375 -32.109375 L 11.21875 -31.9375 L 11.890625 -31.6875 L 12.59375 -31.453125 L 13.359375 -31.109375 L 15.203125 -29.71875 L 15.71875 -28.984375 L 16.46875 -27.671875 L 16.921875 -26.5 L 17.3125 -25.15625 L 17.28125 -23.609375 L 17.015625 -21.859375 L 16.96875 -21.046875 L 17.640625 -20.265625 L 18.4375 -19.921875 L 19.125 -19.484375 L 20.328125 -18.109375 L 21.1875 -16.84375 L 22.109375 -13.671875 L 22.015625 -12.828125 L 22.015625 -12.015625 L 21.859375 -11.109375 L 21.28125 -9.34375 L 20.09375 -7.609375 L 19.515625 -7.03125 L 17.515625 -5.734375 L 16.859375 -5.40625 L 12.90625 -3.953125 L 12.09375 -3.828125 L 6.46875 -1.96875 L 5.28125 -1.734375 L 4.03125 -1.203125 L 3.125 -1.453125 Z M 5.703125 -20.03125 L 8.65625 -21.09375 L 9.671875 -21.84375 L 10.109375 -22.484375 L 10.015625 -23.703125 L 9.546875 -24.828125 L 9.046875 -25.359375 L 8.328125 -25.46875 L 4.234375 -24.484375 L 3.625 -23.796875 L 3.53125 -22.515625 L 3.96875 -21.1875 L 4.734375 -20.25 Z M 8.828125 -9.609375 L 11.859375 -10.46875 L 13.9375 -11.34375 L 14.453125 -11.953125 L 14.71875 -12.65625 L 14.5625 -13.84375 L 14.015625 -14.734375 L 13.40625 -15.3125 L 12.671875 -15.375 L 8.90625 -14.578125 L 8.125 -14.234375 L 7.328125 -14.125 L 6.828125 -13.421875 L 6.671875 -12.65625 L 7.296875 -10.28125 L 8.046875 -9.65625 Z M 8.828125 -9.609375 "/></g></g></g><g clip-path="url(#84dbcb0851)"><g clip-path="url(#9d276fe111)"><g clip-path="url(#3e1fd159d0)"><path fill="#ffffff" d="M 320.417969 231.941406 C 320.980469 232.222656 321.332031 232.929688 321.328125 233.632812 C 313.136719 286.574219 271.703125 309.367188 271.207031 309.648438 C 270.503906 309.996094 269.589844 309.714844 269.101562 308.9375 C 268.609375 308.164062 268.894531 307.25 269.808594 306.832031 C 270.09375 306.621094 310.257812 284.59375 318.09375 233.058594 C 318.167969 232.214844 319.011719 231.585938 319.855469 231.65625 C 319.996094 231.726562 320.136719 231.800781 320.417969 231.941406 Z M 320.417969 231.941406 " fill-opacity="1" fill-rule="nonzero"/></g></g></g><g clip-path="url(#a11b3b963e)"><path fill="#ffffff" d="M 185.695312 261.601562 L 190.34375 261.601562 L 190.34375 267.757812 L 185.695312 267.757812 Z M 185.695312 261.601562 " fill-opacity="1" fill-rule="nonzero"/></g></svg>